Cosmetique-Regular.sfdir
StartChar: exclam
Encoding: 33 33 144
Width: 323
Flags: W
LayerCount: 2
Fore
SplineSet
161 112 m 0,0,1
 187 112 187 112 206 94 c 128,-1,2
 225 76 225 76 225 49 c 0,3,4
 225 23 225 23 206 6 c 128,-1,5
 187 -11 187 -11 161 -11 c 256,6,7
 135 -11 135 -11 116.5 6.5 c 128,-1,8
 98 24 98 24 98 49 c 0,9,10
 98 76 98 76 116 94 c 128,-1,11
 134 112 134 112 161 112 c 0,0,1
109 542 m 1,12,-1
 104 606 l 1,13,14
 104 640 104 640 116.5 662 c 128,-1,15
 129 684 129 684 161 684 c 0,16,17
 188 684 188 684 203.5 666.5 c 128,-1,18
 219 649 219 649 219 622 c 0,19,20
 219 609 219 609 216 582 c 128,-1,21
 213 555 213 555 213 542 c 1,22,-1
 178 180 l 1,23,24
 172 182 172 182 161 182 c 0,25,26
 149 182 149 182 144 180 c 1,27,-1
 109 542 l 1,12,-1
EndSplineSet
EndChar
StartChar: quotedbl
Encoding: 34 34 143
Width: 273
Flags: W
LayerCount: 2
Fore
SplineSet
96 423 m 1,0,-1
 46 423 l 1,1,-1
 46 689 l 1,2,-1
 96 689 l 1,3,-1
 96 423 l 1,0,-1
227 423 m 1,4,-1
 178 423 l 1,5,-1
 178 689 l 1,6,-1
 227 689 l 1,7,-1
 227 423 l 1,4,-1
EndSplineSet
EndChar
StartChar: numbersign
Encoding: 35 35 1
Width: 756
Flags: HW
LayerCount: 2
Fore
SplineSet
359 466 m 1
 486 466 l 1
 569 698 l 1
 631 698 l 1
 548 466 l 1
 700 466 l 1
 683 415 l 1
 530 415 l 1
 484 282 l 1
 645 282 l 1
 629 230 l 1
 464 230 l 1
 382 0 l 1
 321 0 l 1
 403 230 l 1
 275 230 l 1
 192 0 l 1
 131 0 l 1
 212 230 l 1
 56 230 l 1
 74 282 l 1
 231 282 l 1
 278 415 l 1
 109 415 l 1
 127 466 l 1
 296 466 l 1
 379 698 l 1
 440 698 l 1
 359 466 l 1
340 415 m 1
 293 281 l 1
 422 281 l 1
 468 415 l 1
 340 415 l 1
EndSplineSet
Validated: 1
EndChar
StartChar: dollar
Encoding: 36 36 2
Width: 539
Flags: HW
LayerCount: 2
Fore
SplineSet
100 134 m 1
 105 134 l 1
 114.333333333 102 130.5 79.3333333333 153.5 66 c 128
 176.5 52.6666666667 207.333333333 42.6666666667 246 36 c 1
 246 300 l 1
 176 320 128.166666667 343.833333333 102.5 371.5 c 128
 76.8333333333 399.166666667 64 431 64 467 c 0
 64 517 82 558 118 590 c 128
 154 622 196.666666667 638 246 638 c 1
 246 662 243 685.666666667 237 709 c 1
 258 705 l 1
 291 709 l 1
 289.666666667 690.333333333 288.666666667 676 288 666 c 128
 287.333333333 656 287 646.666666667 287 638 c 1
 315 638 341.666666667 635.166666667 367 629.5 c 128
 392.333333333 623.833333333 415.333333333 614.333333333 436 601 c 1
 429.333333333 588.333333333 423.666666667 577.166666667 419 567.5 c 128
 414.333333333 557.833333333 408 543.666666667 400 525 c 1
 394 525 l 1
 388 551 375.5 570.5 356.5 583.5 c 128
 337.5 596.5 314.333333333 603 287 603 c 1
 287 376 l 1
 361.666666667 356 412.333333333 331.666666667 439 303 c 128
 465.666666667 274.333333333 479 240.333333333 479 201 c 0
 479 147 460.5 101.5 423.5 64.5 c 128
 386.5 27.5 341 6.66666666667 287 2 c 1
 286 -22 l 2
 286 -30 286.166666667 -37.6666666667 286.5 -45 c 128
 286.833333333 -52.3333333333 288.333333333 -67.3333333333 291 -90 c 1
 265 -87 l 1
 237 -90 l 1
 246 0 l 1
 213.333333333 0 181.833333333 3.33333333333 151.5 10 c 128
 121.166666667 16.6666666667 94.3333333333 27.3333333333 71 42 c 1
 100 134 l 1
246 602 m 1
 215.333333333 597.333333333 190.166666667 585.666666667 170.5 567 c 128
 150.833333333 548.333333333 141 524 141 494 c 0
 141 465.333333333 151 442 171 424 c 128
 191 406 216 393.666666667 246 387 c 1
 246 602 l 1
398 167 m 0
 398 199.666666667 388.5 225 369.5 243 c 128
 350.5 261 323 276.666666667 287 290 c 1
 287 37 l 1
 321.666666667 44.3333333333 348.833333333 59.1666666667 368.5 81.5 c 128
 388.166666667 103.833333333 398 132.333333333 398 167 c 0
EndSplineSet
Validated: 1
EndChar
StartChar: percent
Encoding: 37 37 6
Width: 743
Flags: W
LayerCount: 2
Fore
SplineSet
576 0 m 0,0,1
 510 0 510 0 466 45 c 128,-1,2
 422 90 422 90 422 157 c 0,3,4
 422 223 422 223 466.5 268.5 c 128,-1,5
 511 314 511 314 576 314 c 0,6,7
 640 314 640 314 684 269 c 128,-1,8
 728 224 728 224 728 161 c 0,9,10
 728 127 728 127 717 94 c 1,11,12
 700 51 700 51 661.5 25.5 c 128,-1,13
 623 0 623 0 576 0 c 0,0,1
621 731 m 1,14,-1
 164 -91 l 1,15,-1
 114 -91 l 1,16,-1
 571 731 l 1,17,-1
 621 731 l 1,14,-1
174 325 m 0,18,19
 108 325 108 325 64 370 c 128,-1,20
 20 415 20 415 20 481 c 256,21,22
 20 547 20 547 64 593 c 128,-1,23
 108 639 108 639 174 639 c 0,24,25
 238 639 238 639 282 594 c 128,-1,26
 326 549 326 549 326 485 c 0,27,28
 326 449 326 449 313 419 c 1,29,30
 297 376 297 376 259 350.5 c 128,-1,31
 221 325 221 325 174 325 c 0,18,19
646 188 m 0,32,33
 646 224 646 224 628 255 c 128,-1,34
 610 286 610 286 575 286 c 0,35,36
 531 286 531 286 517.5 245 c 128,-1,37
 504 204 504 204 504 146 c 0,38,39
 504 96 504 96 518 62.5 c 128,-1,40
 532 29 532 29 575 29 c 0,41,42
 605 29 605 29 623.5 53 c 128,-1,43
 642 77 642 77 642 108 c 1,44,45
 644 122 644 122 645 148.5 c 128,-1,46
 646 175 646 175 646 188 c 0,32,33
244 496 m 0,47,48
 244 558 244 558 224.5 584.5 c 128,-1,49
 205 611 205 611 173 611 c 0,50,51
 129 611 129 611 115 567.5 c 128,-1,52
 101 524 101 524 101 467 c 0,53,54
 101 425 101 425 118 390 c 128,-1,55
 135 355 135 355 173 355 c 0,56,57
 202 355 202 355 221 379.5 c 128,-1,58
 240 404 240 404 240 434 c 1,59,60
 244 462 244 462 244 496 c 0,47,48
EndSplineSet
EndChar
StartChar: ampersand
Encoding: 38 38 7
Width: 702
Flags: W
LayerCount: 2
Fore
SplineSet
260 -13 m 0,0,1
 177 -13 177 -13 116 30 c 128,-1,2
 55 73 55 73 55 152 c 0,3,4
 55 227 55 227 99.5 275 c 128,-1,5
 144 323 144 323 226 371 c 1,6,7
 197 410 197 410 179.5 445.5 c 128,-1,8
 162 481 162 481 162 520 c 0,9,10
 162 585 162 585 207 628 c 128,-1,11
 252 671 252 671 318 671 c 0,12,13
 375 671 375 671 419 642 c 128,-1,14
 463 613 463 613 463 560 c 0,15,16
 463 505 463 505 423.5 461 c 128,-1,17
 384 417 384 417 326 383 c 1,18,19
 367 331 367 331 409.5 281 c 128,-1,20
 452 231 452 231 498 182 c 1,21,22
 571 273 571 273 587 382 c 1,23,-1
 597 382 l 1,24,-1
 639 336 l 1,25,26
 617 285 617 285 587 236 c 128,-1,27
 557 187 557 187 524 151 c 1,28,29
 548 122 548 122 581.5 83 c 128,-1,30
 615 44 615 44 661 0 c 1,31,32
 646 0 646 0 616 1 c 128,-1,33
 586 2 586 2 570 2 c 2,34,-1
 533 0 l 1,35,-1
 468 79 l 1,36,37
 423 35 423 35 372 11 c 128,-1,38
 321 -13 321 -13 260 -13 c 0,0,1
246 342 m 1,39,40
 193 302 193 302 169 273.5 c 128,-1,41
 145 245 145 245 145 197 c 0,42,43
 145 137 145 137 186.5 90.5 c 128,-1,44
 228 44 228 44 289 44 c 0,45,46
 330 44 330 44 366.5 62 c 128,-1,47
 403 80 403 80 437 111 c 1,48,-1
 246 342 l 1,39,40
394 555 m 0,49,50
 394 593 394 593 378 615.5 c 128,-1,51
 362 638 362 638 327 638 c 0,52,53
 290 638 290 638 262 613.5 c 128,-1,54
 234 589 234 589 234 554 c 0,55,56
 234 517 234 517 248 493.5 c 128,-1,57
 262 470 262 470 304 414 c 1,58,59
 347 443 347 443 370.5 476.5 c 128,-1,60
 394 510 394 510 394 555 c 0,49,50
EndSplineSet
EndChar
StartChar: quotesingle
Encoding: 39 39 5
Width: 269
Flags: HW
LayerCount: 2
Fore
SplineSet
122 618 m 1
 126 636.666666667 132.5 652.5 141.5 665.5 c 128
 150.5 678.5 163.333333333 685 180 685 c 0
 190.666666667 685 200.166666667 681.666666667 208.5 675 c 128
 216.833333333 668.333333333 221 660.333333333 221 651 c 0
 221 641 218.333333333 630 213 618 c 128
 207.666666667 606 201.333333333 595 194 585 c 1
 88 409 l 1
 64 415 l 1
 122 618 l 1
EndSplineSet
Validated: 1
EndChar
StartChar: parenleft
Encoding: 40 40 9
Width: 323
Flags: W
LayerCount: 2
Fore
SplineSet
82 280 m 0,0,1
 82 393 82 393 126.5 492.5 c 128,-1,2
 171 592 171 592 253 684 c 1,3,4
 260 672 260 672 274 661 c 1,5,6
 210 563 210 563 182.5 475.5 c 128,-1,7
 155 388 155 388 155 273 c 0,8,9
 155 167 155 167 184.5 74.5 c 128,-1,10
 214 -18 214 -18 274 -109 c 1,11,12
 260 -120 260 -120 253 -132 c 1,13,14
 167 -36 167 -36 124.5 61 c 128,-1,15
 82 158 82 158 82 280 c 0,0,1
EndSplineSet
EndChar
StartChar: parenright
Encoding: 41 41 7
Width: 323
Flags: HW
LayerCount: 2
Fore
SplineSet
240 271 m 0
 240 195 225.5 124.333333333 196.5 59 c 128
 167.5 -6.33333333333 125.333333333 -70 70 -132 c 1
 64 -122.666666667 56.6666666667 -115 48 -109 c 1
 91.3333333333 -44.3333333333 122.166666667 17.1666666667 140.5 75.5 c 128
 158.833333333 133.833333333 168 201.333333333 168 278 c 0
 168 348.666666667 158.166666667 414.666666667 138.5 476 c 128
 118.833333333 537.333333333 88.6666666667 599 48 661 c 1
 58.6666666667 668.333333333 66 676 70 684 c 1
 127.333333333 620 170 555.5 198 490.5 c 128
 226 425.5 240 352.333333333 240 271 c 0
EndSplineSet
Validated: 1
EndChar
StartChar: asterisk
Encoding: 42 42 8
Width: 486
Flags: HW
LayerCount: 2
Fore
SplineSet
243 677 m 256
 249 677 256.333333333 678 265 680 c 128
 273.666666667 682 279 683 281 683 c 1
 274.333333333 661 269.333333333 637.666666667 266 613 c 128
 262.666666667 588.333333333 261 563.333333333 261 538 c 1
 299.666666667 564 338.333333333 594.666666667 377 630 c 1
 385 608.666666667 391 594 395 586 c 128
 399 578 406.666666667 569.666666667 418 561 c 1
 372.666666667 547.666666667 326 529.333333333 278 506 c 1
 298 495.333333333 319.666666667 485.5 343 476.5 c 128
 366.333333333 467.5 390.333333333 459.666666667 415 453 c 1
 397.666666667 433 384.666666667 410.333333333 376 385 c 1
 355.333333333 403.666666667 336 420.333333333 318 435 c 128
 300 449.666666667 281 463.333333333 261 476 c 1
 261 454 262.833333333 430.833333333 266.5 406.5 c 128
 270.166666667 382.166666667 275.333333333 357 282 331 c 1
 276.666666667 331 269.333333333 331.833333333 260 333.5 c 128
 250.666666667 335.166666667 245 336 243 336 c 0
 237.666666667 336 230.5 335.166666667 221.5 333.5 c 128
 212.5 331.833333333 206.666666667 331 204 331 c 1
 210.666666667 361 216 387.166666667 220 409.5 c 128
 224 431.833333333 226 454 226 476 c 1
 182 448 143.666666667 417.666666667 111 385 c 1
 104.333333333 401.666666667 98.5 414.666666667 93.5 424 c 128
 88.5 433.333333333 81 443.333333333 71 454 c 1
 91.6666666667 460 112.833333333 467.333333333 134.5 476 c 128
 156.166666667 484.666666667 180.333333333 495 207 507 c 1
 181.666666667 519 158.333333333 529.166666667 137 537.5 c 128
 115.666666667 545.833333333 92.6666666667 553.333333333 68 560 c 1
 77.3333333333 568.666666667 85 578.5 91 589.5 c 128
 97 600.5 103 613.666666667 109 629 c 1
 125.666666667 613 144.166666667 596.833333333 164.5 580.5 c 128
 184.833333333 564.166666667 205.333333333 550 226 538 c 1
 226 556 225.166666667 571.166666667 223.5 583.5 c 128
 221.833333333 595.833333333 215.333333333 629.333333333 204 684 c 1
 211.333333333 682 218.166666667 680.333333333 224.5 679 c 128
 230.833333333 677.666666667 237 677 243 677 c 256
EndSplineSet
Validated: 1
EndChar
StartChar: plus
Encoding: 43 43 9
Width: 820
Flags: HW
LayerCount: 2
Fore
SplineSet
434 317 m 1
 698 317 l 1
 698 269 l 1
 434 269 l 1
 434 0 l 1
 386 0 l 1
 386 269 l 1
 122 269 l 1
 122 317 l 1
 386 317 l 1
 386 587 l 1
 434 587 l 1
 434 317 l 1
EndSplineSet
Validated: 1
EndChar
StartChar: comma
Encoding: 44 44 10
Width: 269
Flags: HW
LayerCount: 2
Fore
SplineSet
95 54 m 2
 101 76 107.833333333 93.5 115.5 106.5 c 128
 123.166666667 119.5 136 126 154 126 c 0
 182 126 196 112.666666667 196 86 c 0
 196 72.6666666667 192.833333333 60.1666666667 186.5 48.5 c 128
 180.166666667 36.8333333333 173.666666667 25 167 13 c 2
 53 -175 l 1
 29 -167 l 1
 95 54 l 2
EndSplineSet
Validated: 1
EndChar
StartChar: hyphen
Encoding: 45 45 11
Width: 323
Flags: HW
LayerCount: 2
Fore
SplineSet
42 281 m 1
 280 281 l 1
 280 197 l 1
 42 197 l 1
 42 281 l 1
EndSplineSet
Validated: 1
EndChar
StartChar: period
Encoding: 46 46 15
Width: 269
Flags: W
LayerCount: 2
Fore
SplineSet
135 112 m 0,0,1
 161 112 161 112 179 94 c 128,-1,2
 197 76 197 76 197 49 c 0,3,4
 197 23 197 23 179 6 c 128,-1,5
 161 -11 161 -11 135 -11 c 0,6,7
 108 -11 108 -11 90 6 c 128,-1,8
 72 23 72 23 72 49 c 0,9,10
 72 76 72 76 90 94 c 128,-1,11
 108 112 108 112 135 112 c 0,0,1
EndSplineSet
EndChar
StartChar: slash
Encoding: 47 47 13
Width: 276
Flags: HW
LayerCount: 2
Fore
SplineSet
-26 -91 m 1
 245 738 l 1
 291 738 l 1
 20 -91 l 1
 -26 -91 l 1
EndSplineSet
Validated: 1
EndChar
StartChar: zero
Encoding: 48 48 14
Width: 539
Flags: HW
LayerCount: 2
Fore
SplineSet
269 655 m 0
 351.666666667 655 411.5 622.333333333 448.5 557 c 128
 485.5 491.666666667 504 414.333333333 504 325 c 0
 504 229.666666667 486.833333333 149.333333333 452.5 84 c 128
 418.166666667 18.6666666667 357 -14 269 -14 c 0
 183 -14 122.5 18 87.5 82 c 128
 52.5 146 35 225.333333333 35 320 c 0
 35 414 52.5 493.333333333 87.5 558 c 128
 122.5 622.666666667 183 655 269 655 c 0
136 263 m 1
 136 201.666666667 145.5 146.833333333 164.5 98.5 c 128
 183.5 50.1666666667 218.666666667 26 270 26 c 0
 292.666666667 26 312.833333333 32.1666666667 330.5 44.5 c 128
 348.166666667 56.8333333333 363 76 375 102 c 128
 387 128 394.666666667 159 398 195 c 128
 401.333333333 231 403 275.333333333 403 328 c 0
 403 408 395.166666667 475.5 379.5 530.5 c 128
 363.833333333 585.5 326.666666667 613 268 613 c 0
 224 613 193.666666667 596.833333333 177 564.5 c 128
 160.333333333 532.166666667 149.166666667 499.333333333 143.5 466 c 128
 137.833333333 432.666666667 135 384 135 320 c 1
 136 263 l 1
EndSplineSet
Validated: 1
EndChar
StartChar: one
Encoding: 49 49 15
Width: 539
Flags: HW
LayerCount: 2
Fore
SplineSet
241 451 m 0
 241 465 240.333333333 488 239 520 c 128
 237.666666667 552 237 569 237 571 c 1
 213 557.666666667 188.833333333 544.333333333 164.5 531 c 128
 140.166666667 517.666666667 117.333333333 502.333333333 96 485 c 1
 92 492.333333333 84.6666666667 501.833333333 74 513.5 c 128
 63.3333333333 525.166666667 56 532.333333333 52 535 c 1
 102.666666667 553 151.333333333 573.333333333 198 596 c 128
 244.666666667 618.666666667 288.666666667 644.333333333 330 673 c 1
 340 669 l 1
 340 609 338 518.5 334 397.5 c 128
 330 276.5 328 206.333333333 328 187 c 2
 331 0 l 1
 322.333333333 1.33333333333 313.166666667 2.66666666667 303.5 4 c 128
 293.833333333 5.33333333333 285 6 277 6 c 256
 269 6 260.5 5.33333333333 251.5 4 c 128
 242.5 2.66666666667 233.666666667 1.33333333333 225 0 c 1
 231 64 235.166666667 133.5 237.5 208.5 c 128
 239.833333333 283.5 241 364.333333333 241 451 c 0
EndSplineSet
Validated: 1
EndChar
StartChar: two
Encoding: 50 50 19
Width: 539
Flags: W
LayerCount: 2
Fore
SplineSet
323 467 m 0,0,1
 323 524 323 524 295 568.5 c 128,-1,2
 267 613 267 613 215 613 c 0,3,4
 158 613 158 613 125 578 c 128,-1,5
 92 543 92 543 92 487 c 1,6,-1
 85 485 l 1,7,8
 72 513 72 513 61 533 c 128,-1,9
 50 553 50 553 34 576 c 1,10,11
 114 656 114 656 226 656 c 0,12,13
 307 656 307 656 365.5 608 c 128,-1,14
 424 560 424 560 424 481 c 0,15,16
 424 400 424 400 380 345.5 c 128,-1,17
 336 291 336 291 227 186 c 2,18,-1
 122 85 l 1,19,-1
 319 85 l 2,20,21
 350 85 350 85 382.5 89 c 128,-1,22
 415 93 415 93 448 98 c 1,23,24
 446 85 446 85 445 74 c 128,-1,25
 444 63 444 63 444 49 c 0,26,27
 444 39 444 39 445 27 c 128,-1,28
 446 15 446 15 448 0 c 1,29,30
 405 0 405 0 316 3 c 128,-1,31
 227 6 227 6 182 6 c 0,32,33
 141 6 141 6 102.5 5.5 c 128,-1,34
 64 5 64 5 16 0 c 1,35,-1
 16 29 l 1,36,37
 112 114 112 114 168.5 172 c 128,-1,38
 225 230 225 230 274 310 c 128,-1,39
 323 390 323 390 323 467 c 0,0,1
EndSplineSet
EndChar
StartChar: three
Encoding: 51 51 20
Width: 539
Flags: W
LayerCount: 2
Fore
SplineSet
174 335 m 1,0,-1
 172 369 l 1,1,-1
 212 367 l 1,2,3
 270 367 270 367 305.5 399.5 c 128,-1,4
 341 432 341 432 341 490 c 0,5,6
 341 544 341 544 312.5 580.5 c 128,-1,7
 284 617 284 617 232 617 c 0,8,9
 185 617 185 617 158.5 589.5 c 128,-1,10
 132 562 132 562 118 512 c 1,11,-1
 110 509 l 1,12,13
 98 538 98 538 91.5 553 c 128,-1,14
 85 568 85 568 71 590 c 1,15,16
 117 622 117 622 158.5 638.5 c 128,-1,17
 200 655 200 655 251 655 c 0,18,19
 324 655 324 655 379 617.5 c 128,-1,20
 434 580 434 580 434 509 c 0,21,22
 434 445 434 445 390.5 406.5 c 128,-1,23
 347 368 347 368 276 345 c 1,24,25
 353 345 353 345 408.5 304.5 c 128,-1,26
 464 264 464 264 464 189 c 0,27,28
 464 93 464 93 391 40 c 128,-1,29
 318 -13 318 -13 218 -13 c 0,30,31
 173 -13 173 -13 132.5 -4.5 c 128,-1,32
 92 4 92 4 54 23 c 1,33,34
 66 84 66 84 71 136 c 1,35,-1
 81 136 l 1,36,37
 98 83 98 83 131.5 52.5 c 128,-1,38
 165 22 165 22 218 22 c 0,39,40
 283 22 283 22 323.5 66.5 c 128,-1,41
 364 111 364 111 364 177 c 0,42,43
 364 240 364 240 325.5 280.5 c 128,-1,44
 287 321 287 321 225 321 c 0,45,46
 201 321 201 321 172 313 c 1,47,-1
 174 335 l 1,0,-1
EndSplineSet
EndChar
StartChar: four
Encoding: 52 52 21
Width: 539
Flags: W
LayerCount: 2
Fore
SplineSet
326 182 m 1,0,-1
 128 185 l 1,1,-1
 28 182 l 1,2,-1
 28 209 l 1,3,4
 80 282 80 282 147 376 c 128,-1,5
 214 470 214 470 249 519 c 128,-1,6
 284 568 284 568 342 652 c 1,7,-1
 380 650 l 1,8,-1
 419 652 l 1,9,10
 419 628 419 628 415 580 c 128,-1,11
 411 532 411 532 411 508 c 2,12,-1
 411 247 l 1,13,-1
 432 247 l 2,14,15
 448 247 448 247 465 248 c 128,-1,16
 482 249 482 249 498 252 c 1,17,-1
 492 214 l 1,18,19
 492 207 492 207 494 195 c 128,-1,20
 496 183 496 183 498 176 c 1,21,22
 453 182 453 182 409 182 c 1,23,-1
 409 99 l 1,24,-1
 412 0 l 1,25,-1
 365 5 l 1,26,-1
 315 0 l 1,27,28
 322 37 322 37 324 87 c 128,-1,29
 326 137 326 137 326 182 c 1,0,-1
326 552 m 1,30,-1
 248 451 l 1,31,32
 215 405 215 405 166 335 c 128,-1,33
 117 265 117 265 104 247 c 1,34,-1
 326 247 l 1,35,-1
 326 552 l 1,30,-1
EndSplineSet
EndChar
StartChar: five
Encoding: 53 53 19
Width: 539
Flags: HW
LayerCount: 2
Fore
SplineSet
84 145 m 1
 91.3333333333 106.333333333 105.833333333 76.6666666667 127.5 56 c 128
 149.166666667 35.3333333333 179.666666667 25 219 25 c 0
 263.666666667 25 299.833333333 40.1666666667 327.5 70.5 c 128
 355.166666667 100.833333333 369 138.666666667 369 184 c 0
 369 228 356 264.666666667 330 294 c 128
 304 323.333333333 269.333333333 338 226 338 c 0
 184.666666667 338 150.333333333 325.666666667 123 301 c 1
 108 309 l 1
 114 378 l 1
 114 399.333333333 113.666666667 432.166666667 113 476.5 c 128
 112.333333333 520.833333333 112 554.333333333 112 577 c 1
 106 639 l 1
 276 633 l 1
 297 633 l 2
 349 633 401 635 453 639 c 1
 451.666666667 631 450.5 621.666666667 449.5 611 c 128
 448.5 600.333333333 448 593 448 589 c 2
 451 547 l 1
 306 548 l 1
 162 547 l 1
 162 526.333333333 161 495.333333333 159 454 c 128
 157 412.666666667 156 381.333333333 156 360 c 1
 194.666666667 376.666666667 233 385 271 385 c 0
 326.333333333 385 373.5 368 412.5 334 c 128
 451.5 300 471 255.666666667 471 201 c 0
 471 133.666666667 446.166666667 81.1666666667 396.5 43.5 c 128
 346.833333333 5.83333333333 287.666666667 -13 219 -13 c 0
 184.333333333 -13 154.5 -10.3333333333 129.5 -5 c 128
 104.5 0.333333333333 79.3333333333 10.3333333333 54 25 c 1
 60 65 66.3333333333 105 73 145 c 1
 84 145 l 1
EndSplineSet
Validated: 1
EndChar
StartChar: six
Encoding: 54 54 23
Width: 539
Flags: W
LayerCount: 2
Fore
SplineSet
335 619 m 0,0,1
 234 619 234 619 193 526.5 c 128,-1,2
 152 434 152 434 152 318 c 1,3,4
 190 352 190 352 227.5 370.5 c 128,-1,5
 265 389 265 389 311 389 c 0,6,7
 393 389 393 389 445.5 333.5 c 128,-1,8
 498 278 498 278 498 195 c 0,9,10
 498 105 498 105 435 47 c 128,-1,11
 372 -11 372 -11 281 -11 c 0,12,13
 159 -11 159 -11 102.5 67 c 128,-1,14
 46 145 46 145 46 272 c 0,15,16
 46 419 46 419 120.5 537 c 128,-1,17
 195 655 195 655 333 655 c 0,18,19
 361 655 361 655 377.5 652.5 c 128,-1,20
 394 650 394 650 417 642 c 1,21,-1
 414 596 l 1,22,23
 394 608 394 608 375.5 613.5 c 128,-1,24
 357 619 357 619 335 619 c 0,0,1
399 186 m 0,25,26
 399 250 399 250 367.5 294.5 c 128,-1,27
 336 339 336 339 274 339 c 0,28,29
 216 339 216 339 183.5 295 c 128,-1,30
 151 251 151 251 151 190 c 0,31,32
 151 124 151 124 182.5 76 c 128,-1,33
 214 28 214 28 277 28 c 0,34,35
 318 28 318 28 349.5 53 c 128,-1,36
 381 78 381 78 389 106.5 c 128,-1,37
 397 135 397 135 398 148.5 c 128,-1,38
 399 162 399 162 399 186 c 0,25,26
EndSplineSet
EndChar
StartChar: seven
Encoding: 55 55 24
Width: 539
Flags: W
LayerCount: 2
Fore
SplineSet
333 399 m 2,0,-1
 423 555 l 1,1,-1
 262 555 l 2,2,3
 168 555 168 555 94 544 c 1,4,5
 96 554 96 554 97 566.5 c 128,-1,6
 98 579 98 579 98 591 c 0,7,8
 98 614 98 614 93 639 c 1,9,-1
 295 636 l 1,10,-1
 526 639 l 1,11,-1
 526 627 l 1,12,13
 420 462 420 462 334.5 309 c 128,-1,14
 249 156 249 156 182 0 c 1,15,-1
 141 6 l 1,16,17
 123 6 123 6 111.5 4 c 128,-1,18
 100 2 100 2 89 0 c 1,19,20
 130 66 130 66 155 105.5 c 128,-1,21
 180 145 180 145 240.5 244.5 c 128,-1,22
 301 344 301 344 333 399 c 2,0,-1
EndSplineSet
EndChar
StartChar: eight
Encoding: 56 56 25
Width: 539
Flags: W
LayerCount: 2
Fore
SplineSet
80 501 m 0,0,1
 80 574 80 574 135.5 614 c 128,-1,2
 191 654 191 654 268 654 c 0,3,4
 347 654 347 654 403 615 c 128,-1,5
 459 576 459 576 459 500 c 0,6,7
 459 447 459 447 425.5 414 c 128,-1,8
 392 381 392 381 337 367 c 1,9,-1
 337 359 l 1,10,11
 413 342 413 342 455 297.5 c 128,-1,12
 497 253 497 253 497 178 c 0,13,14
 497 87 497 87 431 37 c 128,-1,15
 365 -13 365 -13 270 -13 c 0,16,17
 173 -13 173 -13 108 35 c 128,-1,18
 43 83 43 83 43 178 c 0,19,20
 43 250 43 250 86 298 c 128,-1,21
 129 346 129 346 203 359 c 1,22,-1
 203 367 l 1,23,24
 149 375 149 375 114.5 410.5 c 128,-1,25
 80 446 80 446 80 501 c 0,0,1
268 382 m 0,26,27
 316 382 316 382 341 415.5 c 128,-1,28
 366 449 366 449 366 499 c 0,29,30
 366 550 366 550 339.5 583 c 128,-1,31
 313 616 313 616 265 616 c 0,32,33
 221 616 221 616 196.5 581 c 128,-1,34
 172 546 172 546 172 499 c 0,35,36
 172 450 172 450 196.5 416 c 128,-1,37
 221 382 221 382 268 382 c 0,26,27
270 22 m 0,38,39
 333 22 333 22 365 70 c 128,-1,40
 397 118 397 118 397 184 c 0,41,42
 397 251 397 251 365.5 299 c 128,-1,43
 334 347 334 347 270 347 c 0,44,45
 205 347 205 347 173 300 c 128,-1,46
 141 253 141 253 141 184 c 0,47,48
 141 117 141 117 173.5 69.5 c 128,-1,49
 206 22 206 22 270 22 c 0,38,39
EndSplineSet
EndChar
StartChar: nine
Encoding: 57 57 26
Width: 539
Flags: W
LayerCount: 2
Fore
SplineSet
188 27 m 0,0,1
 291 27 291 27 341.5 120 c 128,-1,2
 392 213 392 213 392 325 c 1,3,4
 355 291 355 291 317.5 273 c 128,-1,5
 280 255 280 255 234 255 c 0,6,7
 150 255 150 255 95.5 308.5 c 128,-1,8
 41 362 41 362 41 445 c 0,9,10
 41 539 41 539 107 597 c 128,-1,11
 173 655 173 655 268 655 c 0,12,13
 386 655 386 655 440.5 577.5 c 128,-1,14
 495 500 495 500 495 375 c 0,15,16
 495 220 495 220 413.5 103.5 c 128,-1,17
 332 -13 332 -13 182 -13 c 0,18,19
 152 -13 152 -13 134 -10.5 c 128,-1,20
 116 -8 116 -8 92 0 c 1,21,-1
 82 65 l 1,22,23
 103 46 103 46 130 36.5 c 128,-1,24
 157 27 157 27 188 27 c 0,0,1
268 302 m 0,25,26
 329 302 329 302 361 347.5 c 128,-1,27
 393 393 393 393 393 457 c 0,28,29
 393 523 393 523 363 569.5 c 128,-1,30
 333 616 333 616 269 616 c 256,31,32
 205 616 205 616 172 570 c 128,-1,33
 139 524 139 524 139 459 c 0,34,35
 139 393 139 393 172 347.5 c 128,-1,36
 205 302 205 302 268 302 c 0,25,26
EndSplineSet
EndChar
StartChar: colon
Encoding: 58 58 27
Width: 321
Flags: W
LayerCount: 2
Fore
SplineSet
161 458 m 0,0,1
 187 458 187 458 205 440 c 128,-1,2
 223 422 223 422 223 395 c 0,3,4
 223 369 223 369 205.5 350.5 c 128,-1,5
 188 332 188 332 161 332 c 0,6,7
 135 332 135 332 116 350 c 128,-1,8
 97 368 97 368 97 395 c 0,9,10
 97 421 97 421 115.5 439.5 c 128,-1,11
 134 458 134 458 161 458 c 0,0,1
161 112 m 256,12,13
 187 112 187 112 205.5 94.5 c 128,-1,14
 224 77 224 77 224 50 c 256,15,16
 224 23 224 23 206 6 c 128,-1,17
 188 -11 188 -11 161 -11 c 0,18,19
 135 -11 135 -11 116.5 6.5 c 128,-1,20
 98 24 98 24 98 50 c 0,21,22
 98 77 98 77 116.5 94.5 c 128,-1,23
 135 112 135 112 161 112 c 256,12,13
EndSplineSet
EndChar
StartChar: semicolon
Encoding: 59 59 25
Width: 321
Flags: HW
LayerCount: 2
Fore
SplineSet
162 458 m 256
 180 458 195 452 207 440 c 128
 219 428 225 413 225 395 c 256
 225 377 219 362 207 350 c 128
 195 338 180 332 162 332 c 0
 144.666666667 332 129.833333333 338.166666667 117.5 350.5 c 128
 105.166666667 362.833333333 99 377.666666667 99 395 c 0
 99 413 105 428 117 440 c 128
 129 452 144 458 162 458 c 256
119 54 m 2
 127.666666667 85.3333333333 135.833333333 105.166666667 143.5 113.5 c 128
 151.166666667 121.833333333 162.333333333 126 177 126 c 0
 205.666666667 126 220 112.666666667 220 86 c 0
 220 73.3333333333 218 62.6666666667 214 54 c 128
 210 45.3333333333 202 31.6666666667 190 13 c 2
 75 -175 l 1
 53 -167 l 1
 119 54 l 2
EndSplineSet
Validated: 1
EndChar
StartChar: less
Encoding: 60 60 29
Width: 820
Flags: W
LayerCount: 2
Fore
SplineSet
202 293 m 1,0,-1
 692 94 l 1,1,-1
 692 41 l 1,2,-1
 127 273 l 1,3,-1
 127 312 l 1,4,-1
 692 545 l 1,5,-1
 692 492 l 1,6,-1
 202 293 l 1,0,-1
EndSplineSet
EndChar
StartChar: equal
Encoding: 61 61 27
Width: 820
Flags: HW
LayerCount: 2
Fore
SplineSet
698 359 m 1
 122 359 l 1
 122 406 l 1
 698 406 l 1
 698 359 l 1
698 179 m 1
 122 179 l 1
 122 227 l 1
 698 227 l 1
 698 179 l 1
EndSplineSet
Validated: 1
EndChar
StartChar: greater
Encoding: 62 62 28
Width: 820
Flags: HW
LayerCount: 2
Fore
SplineSet
693 273 m 1
 127 41 l 1
 127 94 l 1
 618 293 l 1
 127 492 l 1
 127 545 l 1
 693 312 l 1
 693 273 l 1
EndSplineSet
Validated: 1
EndChar
StartChar: question
Encoding: 63 63 29
Width: 433
Flags: HW
LayerCount: 2
Fore
SplineSet
221 112 m 0
 237.666666667 112 252 106 264 94 c 128
 276 82 282 67 282 49 c 256
 282 31 276.166666667 16.5 264.5 5.5 c 128
 252.833333333 -5.5 238.333333333 -11 221 -11 c 0
 203 -11 188 -5.33333333333 176 6 c 128
 164 17.3333333333 158 31.6666666667 158 49 c 0
 158 67 164 82 176 94 c 128
 188 106 203 112 221 112 c 0
237 180 m 0
 204.333333333 180 176.833333333 189.833333333 154.5 209.5 c 128
 132.166666667 229.166666667 121 255.333333333 121 288 c 0
 121 326 149.5 373 206.5 429 c 128
 263.5 485 292 528.333333333 292 559 c 0
 292 581.666666667 283.833333333 601.5 267.5 618.5 c 128
 251.166666667 635.5 232 644 210 644 c 0
 186.666666667 644 166.333333333 637.5 149 624.5 c 128
 131.666666667 611.5 121 594 117 572 c 1
 108 572 l 1
 106 585.333333333 104.166666667 595.333333333 102.5 602 c 128
 100 612 100 612 92 644 c 1
 110 657.333333333 129.833333333 667.333333333 151.5 674 c 128
 173.166666667 680.666666667 196 684 220 684 c 0
 262.666666667 684 299 670.5 329 643.5 c 128
 359 616.5 374 581.666666667 374 539 c 0
 374 495 344.833333333 447.333333333 286.5 396 c 128
 228.166666667 344.666666667 199 301.666666667 199 267 c 0
 199 251 203.166666667 238 211.5 228 c 128
 219.833333333 218 231.666666667 213 247 213 c 0
 261 213 274 214.666666667 286 218 c 1
 276 185 l 1
 267.333333333 183 261 181.666666667 257 181 c 128
 253 180.333333333 246.333333333 180 237 180 c 0
EndSplineSet
Validated: 1
EndChar
StartChar: at
Encoding: 64 64 30
Width: 984
Flags: HW
LayerCount: 2
Fore
SplineSet
652 461 m 1
 698 461 l 1
 631 192 l 1
 622 147 l 1
 622 132.333333333 627.333333333 121.333333333 638 114 c 128
 648.666666667 106.666666667 661.666666667 103 677 103 c 0
 735.666666667 103 782.833333333 132 818.5 190 c 128
 854.166666667 248 872 308 872 370 c 0
 872 456.666666667 837.5 525.833333333 768.5 577.5 c 128
 699.5 629.166666667 620 655 530 655 c 0
 414.666666667 655 316 617.666666667 234 543 c 128
 152 468.333333333 111 374.333333333 111 261 c 0
 111 152.333333333 146.333333333 65.8333333333 217 1.5 c 128
 287.666666667 -62.8333333333 378.333333333 -95 489 -95 c 0
 543 -95 597 -87.1666666667 651 -71.5 c 128
 705 -55.8333333333 753.333333333 -33 796 -3 c 1
 813 -30 l 1
 767 -64 717.5 -90 664.5 -108 c 128
 611.5 -126 556.666666667 -135 500 -135 c 0
 377.333333333 -135 272.666666667 -100.333333333 186 -31 c 128
 99.3333333333 38.3333333333 56 133 56 253 c 0
 56 379.666666667 103 485.5 197 570.5 c 128
 291 655.5 402.333333333 698 531 698 c 0
 635.666666667 698 728 667.833333333 808 607.5 c 128
 888 547.166666667 928 466.666666667 928 366 c 0
 928 288.666666667 903.666666667 218.333333333 855 155 c 128
 806.333333333 91.6666666667 744.333333333 60 669 60 c 0
 644.333333333 60 621.5 65 600.5 75 c 128
 579.5 85 569 101 569 123 c 1
 570 146 l 1
 556 120.666666667 536.166666667 99.8333333333 510.5 83.5 c 128
 484.833333333 67.1666666667 457.666666667 59 429 59 c 0
 379.666666667 59 342.166666667 72.8333333333 316.5 100.5 c 128
 290.833333333 128.166666667 278 167.333333333 278 218 c 0
 278 284.666666667 298.5 344.833333333 339.5 398.5 c 128
 380.5 452.166666667 433.666666667 479 499 479 c 0
 529 479 554.333333333 472.833333333 575 460.5 c 128
 595.666666667 448.166666667 611.666666667 428.333333333 623 401 c 1
 652 461 l 1
611 344 m 1
 604.333333333 372 591.833333333 394.833333333 573.5 412.5 c 128
 555.166666667 430.166666667 532.333333333 439 505 439 c 0
 452.333333333 439 411 415.5 381 368.5 c 128
 351 321.5 336 270 336 214 c 0
 336 182 344.833333333 155 362.5 133 c 128
 380.166666667 111 404.666666667 100 436 100 c 0
 471.333333333 100 502 112 528 136 c 128
 554 160 571.666666667 190 581 226 c 2
 611 344 l 1
EndSplineSet
Validated: 1
EndChar
StartChar: A
Encoding: 65 65 31
Width: 594
Flags: W
HStem: 0 21G<-9.33333 0 32 76.3333 468 481.333 584 599.667> 255 51<177 369> 664 20G<270.696 281 322.333 346>
VStem: -11 84<0 49.9288>
AnchorPoint: "tails" 541 5 basechar 0
AnchorPoint: "above" 301 742 basechar 0
AnchorPoint: "circum" 301 690 basechar 0
LayerCount: 2
Fore
SplineSet
186 460 m 2
 279 684 l 1
 283 682.666666667 286.666666667 681.666666667 290 681 c 0
 293.333333333 680.333333333 297 680 301 680 c 0
 310.333333333 680 318.666666667 681.333333333 326 684 c 1
 366 580 395.833333333 503.166666667 415.5 453.5 c 0
 435.166666667 403.833333333 461.5 339 494.5 259 c 0
 527.5 179 564 92.6666666667 604 0 c 1
 595.333333333 0 583.5 0.833333333333 568.5 2.5 c 0
 553.5 4.16666666667 544.333333333 5 541 5 c 0
 527.666666667 5 515.5 4.33333333333 504.5 3 c 0
 493.5 1.66666666667 484.666666667 0.666666666667 478 0 c 1
 458 66 442.833333333 113.833333333 432.5 143.5 c 0
 422.166666667 173.166666667 408.333333333 210.333333333 391 255 c 1
 272 258 l 1
 155 255 l 1
 117 148 l 2
 109 126.666666667 101.333333333 103.833333333 94 79.5 c 0
 86.6666666667 55.1666666667 79.6666666667 28.6666666667 73 0 c 1
 32 4 l 1
 20.6666666667 4 11.5 3.33333333333 4.5 2 c 0
 -2.5 0.666666666667 -7.66666666667 0 -11 0 c 1
 11 50.6666666667 33 101.5 55 152.5 c 0
 77 203.5 96.8333333333 249.666666667 114.5 291 c 0
 132.166666667 332.333333333 156 388.666666667 186 460 c 2
272 302 m 1
 369 306 l 1
 273 548 l 1
 177 306 l 1
 272 302 l 1
EndSplineSet
EndChar
StartChar: B
Encoding: 66 66 32
Width: 577
Flags: HW
LayerCount: 2
Fore
SplineSet
92 403 m 0
 92 499 88.3333333333 588.333333333 81 671 c 1
 149 669 l 2
 168.333333333 669 200.5 669.666666667 245.5 671 c 128
 290.5 672.333333333 314.333333333 673 317 673 c 0
 370.333333333 673 416 660.666666667 454 636 c 128
 492 611.333333333 511 573.666666667 511 523 c 0
 511 478.333333333 494 443 460 417 c 128
 426 391 384.333333333 373 335 363 c 1
 397.666666667 356.333333333 447.666666667 340.666666667 485 316 c 128
 522.333333333 291.333333333 541 250.333333333 541 193 c 0
 541 128.333333333 514.333333333 80 461 48 c 128
 407.666666667 16 346 0 276 0 c 1
 168 4 l 2
 158 4 141.166666667 3.33333333333 117.5 2 c 128
 93.8333333333 0.666666666667 81 0 79 0 c 1
 79 41.3333333333 81.1666666667 110.333333333 85.5 207 c 128
 89.8333333333 303.666666667 92 369 92 403 c 0
185 185 m 1
 185 107 l 1
 189 44 l 1
 244 41 l 1
 298 41 343.166666667 53.3333333333 379.5 78 c 128
 415.833333333 102.666666667 434 140.666666667 434 192 c 0
 434 249.333333333 415.166666667 288.166666667 377.5 308.5 c 128
 339.833333333 328.833333333 289.333333333 339 226 339 c 1
 185 338 l 1
 185 185 l 1
410 509 m 0
 410 548.333333333 395.333333333 578.833333333 366 600.5 c 128
 336.666666667 622.166666667 301.666666667 633 261 633 c 1
 189 630 l 1
 184.333333333 593.333333333 182 553.666666667 182 511 c 2
 182 376 l 1
 245.333333333 376 299.166666667 384.833333333 343.5 402.5 c 128
 387.833333333 420.166666667 410 455.666666667 410 509 c 0
EndSplineSet
Validated: 1
EndChar
StartChar: C
Encoding: 67 67 33
Width: 657
Flags: HW
LayerCount: 2
Fore
SplineSet
597 531 m 1
 551.666666667 603.666666667 485.333333333 640 398 640 c 0
 316.666666667 640 254.833333333 611 212.5 553 c 128
 170.166666667 495 149 423.333333333 149 338 c 0
 149 259.333333333 171.166666667 189.333333333 215.5 128 c 128
 259.833333333 66.6666666667 320.333333333 36 397 36 c 0
 438.333333333 36 476.5 44.6666666667 511.5 62 c 128
 546.5 79.3333333333 581.333333333 104 616 136 c 1
 627 132 l 1
 623 114.666666667 620.166666667 100 618.5 88 c 128
 616.833333333 76 616 63.3333333333 616 50 c 1
 541.333333333 9.33333333333 461.333333333 -11 376 -11 c 0
 274 -11 192 20.6666666667 130 84 c 128
 68 147.333333333 37 230.333333333 37 333 c 0
 37 442.333333333 70.1666666667 528.166666667 136.5 590.5 c 128
 202.833333333 652.833333333 291 684 401 684 c 0
 440.333333333 684 479.333333333 679.333333333 518 670 c 128
 556.666666667 660.666666667 595.666666667 647.333333333 635 630 c 1
 628.333333333 614.666666667 622.666666667 598.833333333 618 582.5 c 128
 613.333333333 566.166666667 610.333333333 549 609 531 c 1
 597 531 l 1
EndSplineSet
Validated: 1
EndChar
StartChar: D
Encoding: 68 68 37
Width: 751
Flags: W
LayerCount: 2
Fore
SplineSet
91 336 m 0,0,1
 91 387 91 387 84.5 507.5 c 128,-1,2
 78 628 78 628 78 671 c 1,3,-1
 152 669 l 2,4,5
 181 669 181 669 252.5 672.5 c 128,-1,6
 324 676 324 676 344 676 c 0,7,8
 399 676 399 676 417.5 674.5 c 128,-1,9
 436 673 436 673 511.5 660.5 c 128,-1,10
 587 648 587 648 650.5 558 c 128,-1,11
 714 468 714 468 714 348 c 0,12,13
 714 188 714 188 614 94 c 128,-1,14
 514 0 514 0 354 0 c 1,15,-1
 273 1 l 1,16,-1
 165 5 l 1,17,-1
 147 6 l 1,18,19
 125 6 125 6 107 4 c 128,-1,20
 89 2 89 2 78 1 c 1,21,22
 78 52 78 52 84.5 173.5 c 128,-1,23
 91 295 91 295 91 336 c 0,0,1
290 46 m 0,24,25
 439 46 439 46 522 121.5 c 128,-1,26
 605 197 605 197 605 345 c 0,27,28
 605 483 605 483 526.5 557.5 c 128,-1,29
 448 632 448 632 309 632 c 0,30,31
 289 632 289 632 249 629 c 128,-1,32
 209 626 209 626 189 626 c 1,33,-1
 184 358 l 1,34,-1
 184 271 l 1,35,-1
 189 55 l 1,36,37
 211 52 211 52 240 49 c 128,-1,38
 269 46 269 46 290 46 c 0,24,25
EndSplineSet
EndChar
StartChar: E
Encoding: 69 69 35
Width: 494
Flags: W
HStem: 3 50<190 440.157> 333 47<186 405.625> 619 49<188 436.71>
VStem: 78 112<53 168.72> 91 95<53.0728 333 380 618.205>
AnchorPoint: "above" 274 742 basechar 0
AnchorPoint: "circum" 274 742 basechar 0
LayerCount: 2
Fore
SplineSet
91 335 m 0xe8
 91 409.666666667 90.1666666667 468.833333333 88.5 512.5 c 0
 86.8333333333 556.166666667 83.3333333333 609 78 671 c 1xf0
 255 668 l 1
 440 671 l 1
 437 637 l 1
 440 602 l 1
 416.666666667 607.333333333 392 611.5 366 614.5 c 0
 340 617.5 316 619 294 619 c 2
 188 619 l 1
 186 483 l 1
 186 380 l 1
 287 380 l 2
 326.333333333 380 371.666666667 383.333333333 423 390 c 1
 421 358 l 1
 423 325 l 1
 284 333 l 1
 186 333 l 1
 186 228 l 1xe8
 190 53 l 1
 246 53 292.166666667 53.8333333333 328.5 55.5 c 0
 364.833333333 57.1666666667 402.666666667 61.3333333333 442 68 c 1
 440 34 l 1
 442 0 l 1
 258 3 l 1
 78 0 l 1xf0
 78 34 80.1666666667 91.5 84.5 172.5 c 0
 88.8333333333 253.5 91 307.666666667 91 335 c 0xe8
EndSplineSet
EndChar
StartChar: F
Encoding: 70 70 39
Width: 483
Flags: W
LayerCount: 2
Fore
SplineSet
186 228 m 2,0,1
 186 183 186 183 189.5 102.5 c 128,-1,2
 193 22 193 22 193 0 c 1,3,4
 184 0 184 0 165 3 c 128,-1,5
 146 6 146 6 136 6 c 256,6,7
 126 6 126 6 107 3 c 128,-1,8
 88 0 88 0 78 0 c 1,9,10
 78 51 78 51 84.5 172.5 c 128,-1,11
 91 294 91 294 91 335 c 0,12,13
 91 447 91 447 88.5 512.5 c 128,-1,14
 86 578 86 578 78 671 c 1,15,-1
 258 668 l 1,16,-1
 442 671 l 1,17,-1
 440 638 l 1,18,-1
 442 602 l 1,19,20
 396 613 396 613 364 616 c 128,-1,21
 332 619 332 619 280 619 c 2,22,-1
 188 619 l 1,23,-1
 186 483 l 1,24,-1
 186 380 l 1,25,-1
 287 380 l 2,26,27
 346 380 346 380 423 390 c 1,28,-1
 421 358 l 1,29,-1
 423 325 l 1,30,-1
 284 333 l 1,31,-1
 186 333 l 1,32,-1
 186 228 l 2,0,1
EndSplineSet
EndChar
StartChar: G
Encoding: 71 71 37
Width: 721
Flags: HW
AnchorPoint: "circum" 412 742 basechar 0
AnchorPoint: "above" 412 742 basechar 0
LayerCount: 2
Fore
SplineSet
419 -11 m 0
 305.666666667 -11 213.666666667 18.3333333333 143 77 c 128
 72.3333333333 135.666666667 37 220.333333333 37 331 c 0
 37 437 72 522.333333333 142 587 c 128
 212 651.666666667 300.666666667 684 408 684 c 0
 452.666666667 684 498.166666667 679.166666667 544.5 669.5 c 128
 590.833333333 659.833333333 632.666666667 645.333333333 670 626 c 1
 663.333333333 610 657.833333333 594 653.5 578 c 128
 649.166666667 562 646.333333333 546.333333333 645 531 c 1
 630 531 l 1
 598.666666667 569.666666667 566.333333333 598 533 616 c 128
 499.666666667 634 459.333333333 643 412 643 c 0
 332.666666667 643 268.666666667 613.5 220 554.5 c 128
 171.333333333 495.5 147 425.666666667 147 345 c 0
 147 255 169.833333333 180.5 215.5 121.5 c 128
 261.166666667 62.5 328.333333333 33 417 33 c 0
 447.666666667 33 474.833333333 35.5 498.5 40.5 c 128
 522.166666667 45.5 546.333333333 54.6666666667 571 68 c 1
 571 82 571.666666667 103.666666667 573 133 c 128
 574.333333333 162.333333333 575 178.333333333 575 181 c 0
 575 195 574 215.666666667 572 243 c 128
 570 270.333333333 569 291 569 305 c 1
 584.333333333 302.333333333 594 300.833333333 598 300.5 c 128
 602 300.166666667 610 300 622 300 c 0
 630 300 639.166666667 300.666666667 649.5 302 c 128
 659.833333333 303.333333333 669.333333333 304.666666667 678 306 c 1
 674 170 l 2
 674 153.333333333 674.666666667 125.833333333 676 87.5 c 128
 677.333333333 49.1666666667 678 29 678 27 c 1
 630.666666667 14.3333333333 586.5 4.83333333333 545.5 -1.5 c 128
 504.5 -7.83333333333 462.333333333 -11 419 -11 c 0
EndSplineSet
EndChar
StartChar: H
Encoding: 72 72 38
Width: 746
Flags: W
HStem: 0 21G<78 81.3333 190 193 554 557 665 668> 335 59<186 560> 651 20G<80.6667 82 191 193 554 558 666.333 667>
VStem: 91 95<6.65039 335 394 665.214> 556.5 111.5<0 276.516> 560 97<6.55469 335 394 665.234>
AnchorPoint: "circum" 373 742 basechar 0
AnchorPoint: "above" 373 742 basechar 0
LayerCount: 2
Fore
SplineSet
186 228 m 2xf4
 186 198 187.166666667 156.166666667 189.5 102.5 c 0
 191.833333333 48.8333333333 193 14.6666666667 193 0 c 1
 187 0 177.666666667 1 165 3 c 0
 152.333333333 5 142.666666667 6 136 6 c 256
 129.333333333 6 119.666666667 5 107 3 c 0
 94.3333333333 1 84.6666666667 0 78 0 c 1
 78 34 80.1666666667 91.5 84.5 172.5 c 0
 88.8333333333 253.5 91 307.666666667 91 335 c 0
 91 409.666666667 90.1666666667 468.833333333 88.5 512.5 c 0
 86.8333333333 556.166666667 83.3333333333 609 78 671 c 1
 86 671 97 670.166666667 111 668.5 c 0
 125 666.833333333 133.333333333 666 136 666 c 0
 143.333333333 666 153.666666667 666.833333333 167 668.5 c 0
 180.333333333 670.166666667 189 671 193 671 c 1
 193 633.666666667 191.833333333 582.666666667 189.5 518 c 0
 187.166666667 453.333333333 186 412 186 394 c 1
 373 391 l 1
 560 394 l 1xf4
 560 439.333333333 559 496.666666667 557 566 c 0
 555 635.333333333 554 670.333333333 554 671 c 1
 562 671 572.833333333 670.166666667 586.5 668.5 c 0
 600.166666667 666.833333333 608.333333333 666 611 666 c 0
 619 666 630 666.833333333 644 668.5 c 0
 658 670.166666667 666 671 668 671 c 1xf8
 664.666666667 640.333333333 662 608.333333333 660 575 c 0
 658 541.666666667 657 508.333333333 657 475 c 2
 655 323 l 1
 657 204 l 2xf4
 657 182.666666667 658.833333333 147.166666667 662.5 97.5 c 0
 666.166666667 47.8333333333 668 15.3333333333 668 0 c 1
 662 0 652.666666667 1 640 3 c 0
 627.333333333 5 617.666666667 6 611 6 c 256
 604.333333333 6 594.666666667 5 582 3 c 0
 569.333333333 1 560 0 554 0 c 1
 554 18 554.833333333 42.1666666667 556.5 72.5 c 0xf8
 558.166666667 102.833333333 559 121 559 127 c 2
 560 228 l 1
 560 335 l 1
 532.666666667 335 491.333333333 335.333333333 436 336 c 0
 380.666666667 336.666666667 339 337 311 337 c 2
 186 335 l 1
 186 228 l 2xf4
EndSplineSet
EndChar
StartChar: I
Encoding: 73 73 39
Width: 277
Flags: W
HStem: 0 21G<79 84 195 198> 651 20G<81.6667 84 197 198>
VStem: 85.5 101.5<6.65039 665.214>
AnchorPoint: "above" 139 742 basechar 0
AnchorPoint: "circum" 139 742 basechar 0
LayerCount: 2
Fore
SplineSet
92 335 m 0
 92 409.666666667 91.1666666667 468.833333333 89.5 512.5 c 0
 87.8333333333 556.166666667 84.3333333333 609 79 671 c 1
 89 669.666666667 100.166666667 668.5 112.5 667.5 c 0
 124.833333333 666.5 133.666666667 666 139 666 c 0
 148.333333333 666 160 666.833333333 174 668.5 c 0
 188 670.166666667 196 671 198 671 c 1
 198 649.666666667 196.166666667 615.333333333 192.5 568 c 0
 188.833333333 520.666666667 187 489.666666667 187 475 c 2
 185 323 l 1
 187 204 l 2
 187 182.666666667 188.833333333 147.166666667 192.5 97.5 c 0
 196.166666667 47.8333333333 198 15.3333333333 198 0 c 1
 192 0 182.333333333 1 169 3 c 0
 155.666666667 5 145.666666667 6 139 6 c 0
 130.333333333 6 120.666666667 5.33333333333 110 4 c 0
 99.3333333333 2.66666666667 89 1.33333333333 79 0 c 1
 79 34 81.1666666667 91.5 85.5 172.5 c 0
 89.8333333333 253.5 92 307.666666667 92 335 c 0
EndSplineSet
EndChar
StartChar: J
Encoding: 74 74 43
Width: 277
Flags: W
LayerCount: 2
Fore
SplineSet
85 -29 m 1,0,1
 92 7 92 7 94.5 45 c 128,-1,2
 97 83 97 83 97 133 c 0,3,4
 97 234 97 234 95.5 332.5 c 128,-1,5
 94 431 94 431 91.5 497 c 128,-1,6
 89 563 89 563 80 671 c 1,7,8
 93 671 93 671 114.5 668.5 c 128,-1,9
 136 666 136 666 139 666 c 0,10,11
 159 666 159 666 171.5 667.5 c 128,-1,12
 184 669 184 669 199 671 c 1,13,14
 199 607 199 607 193 479 c 128,-1,15
 187 351 187 351 187 329 c 2,16,-1
 189 119 l 2,17,18
 189 106 189 106 188 77.5 c 128,-1,19
 187 49 187 49 187 35 c 0,20,21
 187 -64 187 -64 122 -112 c 128,-1,22
 57 -160 57 -160 -45 -160 c 1,23,-1
 -51 -130 l 1,24,25
 1 -120 1 -120 36.5 -97 c 128,-1,26
 72 -74 72 -74 85 -29 c 1,0,1
EndSplineSet
EndChar
StartChar: K
Encoding: 75 75 44
Width: 591
Flags: W
LayerCount: 2
Fore
SplineSet
184 226 m 2,0,1
 184 180 184 180 188.5 95 c 128,-1,2
 193 10 193 10 193 0 c 1,3,4
 184 0 184 0 165 3 c 128,-1,5
 146 6 146 6 136 6 c 256,6,7
 126 6 126 6 107 3 c 128,-1,8
 88 0 88 0 78 0 c 1,9,10
 78 51 78 51 84.5 172.5 c 128,-1,11
 91 294 91 294 91 335 c 0,12,13
 91 447 91 447 88.5 512.5 c 128,-1,14
 86 578 86 578 78 671 c 1,15,16
 90 671 90 671 111 668.5 c 128,-1,17
 132 666 132 666 136 666 c 0,18,19
 147 666 147 666 167 668.5 c 128,-1,20
 187 671 187 671 193 671 c 1,21,-1
 184 483 l 1,22,-1
 184 359 l 1,23,24
 271 422 271 422 346.5 499 c 128,-1,25
 422 576 422 576 495 671 c 1,26,27
 512 669 512 669 527.5 669 c 128,-1,28
 543 669 543 669 560 669 c 2,29,-1
 603 671 l 1,30,31
 519 598 519 598 437 523.5 c 128,-1,32
 355 449 355 449 280 376 c 1,33,34
 335 307 335 307 378.5 258 c 128,-1,35
 422 209 422 209 480 146 c 128,-1,36
 538 83 538 83 617 0 c 1,37,-1
 538 0 l 2,38,39
 516 0 516 0 499 -1 c 128,-1,40
 482 -2 482 -2 464 -6 c 1,41,42
 440 32 440 32 412 66.5 c 128,-1,43
 384 101 384 101 344 147 c 2,44,-1
 184 330 l 1,45,-1
 184 226 l 2,0,1
EndSplineSet
EndChar
StartChar: L
Encoding: 76 76 45
Width: 453
Flags: W
LayerCount: 2
Fore
SplineSet
91 335 m 0,0,1
 91 447 91 447 88.5 512.5 c 128,-1,2
 86 578 86 578 78 671 c 1,3,4
 91 671 91 671 108 669.5 c 128,-1,5
 125 668 125 668 136 667 c 0,6,7
 146 667 146 667 168.5 669 c 128,-1,8
 191 671 191 671 193 671 c 1,9,10
 193 636 193 636 189.5 574 c 128,-1,11
 186 512 186 512 186 493 c 0,12,13
 186 416 186 416 188 239.5 c 128,-1,14
 190 63 190 63 190 53 c 1,15,-1
 290 53 l 2,16,17
 330 53 330 53 369 57 c 128,-1,18
 408 61 408 61 452 68 c 1,19,-1
 450 34 l 1,20,-1
 452 0 l 1,21,-1
 258 3 l 1,22,-1
 78 0 l 1,23,24
 78 51 78 51 84.5 172.5 c 128,-1,25
 91 294 91 294 91 335 c 0,0,1
EndSplineSet
EndChar
StartChar: M
Encoding: 77 77 46
Width: 891
Flags: W
LayerCount: 2
Fore
SplineSet
137 684 m 1,0,-1
 175 684 l 1,1,2
 210 613 210 613 238.5 556 c 128,-1,3
 267 499 267 499 297 441 c 128,-1,4
 327 383 327 383 363 314 c 1,5,-1
 451 154 l 1,6,7
 484 215 484 215 535 313.5 c 128,-1,8
 586 412 586 412 636 512 c 128,-1,9
 686 612 686 612 721 684 c 1,10,-1
 758 684 l 1,11,12
 769 570 769 570 780 468 c 128,-1,13
 791 366 791 366 806 246 c 128,-1,14
 821 126 821 126 839 0 c 1,15,16
 821 4 821 4 808 6 c 128,-1,17
 795 8 795 8 784 8 c 0,18,19
 772 8 772 8 756 5 c 128,-1,20
 740 2 740 2 726 0 c 1,21,22
 726 79 726 79 719.5 163 c 128,-1,23
 713 247 713 247 702 332 c 128,-1,24
 691 417 691 417 680 501 c 1,25,-1
 539 225 l 1,26,27
 479 110 479 110 440 0 c 1,28,-1
 428 1 l 1,29,-1
 415 0 l 1,30,31
 290 262 290 262 164 493 c 1,32,-1
 136 221 l 2,33,34
 127 129 127 129 124.5 92.5 c 128,-1,35
 122 56 122 56 122 0 c 1,36,37
 114 1 114 1 100 3 c 128,-1,38
 86 5 86 5 80 5 c 0,39,40
 68 5 68 5 59 3.5 c 128,-1,41
 50 2 50 2 40 0 c 1,42,43
 65 121 65 121 87.5 240 c 128,-1,44
 110 359 110 359 123.5 469.5 c 128,-1,45
 137 580 137 580 137 684 c 1,0,-1
EndSplineSet
EndChar
StartChar: N
Encoding: 78 78 44
Width: 728
Flags: HW
LayerCount: 2
Fore
SplineSet
81 166 m 0
 81 206.666666667 82 268 84 350 c 128
 86 432 87 493.333333333 87 534 c 2
 85 684 l 1
 120 684 l 1
 155.333333333 643.333333333 193.833333333 599.333333333 235.5 552 c 128
 277.166666667 504.666666667 311.333333333 466.166666667 338 436.5 c 128
 364.666666667 406.833333333 398.666666667 369.666666667 440 325 c 2
 591 165 l 1
 591 436 l 2
 591 474.666666667 590 513.166666667 588 551.5 c 128
 586 589.833333333 582.666666667 629.666666667 578 671 c 1
 617 668 l 1
 657 671 l 1
 654.333333333 648.333333333 651.833333333 624.333333333 649.5 599 c 128
 647.166666667 573.666666667 646 552 646 534 c 0
 646 475.333333333 645.166666667 396.5 643.5 297.5 c 128
 641.833333333 198.5 641 139 641 119 c 2
 643 -11 l 1
 612 -11 l 1
 586.666666667 20.3333333333 558.166666667 54.1666666667 526.5 90.5 c 128
 494.833333333 126.833333333 461 164.333333333 425 203 c 2
 139 506 l 1
 139 238 l 2
 139 160.666666667 143.666666667 81 153 -1 c 1
 108 2 l 1
 71 -1 l 1
 74.3333333333 37.6666666667 76.8333333333 68 78.5 90 c 128
 80.1666666667 112 81 137.333333333 81 166 c 0
EndSplineSet
Validated: 1
EndChar
StartChar: O
Encoding: 79 79 48
Width: 806
Flags: W
LayerCount: 2
Fore
SplineSet
37 335 m 0,0,1
 37 497 37 497 138.5 590.5 c 128,-1,2
 240 684 240 684 403 684 c 0,3,4
 543 684 543 684 643 614.5 c 128,-1,5
 743 545 743 545 754 471 c 128,-1,6
 765 397 765 397 767 378.5 c 128,-1,7
 769 360 769 360 769 333 c 0,8,9
 769 307 769 307 767 290 c 128,-1,10
 765 273 765 273 754 199.5 c 128,-1,11
 743 126 743 126 644 57.5 c 128,-1,12
 545 -11 545 -11 404 -11 c 0,13,14
 358 -11 358 -11 322.5 -7.5 c 128,-1,15
 287 -4 287 -4 219.5 21 c 128,-1,16
 152 46 152 46 94.5 134 c 128,-1,17
 37 222 37 222 37 335 c 0,0,1
146 337 m 0,18,19
 146 203 146 203 210 116.5 c 128,-1,20
 274 30 274 30 403 30 c 256,21,22
 532 30 532 30 595.5 117 c 128,-1,23
 659 204 659 204 659 337 c 0,24,25
 659 469 659 469 594.5 554.5 c 128,-1,26
 530 640 530 640 403 640 c 0,27,28
 310 640 310 640 251.5 595 c 128,-1,29
 193 550 193 550 163 460 c 1,30,31
 146 398 146 398 146 337 c 0,18,19
EndSplineSet
EndChar
StartChar: P
Encoding: 80 80 49
Width: 530
Flags: W
LayerCount: 2
Fore
SplineSet
92 403 m 0,0,1
 92 547 92 547 81 671 c 1,2,-1
 169 668 l 2,3,4
 197 668 197 668 244.5 670.5 c 128,-1,5
 292 673 292 673 301 673 c 0,6,7
 392 673 392 673 456 629.5 c 128,-1,8
 520 586 520 586 520 499 c 0,9,10
 520 405 520 405 444 353.5 c 128,-1,11
 368 302 368 302 268 302 c 1,12,-1
 182 304 l 1,13,14
 182 251 182 251 185.5 144.5 c 128,-1,15
 189 38 189 38 189 0 c 1,16,17
 180 0 180 0 162 3 c 128,-1,18
 144 6 144 6 134 6 c 0,19,20
 122 6 122 6 107 4 c 128,-1,21
 92 2 92 2 79 0 c 1,22,23
 79 62 79 62 85.5 207 c 128,-1,24
 92 352 92 352 92 403 c 0,0,1
415 493 m 0,25,26
 415 557 415 557 371.5 595 c 128,-1,27
 328 633 328 633 263 633 c 1,28,-1
 189 630 l 1,29,30
 186 596 186 596 184 563 c 128,-1,31
 182 530 182 530 182 496 c 2,32,-1
 182 343 l 1,33,34
 317 343 317 343 366 382 c 128,-1,35
 415 421 415 421 415 493 c 0,25,26
EndSplineSet
EndChar
StartChar: Q
Encoding: 81 81 50
Width: 806
Flags: W
LayerCount: 2
Fore
SplineSet
408 -11 m 1,0,1
 244 -11 244 -11 140.5 81 c 128,-1,2
 37 173 37 173 37 335 c 256,3,4
 37 497 37 497 138.5 590.5 c 128,-1,5
 240 684 240 684 403 684 c 0,6,7
 543 684 543 684 643 614.5 c 128,-1,8
 743 545 743 545 754 471 c 128,-1,9
 765 397 765 397 767 378.5 c 128,-1,10
 769 360 769 360 769 333 c 0,11,12
 769 309 769 309 767 292 c 128,-1,13
 765 275 765 275 756.5 220 c 128,-1,14
 748 165 748 165 691.5 104 c 128,-1,15
 635 43 635 43 539 5 c 1,16,-1
 670 -81 l 1,17,18
 694 -98 694 -98 723.5 -116 c 128,-1,19
 753 -134 753 -134 774 -144 c 1,20,21
 746 -154 746 -154 726 -164.5 c 128,-1,22
 706 -175 706 -175 685 -192 c 1,23,24
 657 -169 657 -169 631.5 -150 c 128,-1,25
 606 -131 606 -131 579 -111 c 2,26,-1
 437 -10 l 1,27,-1
 408 -11 l 1,0,1
146 337 m 0,28,29
 146 204 146 204 210 117.5 c 128,-1,30
 274 31 274 31 403 31 c 256,31,32
 532 31 532 31 595.5 118 c 128,-1,33
 659 205 659 205 659 337 c 256,34,35
 659 469 659 469 594.5 554.5 c 128,-1,36
 530 640 530 640 403 640 c 0,37,38
 310 640 310 640 251.5 595 c 128,-1,39
 193 550 193 550 163 460 c 1,40,41
 146 398 146 398 146 337 c 0,28,29
EndSplineSet
EndChar
StartChar: R
Encoding: 82 82 51
Width: 565
Flags: W
LayerCount: 2
Fore
SplineSet
188 0 m 1,0,1
 179 0 179 0 161 3 c 128,-1,2
 143 6 143 6 134 6 c 0,3,4
 122 6 122 6 107 4 c 128,-1,5
 92 2 92 2 79 0 c 1,6,7
 79 65 79 65 85.5 221 c 128,-1,8
 92 377 92 377 92 431 c 0,9,10
 92 484 92 484 89 548 c 128,-1,11
 86 612 86 612 81 671 c 1,12,-1
 149 669 l 1,13,-1
 296 673 l 1,14,15
 382 673 382 673 446 635.5 c 128,-1,16
 510 598 510 598 510 518 c 0,17,18
 510 443 510 443 457 403 c 128,-1,19
 404 363 404 363 319 341 c 1,20,21
 384 256 384 256 447 173 c 128,-1,22
 510 90 510 90 581 0 c 1,23,-1
 528 4 l 1,24,-1
 440 0 l 1,25,26
 382 92 382 92 324 173.5 c 128,-1,27
 266 255 266 255 204 328 c 1,28,-1
 181 328 l 1,29,-1
 181 222 l 2,30,31
 181 177 181 177 184.5 100 c 128,-1,32
 188 23 188 23 188 0 c 1,0,1
411 504 m 0,33,34
 411 570 411 570 363.5 601.5 c 128,-1,35
 316 633 316 633 247 633 c 1,36,-1
 186 630 l 1,37,38
 183 601 183 601 182 556 c 128,-1,39
 181 511 181 511 181 505 c 2,40,-1
 181 363 l 1,41,42
 280 363 280 363 345.5 391 c 128,-1,43
 411 419 411 419 411 504 c 0,33,34
EndSplineSet
EndChar
StartChar: S
Encoding: 83 83 52
Width: 503
Flags: W
LayerCount: 2
Fore
SplineSet
64 150 m 1,0,1
 88 95 88 95 129.5 64 c 128,-1,2
 171 33 171 33 229 33 c 0,3,4
 286 33 286 33 329.5 70.5 c 128,-1,5
 373 108 373 108 373 164 c 0,6,7
 373 242 373 242 289 288 c 1,8,9
 211 323 211 323 133 359 c 1,10,11
 49 408 49 408 49 496 c 256,12,13
 49 584 49 584 112.5 634 c 128,-1,14
 176 684 176 684 267 684 c 0,15,16
 310 684 310 684 346 674 c 128,-1,17
 382 664 382 664 430 642 c 1,18,19
 420 618 420 618 411 592 c 128,-1,20
 402 566 402 566 398 545 c 1,21,-1
 388 545 l 1,22,23
 362 646 362 646 255 646 c 0,24,25
 203 646 203 646 166.5 616 c 128,-1,26
 130 586 130 586 130 535 c 0,27,28
 130 461 130 461 215 418 c 1,29,30
 294 383 294 383 374 348 c 1,31,32
 460 298 460 298 460 206 c 0,33,34
 460 110 460 110 388 49.5 c 128,-1,35
 316 -11 316 -11 217 -11 c 0,36,37
 165 -11 165 -11 120 1.5 c 128,-1,38
 75 14 75 14 36 43 c 1,39,40
 45 75 45 75 49.5 97.5 c 128,-1,41
 54 120 54 120 54 148 c 1,42,-1
 64 150 l 1,0,1
EndSplineSet
EndChar
StartChar: T
Encoding: 84 84 50
Width: 522
Flags: W
HStem: 0 21G<203 207.667 308.333 314.667> 617 47<11.4026 211 309 508.844> 651 20G<9.76471 22.6667 502.333 511.667>
VStem: 213 95<8.21265 617>
AnchorPoint: "tails" 261 6 basechar 0
AnchorPoint: "circum" 260 742 basechar 0
AnchorPoint: "above" 260 742 basechar 0
LayerCount: 2
Fore
SplineSet
8 604 m 1xd0
 11 637 l 1
 8 671 l 1xb0
 37.3333333333 671 81.3333333333 669.833333333 140 667.5 c 0
 198.666666667 665.166666667 238.666666667 664 260 664 c 0xd0
 288.666666667 664 332.666666667 665.166666667 392 667.5 c 0
 451.333333333 669.833333333 491.666666667 671 513 671 c 1xb0
 510.333333333 661 509 649.333333333 509 636 c 0
 509 627 509 627 509 620.5 c 0
 509 616.166666667 510.333333333 609.666666667 513 601 c 1
 491 605 466.333333333 608.666666667 439 612 c 0
 411.666666667 615.333333333 386.666666667 617 364 617 c 2
 309 617 l 1
 309 604.333333333 308.333333333 582.833333333 307 552.5 c 0
 305.666666667 522.166666667 305 506.333333333 305 505 c 2
 308 159 l 2
 308 111.666666667 311.333333333 58.6666666667 318 0 c 1
 298.666666667 2 279.666666667 4 261 6 c 1
 252.333333333 6 242.833333333 5.33333333333 232.5 4 c 0
 222.166666667 2.66666666667 212.333333333 1.33333333333 203 0 c 1
 203 19.3333333333 204.666666667 51.1666666667 208 95.5 c 0
 211.333333333 139.833333333 213 170.333333333 213 187 c 2
 214 492 l 1
 211 617 l 1
 148.333333333 617 80.6666666667 612.666666667 8 604 c 1xd0
EndSplineSet
EndChar
StartChar: U
Encoding: 85 85 54
Width: 731
Flags: W
LayerCount: 2
Fore
SplineSet
131 667 m 0,0,1
 141 667 141 667 165 669 c 128,-1,2
 189 671 189 671 190 671 c 1,3,4
 184 614 184 614 181.5 579 c 128,-1,5
 179 544 179 544 179 502 c 2,6,-1
 179 329 l 2,7,8
 179 153 179 153 227.5 97 c 128,-1,9
 276 41 276 41 372 41 c 0,10,11
 472 41 472 41 529 93 c 128,-1,12
 586 145 586 145 586 241 c 2,13,-1
 586 330 l 1,14,-1
 586 472 l 2,15,16
 586 528 586 528 584 574.5 c 128,-1,17
 582 621 582 621 575 671 c 1,18,19
 586 669 586 669 596 668 c 128,-1,20
 606 667 606 667 619 667 c 0,21,22
 626 667 626 667 640 669 c 128,-1,23
 654 671 654 671 662 671 c 1,24,25
 655 614 655 614 652.5 561 c 128,-1,26
 650 508 650 508 650 432 c 2,27,-1
 650 264 l 2,28,29
 650 128 650 128 572 58.5 c 128,-1,30
 494 -11 494 -11 355 -11 c 0,31,32
 222 -11 222 -11 153 47.5 c 128,-1,33
 84 106 84 106 84 233 c 2,34,-1
 84 306 l 1,35,-1
 84 503 l 2,36,37
 84 547 84 547 79.5 595 c 128,-1,38
 75 643 75 643 73 671 c 1,39,40
 87 669 87 669 100 668 c 128,-1,41
 113 667 113 667 131 667 c 0,0,1
EndSplineSet
EndChar
StartChar: V
Encoding: 86 86 55
Width: 614
Flags: W
LayerCount: 2
Fore
SplineSet
138 344 m 2,0,-1
 54 547 l 1,1,-1
 0 671 l 1,2,-1
 60 667 l 2,3,4
 71 667 71 667 97 669 c 128,-1,5
 123 671 123 671 125 671 c 1,6,7
 135 637 135 637 148.5 597 c 128,-1,8
 162 557 162 557 179 507 c 1,9,-1
 222 395 l 1,10,-1
 327 111 l 1,11,-1
 422 362 l 2,12,13
 480 514 480 514 525 671 c 1,14,-1
 569 668 l 1,15,-1
 614 671 l 1,16,17
 539 519 539 519 463.5 337 c 128,-1,18
 388 155 388 155 339 0 c 1,19,20
 330 1 330 1 321 3 c 128,-1,21
 312 5 312 5 302 5 c 0,22,23
 288 5 288 5 277 2.5 c 128,-1,24
 266 0 266 0 264 0 c 1,25,26
 239 89 239 89 201.5 185 c 128,-1,27
 164 281 164 281 138 344 c 2,0,-1
EndSplineSet
EndChar
StartChar: W
Encoding: 87 87 56
Width: 941
Flags: W
LayerCount: 2
Fore
SplineSet
0 671 m 1,0,1
 23 669 23 669 34 668 c 128,-1,2
 45 667 45 667 55 667 c 0,3,4
 64 667 64 667 87.5 669 c 128,-1,5
 111 671 111 671 112 671 c 0,6,7
 144 540 144 540 189 394 c 2,8,-1
 274 123 l 1,9,10
 299 196 299 196 338.5 315 c 128,-1,11
 378 434 378 434 398 499.5 c 128,-1,12
 418 565 418 565 446 671 c 1,13,-1
 484 667 l 2,14,15
 493 667 493 667 504.5 668.5 c 128,-1,16
 516 670 516 670 523 671 c 1,17,18
 567 524 567 524 594 435.5 c 128,-1,19
 621 347 621 347 636 302 c 128,-1,20
 651 257 651 257 698 123 c 1,21,-1
 783 376 l 2,22,23
 807 449 807 449 823.5 518.5 c 128,-1,24
 840 588 840 588 855 671 c 1,25,26
 862 671 862 671 879.5 669 c 128,-1,27
 897 667 897 667 898 667 c 0,28,29
 909 667 909 667 922 668.5 c 128,-1,30
 935 670 935 670 941 671 c 1,31,32
 877 516 877 516 815 336.5 c 128,-1,33
 753 157 753 157 713 0 c 1,34,35
 706 1 706 1 694 3 c 128,-1,36
 682 5 682 5 675 5 c 0,37,38
 666 5 666 5 651 2.5 c 128,-1,39
 636 0 636 0 634 0 c 1,40,41
 599 133 599 133 548 278 c 1,42,-1
 462 528 l 1,43,-1
 354 207 l 2,44,45
 316 96 316 96 290 0 c 1,46,47
 282 0 282 0 267 2.5 c 128,-1,48
 252 5 252 5 248 5 c 0,49,50
 236 5 236 5 227 3.5 c 128,-1,51
 218 2 218 2 207 0 c 1,52,53
 182 103 182 103 149 213.5 c 128,-1,54
 116 324 116 324 88 409 c 128,-1,55
 60 494 60 494 0 671 c 1,0,1
EndSplineSet
EndChar
StartChar: X
Encoding: 88 88 54
Width: 532
Flags: W
HStem: 0 21G<2.33333 13.9806 88.6667 98.6667 391 405.333 513.667 527.333> 651 20G<16.6667 47 140.667 154 418.333 434 511 521>
AnchorPoint: "circum" 286 742 basechar 0
AnchorPoint: "above" 286 742 basechar 0
LayerCount: 2
Fore
SplineSet
144 206 m 1
 229 329 l 1
 153 454.333333333 81 568.333333333 13 671 c 1
 20.3333333333 671 31.3333333333 670.333333333 46 669 c 0
 60.6666666667 667.666666667 71.6666666667 667 79 667 c 0
 97 667 111 667.666666667 121 669 c 0
 131 670.333333333 138.333333333 671 143 671 c 1
 165 627.666666667 188.5 582.333333333 213.5 535 c 0
 238.5 487.666666667 261.333333333 445.666666667 282 409 c 1
 352 523 l 2
 380.666666667 570.333333333 406.666666667 619.666666667 430 671 c 1
 438 669.666666667 445.333333333 668.666666667 452 668 c 0
 458.666666667 667.333333333 466.666666667 667 476 667 c 0
 480.666666667 667 488.333333333 667.666666667 499 669 c 0
 509.666666667 670.333333333 518 671 524 671 c 1
 498 637.666666667 471.166666667 601.5 443.5 562.5 c 0
 415.833333333 523.5 394 492.666666667 378 470 c 2
 308 369 l 1
 333.333333333 324.333333333 356.333333333 284.666666667 377 250 c 0
 397.666666667 215.333333333 419.5 179.333333333 442.5 142 c 0
 465.5 104.666666667 495.333333333 57.3333333333 532 0 c 1
 522.666666667 0 510 0.833333333333 494 2.5 c 0
 478 4.16666666667 468.666666667 5 466 5 c 0
 452 5 439.5 4.33333333333 428.5 3 c 0
 417.5 1.66666666667 408.666666667 0.666666666667 402 0 c 1
 380 46.6666666667 356.166666667 94.1666666667 330.5 142.5 c 0
 304.833333333 190.833333333 279.333333333 239 254 287 c 1
 191 180 l 1
 156.333333333 122.666666667 134.5 85.8333333333 125.5 69.5 c 0
 116.5 53.1666666667 105.333333333 30 92 0 c 1
 85.3333333333 0 76.1666666667 0.833333333333 64.5 2.5 c 0
 52.8333333333 4.16666666667 46.3333333333 5 45 5 c 0
 35.6666666667 5 27 4.33333333333 19 3 c 0
 11 1.66666666667 4.66666666667 0.666666666667 0 0 c 1
 144 206 l 1
EndSplineSet
EndChar
StartChar: Y
Encoding: 89 89 55
Width: 509
Flags: HW
AnchorPoint: "circum" 281 742 basechar 0
AnchorPoint: "above" 281 742 basechar 0
LayerCount: 2
Fore
SplineSet
214 128 m 2
 215 278 l 1
 195.666666667 312.666666667 170.166666667 356.833333333 138.5 410.5 c 128
 106.833333333 464.166666667 81 507.5 61 540.5 c 128
 41 573.5 14 617 -20 671 c 1
 -11.3333333333 671 1.33333333333 670.166666667 18 668.5 c 128
 34.6666666667 666.833333333 44 666 46 666 c 0
 59.3333333333 666 71.1666666667 666.666666667 81.5 668 c 128
 91.8333333333 669.333333333 100 670.333333333 106 671 c 1
 119.333333333 639.666666667 133.833333333 608.166666667 149.5 576.5 c 128
 165.166666667 544.833333333 181.666666667 515 199 487 c 1
 281 342 l 1
 310.333333333 390 339 441.166666667 367 495.5 c 128
 395 549.833333333 423.333333333 608.333333333 452 671 c 1
 492 667 l 1
 500.666666667 667 508.333333333 667.333333333 515 668 c 128
 521.666666667 668.666666667 529 669.666666667 537 671 c 1
 486.333333333 593 440.666666667 520 400 452 c 1
 311 299 l 1
 311 173 l 2
 311 153 311.666666667 119.833333333 313 73.5 c 128
 314.333333333 27.1666666667 315 2.66666666667 315 0 c 1
 309.666666667 0.666666666667 301 1.66666666667 289 3 c 128
 277 4.33333333333 267.333333333 5 260 5 c 0
 247.333333333 5 237.333333333 4.5 230 3.5 c 128
 222.666666667 2.5 214.333333333 1.33333333333 205 0 c 1
 207 17.3333333333 209 38.5 211 63.5 c 128
 213 88.5 214 110 214 128 c 2
EndSplineSet
EndChar
StartChar: Z
Encoding: 90 90 56
Width: 596
Flags: HW
AnchorPoint: "circum" 296 742 basechar 0
AnchorPoint: "above" 296 742 basechar 0
LayerCount: 2
Fore
SplineSet
5 26 m 1
 55.6666666667 93.3333333333 107.5 162.666666667 160.5 234 c 128
 213.5 305.333333333 262 372.666666667 306 436 c 2
 430 617 l 1
 312 617 l 2
 222.666666667 617 133 612 43 602 c 1
 47 636 l 1
 43 671 l 1
 79 671 127.666666667 669.833333333 189 667.5 c 128
 250.333333333 665.166666667 290 664 308 664 c 0
 338.666666667 664 385.5 665.166666667 448.5 667.5 c 128
 511.5 669.833333333 554.333333333 671 577 671 c 1
 577 651 l 1
 533 594.333333333 483.333333333 528.5 428 453.5 c 128
 372.666666667 378.5 325.833333333 314.166666667 287.5 260.5 c 128
 249.166666667 206.833333333 201.666666667 138.666666667 145 56 c 1
 308 56 l 2
 352.666666667 56 389.666666667 57.1666666667 419 59.5 c 128
 448.333333333 61.8333333333 501 66.6666666667 577 74 c 1
 574 49 l 1
 573 39 l 1
 574 25 l 1
 577 0 l 1
 520.333333333 0 449.166666667 1 363.5 3 c 128
 277.833333333 5 234.666666667 6 234 6 c 0
 208.666666667 6 170.666666667 5 120 3 c 128
 69.3333333333 1 31 0 5 0 c 1
 5 26 l 1
EndSplineSet
EndChar
StartChar: bracketleft
Encoding: 91 91 60
Width: 323
Flags: W
LayerCount: 2
Fore
SplineSet
91 2 m 2,0,-1
 92 278 l 1,1,-1
 91 554 l 1,2,-1
 84 671 l 1,3,-1
 170 669 l 1,4,-1
 263 671 l 1,5,-1
 262 654 l 1,6,-1
 263 628 l 1,7,8
 227 634 227 634 190 634 c 1,9,-1
 158 633 l 1,10,-1
 156 279 l 1,11,-1
 158 -75 l 1,12,-1
 192 -76 l 2,13,14
 223 -76 223 -76 238.5 -74 c 128,-1,15
 254 -72 254 -72 263 -71 c 1,16,-1
 262 -89 l 1,17,-1
 263 -114 l 1,18,-1
 172 -111 l 1,19,-1
 84 -114 l 1,20,21
 84 -100 84 -100 87.5 -59 c 128,-1,22
 91 -18 91 -18 91 2 c 2,0,-1
EndSplineSet
EndChar
StartChar: backslash
Encoding: 92 92 58
Width: 276
Flags: HW
LayerCount: 2
Fore
SplineSet
-26 738 m 1
 20 738 l 1
 290 -91 l 1
 245 -91 l 1
 -26 738 l 1
EndSplineSet
Validated: 1
EndChar
StartChar: bracketright
Encoding: 93 93 62
Width: 323
Flags: W
LayerCount: 2
Fore
SplineSet
151 -111 m 1,0,-1
 60 -114 l 1,1,-1
 61 -93 l 1,2,-1
 60 -71 l 1,3,4
 92 -75 92 -75 132 -75 c 2,5,-1
 165 -75 l 1,6,-1
 167 278 l 1,7,-1
 165 633 l 1,8,-1
 132 634 l 2,9,10
 116 634 116 634 96.5 632 c 128,-1,11
 77 630 77 630 60 628 c 1,12,-1
 61 650 l 1,13,-1
 60 671 l 1,14,-1
 147 669 l 1,15,-1
 239 671 l 1,16,17
 239 657 239 657 235.5 615.5 c 128,-1,18
 232 574 232 574 232 554 c 2,19,-1
 231 329 l 1,20,-1
 232 2 l 1,21,-1
 239 -114 l 1,22,-1
 151 -111 l 1,0,-1
EndSplineSet
EndChar
StartChar: asciicircum
Encoding: 94 94 60
Width: 290
Flags: HW
LayerCount: 2
Fore
SplineSet
108 704 m 1
 172 704 l 1
 281 535 l 1
 248 535 l 1
 141 630 l 1
 35 535 l 1
 0 535 l 1
 108 704 l 1
EndSplineSet
Validated: 1
EndChar
StartChar: underscore
Encoding: 95 95 61
Width: 492
Flags: HW
LayerCount: 2
Fore
SplineSet
492 -232 m 1
 0 -232 l 1
 0 -184 l 1
 492 -184 l 1
 492 -232 l 1
EndSplineSet
Validated: 1
EndChar
StartChar: grave
Encoding: 96 96 65
Width: 269
Flags: W
LayerCount: 2
Fore
SplineSet
161 475 m 1,0,1
 155 448 155 448 141 428.5 c 128,-1,2
 127 409 127 409 102 409 c 0,3,4
 63 409 63 409 63 442 c 0,5,6
 63 458 63 458 70.5 475.5 c 128,-1,7
 78 493 78 493 89 509 c 1,8,-1
 196 684 l 1,9,-1
 219 677 l 1,10,-1
 161 475 l 1,0,1
EndSplineSet
EndChar
StartChar: a
Encoding: 97 97 66
Width: 466
Flags: W
LayerCount: 2
Fore
SplineSet
169 -11 m 0,0,1
 112 -11 112 -11 72 24 c 128,-1,2
 32 59 32 59 32 117 c 0,3,4
 32 197 32 197 76.5 218 c 128,-1,5
 121 239 121 239 218 262 c 128,-1,6
 315 285 315 285 320 323 c 1,7,8
 320 374 320 374 289.5 408.5 c 128,-1,9
 259 443 259 443 207 443 c 0,10,11
 167 443 167 443 137.5 423.5 c 128,-1,12
 108 404 108 404 90 366 c 1,13,-1
 69 374 l 1,14,-1
 75 426 l 1,15,16
 107 455 107 455 147.5 469.5 c 128,-1,17
 188 484 188 484 233 484 c 0,18,19
 320 484 320 484 360 449 c 128,-1,20
 400 414 400 414 400 329 c 2,21,-1
 400 95 l 2,22,23
 400 62 400 62 408.5 50.5 c 128,-1,24
 417 39 417 39 444 39 c 2,25,-1
 471 40 l 1,26,-1
 471 19 l 1,27,28
 450 11 450 11 428.5 3 c 128,-1,29
 407 -5 407 -5 387 -5 c 0,30,31
 355 -5 355 -5 338.5 11.5 c 128,-1,32
 322 28 322 28 315 60 c 1,33,34
 280 25 280 25 246.5 7 c 128,-1,35
 213 -11 213 -11 169 -11 c 0,0,1
126 133 m 0,36,37
 126 97 126 97 147.5 71 c 128,-1,38
 169 45 169 45 204 45 c 0,39,40
 248 45 248 45 281.5 76.5 c 128,-1,41
 315 108 315 108 315 152 c 2,42,-1
 315 248 l 1,43,44
 220 231 220 231 173 212 c 128,-1,45
 126 193 126 193 126 133 c 0,36,37
EndSplineSet
EndChar
StartChar: b
Encoding: 98 98 64
Width: 546
Flags: W
HStem: -11 45<207.8 344.458> -1 21G<56 92> 436 48<214.466 343.873> 718 20G<60 68.3333 148.667 156.667>
VStem: 63 88<400 732.773> 65 80<117.069 355.449> 406 100<113.993 352.905>
AnchorPoint: "circum" 109 798 basechar 0
AnchorPoint: "above" 109 798 basechar 0
LayerCount: 2
Fore
SplineSet
109 733 m 0x7a
 123 733 139.333333333 734.666666667 158 738 c 1
 155.333333333 710 153.5 684 152.5 660 c 0
 151.5 636 151 605.333333333 151 568 c 2
 151 544 l 1
 151 400 l 1
 186.333333333 456 236.666666667 484 302 484 c 256
 367.333333333 484 417.666666667 459.333333333 453 410 c 0
 488.333333333 360.666666667 506 301.333333333 506 232 c 0
 506 160.666666667 488.666666667 102.333333333 454 57 c 0
 419.333333333 11.6666666667 367.333333333 -11 298 -11 c 0xba
 267.333333333 -11 239 -5.5 213 5.5 c 0
 187 16.5 162.333333333 33.3333333333 139 56 c 1
 130.333333333 49.3333333333 122.333333333 42.3333333333 115 35 c 0
 107.666666667 27.6666666667 98 15.6666666667 86 -1 c 1
 56 -1 l 1
 58 20.3333333333 60 46.1666666667 62 76.5 c 0
 64 106.833333333 65 132.666666667 65 154 c 2x76
 66 393 l 2
 66 431 65 488.333333333 63 565 c 0
 61 641.666666667 60 699.333333333 60 738 c 1
 76.6666666667 734.666666667 93 733 109 733 c 0x7a
276 436 m 0
 228.666666667 436 195 415.666666667 175 375 c 0
 155 334.333333333 145 287 145 233 c 0xb6
 145 182.333333333 155.333333333 136.5 176 95.5 c 0
 196.666666667 54.5 230 34 276 34 c 0
 322.666666667 34 356 54.3333333333 376 95 c 0
 396 135.666666667 406 182.333333333 406 235 c 0
 406 287 396 333.5 376 374.5 c 0
 356 415.5 322.666666667 436 276 436 c 0
EndSplineSet
EndChar
StartChar: c
Encoding: 99 99 68
Width: 464
Flags: W
LayerCount: 2
Fore
SplineSet
437 86 m 1,0,-1
 428 30 l 1,1,2
 395 5 395 5 355.5 -3 c 128,-1,3
 316 -11 316 -11 263 -11 c 0,4,5
 164 -11 164 -11 95 57 c 128,-1,6
 26 125 26 125 26 225 c 0,7,8
 26 346 26 346 97 415 c 128,-1,9
 168 484 168 484 288 484 c 0,10,11
 331 484 331 484 369.5 474.5 c 128,-1,12
 408 465 408 465 442 444 c 1,13,14
 430 406 430 406 422 355 c 1,15,-1
 411 355 l 1,16,17
 396 399 396 399 367.5 422.5 c 128,-1,18
 339 446 339 446 293 446 c 0,19,20
 212 446 212 446 169.5 383.5 c 128,-1,21
 127 321 127 321 127 236 c 256,22,23
 127 151 127 151 171.5 90.5 c 128,-1,24
 216 30 216 30 299 30 c 0,25,26
 375 30 375 30 428 88 c 1,27,-1
 437 86 l 1,0,-1
EndSplineSet
EndChar
StartChar: d
Encoding: 100 100 69
Width: 546
Flags: W
LayerCount: 2
Fore
SplineSet
481 549 m 1,0,-1
 484 99 l 1,1,-1
 487 -1 l 1,2,3
 471 1 471 1 460 2.5 c 128,-1,4
 449 4 449 4 440 4 c 0,5,6
 430 4 430 4 413.5 1.5 c 128,-1,7
 397 -1 397 -1 394 -1 c 1,8,-1
 400 86 l 1,9,10
 348 -11 348 -11 242 -11 c 0,11,12
 144 -11 144 -11 92 62 c 128,-1,13
 40 135 40 135 40 238 c 0,14,15
 40 337 40 337 92 410.5 c 128,-1,16
 144 484 144 484 240 484 c 0,17,18
 290 484 290 484 330 463.5 c 128,-1,19
 370 443 370 443 397 400 c 1,20,-1
 397 544 l 1,21,-1
 397 568 l 1,22,-1
 397 589 l 2,23,24
 397 668 397 668 390 738 c 1,25,26
 415 733 415 733 439 733 c 0,27,28
 453 733 453 733 461 734 c 128,-1,29
 469 735 469 735 487 738 c 1,30,-1
 481 549 l 1,0,-1
270 41 m 0,31,32
 341 41 341 41 371 100.5 c 128,-1,33
 401 160 401 160 401 239 c 0,34,35
 401 315 401 315 370 376 c 128,-1,36
 339 437 339 437 270 437 c 256,37,38
 201 437 201 437 170.5 376.5 c 128,-1,39
 140 316 140 316 140 239 c 256,40,41
 140 162 140 162 170 101.5 c 128,-1,42
 200 41 200 41 270 41 c 0,31,32
EndSplineSet
EndChar
StartChar: e
Encoding: 101 101 67
Width: 490
Flags: HW
LayerCount: 2
Fore
SplineSet
293 30 m 0
 349 30 396 51 434 93 c 1
 446 90 l 1
 444 80 442.333333333 70.5 441 61.5 c 128
 439.666666667 52.5 439 42.6666666667 439 32 c 1
 416.333333333 17.3333333333 389.666666667 6.5 359 -0.5 c 128
 328.333333333 -7.5 297.666666667 -11 267 -11 c 0
 195 -11 137.5 10.1666666667 94.5 52.5 c 128
 51.5 94.8333333333 30 152 30 224 c 0
 30 293.333333333 50.8333333333 354 92.5 406 c 128
 134.166666667 458 189 484 257 484 c 0
 317.666666667 484 367.5 464.833333333 406.5 426.5 c 128
 445.5 388.166666667 465 338.333333333 465 277 c 1
 464 238 l 1
 226 241 l 1
 129 239 l 1
 129 181 142.5 131.666666667 169.5 91 c 128
 196.5 50.3333333333 237.666666667 30 293 30 c 0
369 282 m 1
 370 314 l 1
 370 349.333333333 359.833333333 380 339.5 406 c 128
 319.166666667 432 292 445 258 445 c 0
 216 445 185.833333333 429.5 167.5 398.5 c 128
 149.166666667 367.5 137 328 131 280 c 1
 369 282 l 1
EndSplineSet
Validated: 1
EndChar
StartChar: f
Encoding: 102 102 71
Width: 286
Flags: W
LayerCount: 2
Fore
SplineSet
92 234 m 2,0,-1
 92 430 l 1,1,2
 67 430 67 430 48 429 c 128,-1,3
 29 428 29 428 9 424 c 1,4,-1
 11 451 l 1,5,-1
 9 471 l 1,6,7
 28 468 28 468 58 467 c 128,-1,8
 88 466 88 466 92 466 c 1,9,10
 92 560 92 560 139 649 c 128,-1,11
 186 738 186 738 273 738 c 0,12,13
 289 738 289 738 295.5 736 c 128,-1,14
 302 734 302 734 312 731 c 1,15,-1
 300 645 l 1,16,17
 285 652 285 652 268 656.5 c 128,-1,18
 251 661 251 661 235 661 c 0,19,20
 201 661 201 661 182.5 638.5 c 128,-1,21
 164 616 164 616 164 580 c 0,22,23
 164 548 164 548 170 513.5 c 128,-1,24
 176 479 176 479 178 466 c 1,25,26
 200 466 200 466 238.5 468.5 c 128,-1,27
 277 471 277 471 286 471 c 1,28,29
 284 466 284 466 282.5 462.5 c 128,-1,30
 281 459 281 459 281 456 c 2,31,-1
 280 448 l 1,32,-1
 281 440 l 2,33,34
 281 439 281 439 286 424 c 1,35,36
 258 428 258 428 233.5 429 c 128,-1,37
 209 430 209 430 178 430 c 1,38,-1
 178 264 l 2,39,40
 178 220 178 220 181 132 c 128,-1,41
 184 44 184 44 184 0 c 1,42,43
 173 0 173 0 154.5 2.5 c 128,-1,44
 136 5 136 5 133 5 c 0,45,46
 117 5 117 5 104.5 3 c 128,-1,47
 92 1 92 1 84 0 c 1,48,49
 84 38 84 38 88 116 c 128,-1,50
 92 194 92 194 92 234 c 2,0,-1
EndSplineSet
EndChar
StartChar: g
Encoding: 103 103 69
Width: 495
Flags: HW
LayerCount: 2
Fore
SplineSet
58 89 m 256
 58 111 65.6666666667 129.666666667 81 145 c 128
 96.3333333333 160.333333333 115.666666667 172.666666667 139 182 c 1
 139 189 l 1
 109 196.333333333 86 212.333333333 70 237 c 128
 54 261.666666667 46 290 46 322 c 0
 46 371.333333333 64.5 410.666666667 101.5 440 c 128
 138.5 469.333333333 182.333333333 484 233 484 c 0
 249 484 272.5 481.5 303.5 476.5 c 128
 334.5 471.5 353.333333333 468.666666667 360 468 c 1
 484 471 l 1
 484 419 l 1
 466.666666667 421.666666667 449.333333333 424.166666667 432 426.5 c 128
 414.666666667 428.833333333 399.666666667 430 387 430 c 1
 420.333333333 406.666666667 437 373.333333333 437 330 c 0
 437 281.333333333 417.833333333 242 379.5 212 c 128
 341.166666667 182 296.666666667 167 246 167 c 0
 235.333333333 167 223.166666667 167.833333333 209.5 169.5 c 128
 195.833333333 171.166666667 187.333333333 172 184 172 c 0
 170.666666667 172 159.166666667 167.5 149.5 158.5 c 128
 139.833333333 149.5 135 138.333333333 135 125 c 0
 135 107 143 94.1666666667 159 86.5 c 128
 175 78.8333333333 193 75 213 75 c 2
 308 75 l 2
 359.333333333 75 401.5 63.6666666667 434.5 41 c 128
 467.5 18.3333333333 484 -17.6666666667 484 -67 c 0
 484 -131 457.166666667 -180.5 403.5 -215.5 c 128
 349.833333333 -250.5 289.666666667 -268 223 -268 c 0
 170.333333333 -268 123.833333333 -257.333333333 83.5 -236 c 128
 43.1666666667 -214.666666667 23 -180 23 -132 c 0
 23 -97.3333333333 33.6666666667 -68.3333333333 55 -45 c 128
 76.3333333333 -21.6666666667 104.333333333 -4.66666666667 139 6 c 1
 115 14 95.5 24.3333333333 80.5 37 c 128
 65.5 49.6666666667 58 67 58 89 c 256
239 200 m 0
 272.333333333 200 298.166666667 213 316.5 239 c 128
 334.833333333 265 344 295 344 329 c 0
 344 361.666666667 335.166666667 390 317.5 414 c 128
 299.833333333 438 275 450 243 450 c 256
 211 450 185.666666667 436.833333333 167 410.5 c 128
 148.333333333 384.166666667 139 354.666666667 139 322 c 256
 139 289.333333333 147.666666667 260.833333333 165 236.5 c 128
 182.333333333 212.166666667 207 200 239 200 c 0
243 -228 m 0
 284.333333333 -228 321.333333333 -217 354 -195 c 128
 386.666666667 -173 403 -142 403 -102 c 0
 403 -64 388.833333333 -37.1666666667 360.5 -21.5 c 128
 332.166666667 -5.83333333333 297 2 255 2 c 0
 211.666666667 2 174.666666667 -7.5 144 -26.5 c 128
 113.333333333 -45.5 98 -75.6666666667 98 -117 c 0
 98 -153.666666667 112.333333333 -181.333333333 141 -200 c 128
 169.666666667 -218.666666667 203.666666667 -228 243 -228 c 0
EndSplineSet
Validated: 1
EndChar
StartChar: h
Encoding: 104 104 73
Width: 546
Flags: W
LayerCount: 2
Fore
SplineSet
74 98 m 1,0,-1
 75 619 l 2,1,2
 75 644 75 644 73.5 673 c 128,-1,3
 72 702 72 702 68 738 c 1,4,5
 92 734 92 734 99 733.5 c 128,-1,6
 106 733 106 733 115 733 c 0,7,8
 137 733 137 733 165 738 c 1,9,10
 163 721 163 721 162 689.5 c 128,-1,11
 161 658 161 658 161 640 c 2,12,-1
 161 625 l 1,13,-1
 161 391 l 1,14,15
 192 434 192 434 234 459 c 128,-1,16
 276 484 276 484 326 484 c 0,17,18
 404 484 404 484 440 437 c 128,-1,19
 476 390 476 390 476 309 c 2,20,-1
 476 215 l 1,21,-1
 477 98 l 1,22,-1
 480 0 l 1,23,24
 468 1 468 1 457 2.5 c 128,-1,25
 446 4 446 4 431 4 c 0,26,27
 419 4 419 4 404.5 2.5 c 128,-1,28
 390 1 390 1 382 0 c 1,29,30
 382 49 382 49 386 146 c 128,-1,31
 390 243 390 243 390 292 c 0,32,33
 390 347 390 347 364 384.5 c 128,-1,34
 338 422 338 422 285 422 c 0,35,36
 211 422 211 422 185.5 366 c 128,-1,37
 160 310 160 310 160 226 c 0,38,39
 160 176 160 176 162.5 96 c 128,-1,40
 165 16 165 16 165 0 c 1,41,42
 154 0 154 0 137 2.5 c 128,-1,43
 120 5 120 5 118 5 c 0,44,45
 101 5 101 5 90.5 3.5 c 128,-1,46
 80 2 80 2 68 0 c 1,47,-1
 74 98 l 1,0,-1
EndSplineSet
EndChar
StartChar: i
Encoding: 105 105 74
Width: 246
Flags: W
LayerCount: 2
Fore
SplineSet
74 104 m 1,0,-1
 75 375 l 1,1,-1
 69 471 l 1,2,3
 96 466 96 466 119 466 c 0,4,5
 134 466 134 466 143 467 c 128,-1,6
 152 468 152 468 168 471 c 1,7,8
 165 444 165 444 163 417.5 c 128,-1,9
 161 391 161 391 161 364 c 0,10,11
 161 301 161 301 164.5 173.5 c 128,-1,12
 168 46 168 46 168 0 c 1,13,14
 156 1 156 1 145 2.5 c 128,-1,15
 134 4 134 4 119 4 c 0,16,17
 98 4 98 4 86.5 2 c 128,-1,18
 75 0 75 0 69 0 c 1,19,-1
 74 104 l 1,0,-1
123 693 m 256,20,21
 148 693 148 693 163.5 676.5 c 128,-1,22
 179 660 179 660 179 634 c 0,23,24
 179 611 179 611 163 598 c 128,-1,25
 147 585 147 585 123 585 c 0,26,27
 100 585 100 585 83.5 599.5 c 128,-1,28
 67 614 67 614 67 637 c 0,29,30
 67 662 67 662 82.5 677.5 c 128,-1,31
 98 693 98 693 123 693 c 256,20,21
EndSplineSet
EndChar
StartChar: j
Encoding: 106 106 72
Width: 246
Flags: HW
LayerCount: 2
Fore
SplineSet
81 282 m 2
 81 307.333333333 79.5 343.666666667 76.5 391 c 128
 73.5 438.333333333 72 465 72 471 c 1
 89.3333333333 467.666666667 100.166666667 466 104.5 466 c 128
 111 466 111 466 121 466 c 0
 131.666666667 466 140 466.333333333 146 467 c 128
 152 467.666666667 161.333333333 469 174 471 c 1
 174 443 173.166666667 407.833333333 171.5 365.5 c 128
 169.833333333 323.166666667 169 298.666666667 169 292 c 2
 169 -10 l 1
 168 -79 l 1
 168 -139 148.833333333 -185.5 110.5 -218.5 c 128
 72.1666666667 -251.5 22 -268 -40 -268 c 1
 -40 -240 l 1
 7.33333333333 -235.333333333 39.1666666667 -219.666666667 55.5 -193 c 128
 71.8333333333 -166.333333333 80 -127 80 -75 c 1
 81 -19 l 1
 81 282 l 2
123 693 m 256
 139.666666667 693 153.166666667 687.5 163.5 676.5 c 128
 173.833333333 665.5 179 651.333333333 179 634 c 0
 179 618.666666667 173.666666667 606.666666667 163 598 c 128
 152.333333333 589.333333333 139 585 123 585 c 0
 107.666666667 585 94.5 589.833333333 83.5 599.5 c 128
 72.5 609.166666667 67 621.666666667 67 637 c 0
 67 653.666666667 72.1666666667 667.166666667 82.5 677.5 c 128
 92.8333333333 687.833333333 106.333333333 693 123 693 c 256
EndSplineSet
Validated: 1
EndChar
StartChar: k
Encoding: 107 107 76
Width: 492
Flags: W
LayerCount: 2
Fore
SplineSet
75 473 m 0,0,1
 75 534 75 534 72.5 629 c 128,-1,2
 70 724 70 724 70 738 c 1,3,4
 97 733 97 733 119 733 c 0,5,6
 142 733 142 733 167 738 c 1,7,8
 167 693 167 693 164 594 c 128,-1,9
 161 495 161 495 161 448 c 2,10,-1
 161 272 l 1,11,-1
 177 272 l 1,12,13
 282 365 282 365 366 471 c 1,14,15
 388 466 388 466 406 466 c 0,16,17
 425 466 425 466 444 466 c 1,18,19
 460 469 460 469 467 470 c 1,20,-1
 252 287 l 1,21,-1
 395 119 l 1,22,23
 416 92 416 92 438 67.5 c 128,-1,24
 460 43 460 43 488 14 c 1,25,-1
 488 0 l 1,26,27
 475 0 475 0 452.5 2.5 c 128,-1,28
 430 5 430 5 426 5 c 0,29,30
 409 5 409 5 392 2.5 c 128,-1,31
 375 0 375 0 368 0 c 1,32,33
 341 39 341 39 315.5 73 c 128,-1,34
 290 107 290 107 260 142 c 2,35,-1
 194 222 l 1,36,-1
 182 233 l 1,37,-1
 161 235 l 1,38,39
 161 196 161 196 164 118 c 128,-1,40
 167 40 167 40 167 0 c 1,41,42
 156 2 156 2 145 3 c 128,-1,43
 134 4 134 4 119 4 c 0,44,45
 106 4 106 4 92 2.5 c 128,-1,46
 78 1 78 1 70 0 c 1,47,48
 70 109 70 109 72.5 278 c 128,-1,49
 75 447 75 447 75 473 c 0,0,1
EndSplineSet
EndChar
StartChar: l
Encoding: 108 108 74
Width: 246
Flags: W
HStem: 0 21G<73.9412 75.6667 168 171> 718 20G<73 82 163.667 170.333>
VStem: 78 87<11.4286 732.845>
AnchorPoint: "above" 123 798 basechar 0
AnchorPoint: "circum" 123 798 basechar 0
LayerCount: 2
Fore
SplineSet
77 85 m 1
 78 635 l 2
 78 651 77.1666666667 671.166666667 75.5 695.5 c 0
 73.8333333333 719.833333333 73 734 73 738 c 1
 91 734.666666667 107.666666667 733 123 733 c 0
 139 733 155.333333333 734.666666667 172 738 c 1
 168.666666667 701.333333333 166.5 664.833333333 165.5 628.5 c 0
 164.5 592.166666667 164 547 164 493 c 2
 165 369 l 1
 168 80 l 1
 172 0 l 1
 164 0.666666666667 156.333333333 1.5 149 2.5 c 0
 141.666666667 3.5 133 4 123 4 c 0
 115 4 106 3.5 96 2.5 c 0
 86 1.5 78.3333333333 0.666666666667 73 0 c 1
 77 85 l 1
EndSplineSet
EndChar
StartChar: m
Encoding: 109 109 78
Width: 840
Flags: W
LayerCount: 2
Fore
SplineSet
72 112 m 1,0,-1
 73 356 l 2,1,2
 73 381 73 381 71.5 409 c 128,-1,3
 70 437 70 437 66 471 c 1,4,5
 89 466 89 466 112 466 c 1,6,-1
 160 471 l 1,7,-1
 157 387 l 1,8,9
 190 435 190 435 230 459 c 128,-1,10
 270 483 270 483 325 483 c 0,11,12
 419 483 419 483 454 393 c 1,13,14
 488 436 488 436 528.5 460 c 128,-1,15
 569 484 569 484 620 484 c 0,16,17
 698 484 698 484 734 436.5 c 128,-1,18
 770 389 770 389 770 309 c 2,19,-1
 770 215 l 1,20,-1
 770 98 l 1,21,-1
 774 0 l 1,22,23
 766 0 766 0 748 2.5 c 128,-1,24
 730 5 730 5 725 5 c 0,25,26
 715 5 715 5 697.5 2.5 c 128,-1,27
 680 0 680 0 676 0 c 1,28,29
 676 49 676 49 680 146 c 128,-1,30
 684 243 684 243 684 292 c 0,31,32
 684 350 684 350 661.5 386 c 128,-1,33
 639 422 639 422 584 422 c 0,34,35
 537 422 537 422 504 388.5 c 128,-1,36
 471 355 471 355 467.5 325 c 128,-1,37
 464 295 464 295 463 270.5 c 128,-1,38
 462 246 462 246 462 235 c 2,39,-1
 462 226 l 2,40,41
 462 186 462 186 464 95.5 c 128,-1,42
 466 5 466 5 466 0 c 1,43,44
 448 2 448 2 438 3 c 128,-1,45
 428 4 428 4 419 4 c 0,46,47
 411 4 411 4 391.5 2 c 128,-1,48
 372 0 372 0 371 0 c 1,49,50
 371 40 371 40 374.5 121 c 128,-1,51
 378 202 378 202 378 231 c 2,52,-1
 377 292 l 2,53,54
 377 347 377 347 353 384.5 c 128,-1,55
 329 422 329 422 276 422 c 0,56,57
 227 422 227 422 197 389.5 c 128,-1,58
 167 357 167 357 161.5 314 c 128,-1,59
 156 271 156 271 156 226 c 0,60,61
 156 176 156 176 158.5 96 c 128,-1,62
 161 16 161 16 161 0 c 1,63,64
 150 0 150 0 132.5 2.5 c 128,-1,65
 115 5 115 5 112 5 c 0,66,67
 97 5 97 5 85 3 c 128,-1,68
 73 1 73 1 66 0 c 1,69,-1
 72 112 l 1,0,-1
EndSplineSet
EndChar
StartChar: n
Encoding: 110 110 76
Width: 543
Flags: HW
LayerCount: 2
Fore
SplineSet
72 112 m 1
 73 357 l 2
 73 373.666666667 72.5 391.333333333 71.5 410 c 128
 70.5 428.666666667 68.6666666667 449.333333333 66 472 c 1
 81.3333333333 468.666666667 96.6666666667 467 112 467 c 1
 160 472 l 1
 157 388 l 1
 177.666666667 417.333333333 202.166666667 440.666666667 230.5 458 c 128
 258.833333333 475.333333333 290.666666667 484 326 484 c 0
 363.333333333 484 397.166666667 472.5 427.5 449.5 c 128
 457.833333333 426.5 473 397 473 361 c 2
 474 215 l 1
 474 98 l 1
 478 0 l 1
 470 0.666666666667 462.333333333 1.5 455 2.5 c 128
 447.666666667 3.5 439 4 429 4 c 0
 421 4 412.166666667 3.5 402.5 2.5 c 128
 392.833333333 1.5 385.333333333 0.666666666667 380 0 c 1
 380 38.6666666667 381.166666667 92.1666666667 383.5 160.5 c 128
 385.833333333 228.833333333 387 273 387 293 c 0
 387 331 378.833333333 362.166666667 362.5 386.5 c 128
 346.166666667 410.833333333 319.333333333 423 282 423 c 0
 233.333333333 423 200.5 404.166666667 183.5 366.5 c 128
 166.5 328.833333333 158 282 158 226 c 0
 158 199.333333333 158.666666667 155.833333333 160 95.5 c 128
 161.333333333 35.1666666667 162 3.33333333333 162 0 c 1
 155.333333333 0 146.166666667 0.833333333333 134.5 2.5 c 128
 122.833333333 4.16666666667 116 5 114 5 c 0
 107.333333333 5 98.1666666667 4.16666666667 86.5 2.5 c 128
 74.8333333333 0.833333333333 68 0 66 0 c 1
 72 112 l 1
EndSplineSet
Validated: 1
EndChar
StartChar: o
Encoding: 111 111 77
Width: 542
Flags: HW
LayerCount: 2
Fore
SplineSet
268 -11 m 0
 196.666666667 -11 139.166666667 11.5 95.5 56.5 c 128
 51.8333333333 101.5 30 160 30 232 c 0
 30 305.333333333 52.1666666667 365.666666667 96.5 413 c 128
 140.833333333 460.333333333 199.666666667 484 273 484 c 0
 345 484 402.833333333 460.666666667 446.5 414 c 128
 490.166666667 367.333333333 512 307.666666667 512 235 c 256
 512 162.333333333 489.833333333 103.166666667 445.5 57.5 c 128
 401.166666667 11.8333333333 342 -11 268 -11 c 0
272 446 m 0
 222 446 185.833333333 424.666666667 163.5 382 c 128
 141.166666667 339.333333333 130 290.666666667 130 236 c 0
 130 182.666666667 141.333333333 134.166666667 164 90.5 c 128
 186.666666667 46.8333333333 222.333333333 25 271 25 c 0
 320.333333333 25 356 46.1666666667 378 88.5 c 128
 400 130.833333333 411 179.666666667 411 235 c 0
 411 289.666666667 400.166666667 338.5 378.5 381.5 c 128
 356.833333333 424.5 321.333333333 446 272 446 c 0
EndSplineSet
Validated: 1
EndChar
StartChar: p
Encoding: 112 112 81
Width: 546
Flags: W
LayerCount: 2
Fore
SplineSet
66 -77 m 0,0,1
 66 34 66 34 65 146 c 128,-1,2
 64 258 64 258 63 370 c 1,3,-1
 60 472 l 1,4,5
 69 470 69 470 79.5 468.5 c 128,-1,6
 90 467 90 467 106 467 c 0,7,8
 120 467 120 467 128 468 c 128,-1,9
 136 469 136 469 154 472 c 1,10,11
 146 426 146 426 146 385 c 1,12,13
 178 434 178 434 215 459 c 128,-1,14
 252 484 252 484 307 484 c 0,15,16
 403 484 403 484 454.5 409 c 128,-1,17
 506 334 506 334 506 232 c 0,18,19
 506 132 506 132 453.5 60.5 c 128,-1,20
 401 -11 401 -11 305 -11 c 0,21,22
 207 -11 207 -11 151 71 c 1,23,-1
 151 -73 l 2,24,25
 151 -107 151 -107 154.5 -176 c 128,-1,26
 158 -245 158 -245 158 -269 c 1,27,28
 145 -267 145 -267 134 -266 c 128,-1,29
 123 -265 123 -265 109 -265 c 0,30,31
 100 -265 100 -265 94.5 -265 c 128,-1,32
 89 -265 89 -265 60 -269 c 1,33,34
 60 -237 60 -237 63 -173 c 128,-1,35
 66 -109 66 -109 66 -77 c 0,0,1
277 429 m 0,36,37
 208 429 208 429 176.5 370.5 c 128,-1,38
 145 312 145 312 145 236 c 0,39,40
 145 158 145 158 175.5 96 c 128,-1,41
 206 34 206 34 276 34 c 0,42,43
 345 34 345 34 375.5 94.5 c 128,-1,44
 406 155 406 155 406 232 c 0,45,46
 406 305 406 305 374.5 367 c 128,-1,47
 343 429 343 429 277 429 c 0,36,37
EndSplineSet
EndChar
StartChar: q
Encoding: 113 113 79
Width: 546
Flags: W
HStem: -269 21G<390.667 395.667 482 485.375> -11 45<201.48 333.505> 429 55<199.276 325.821> 452 20G<395 400.333 477.667 485.625>
VStem: 39 100<116.641 348.798> 396 84<-264.816 71 103.82 359.395 385 466.504>
AnchorPoint: "above" 256 532 basechar 0
AnchorPoint: "circum" 256 532 basechar 0
LayerCount: 2
Fore
SplineSet
438 -265 m 0xdc
 430 -265 423.166666667 -265.166666667 417.5 -265.5 c 0
 411.833333333 -265.833333333 402.333333333 -267 389 -269 c 1
 392.333333333 -239.666666667 394.333333333 -201.333333333 395 -154 c 0
 395.666666667 -106.666666667 396 -79.6666666667 396 -73 c 2
 396 71 l 1
 360 16.3333333333 309.333333333 -11 244 -11 c 0
 180.666666667 -11 130.666666667 12.5 94 59.5 c 0
 57.3333333333 106.5 39 162.666666667 39 228 c 0
 39 295.333333333 56.1666666667 354.833333333 90.5 406.5 c 0
 124.833333333 458.166666667 174.333333333 484 239 484 c 0xec
 274.333333333 484 305.5 475.5 332.5 458.5 c 0
 359.5 441.5 381.666666667 417 399 385 c 1
 399 413.666666667 397 442.666666667 393 472 c 1
 407.666666667 469.333333333 417.5 467.833333333 422.5 467.5 c 0
 427.5 467.166666667 433.333333333 467 440 467 c 0
 454 467 469.333333333 468.666666667 486 472 c 1
 483 312 l 1
 483 247.333333333 482.666666667 182.5 482 117.5 c 0
 481.333333333 52.5 480.666666667 -12.3333333333 480 -77 c 1
 486 -269 l 1
 478 -267.666666667 470.333333333 -266.666666667 463 -266 c 0
 455.666666667 -265.333333333 447.333333333 -265 438 -265 c 0xdc
269 34 m 0
 317 34 351 54.6666666667 371 96 c 0
 391 137.333333333 401 184.666666667 401 238 c 0
 401 287.333333333 390.166666667 331.5 368.5 370.5 c 0
 346.833333333 409.5 313.333333333 429 268 429 c 0
 222 429 189 409 169 369 c 0
 149 329 139 283.333333333 139 232 c 0
 139 182 149.333333333 136.5 170 95.5 c 0
 190.666666667 54.5 223.666666667 34 269 34 c 0
EndSplineSet
EndChar
StartChar: r
Encoding: 114 114 80
Width: 351
Flags: HW
LayerCount: 2
Fore
SplineSet
72 87 m 1
 73 288 l 1
 73 312 l 2
 73 367.333333333 70.6666666667 420.333333333 66 471 c 1
 77.3333333333 469 85.6666666667 467.666666667 91 467 c 128
 96.3333333333 466.333333333 105.333333333 466 118 466 c 0
 134 466 151 467.666666667 169 471 c 1
 166.333333333 457.666666667 164.333333333 442 163 424 c 128
 161.666666667 406 161 388.666666667 161 372 c 1
 182.333333333 407.333333333 204.666666667 434.333333333 228 453 c 128
 251.333333333 471.666666667 281 481 317 481 c 1
 337 480 l 1
 333 435 l 1
 337 387 l 1
 329 389 320 390.833333333 310 392.5 c 128
 300 394.166666667 289.333333333 395.666666667 278 397 c 1
 234 397 203.333333333 380.5 186 347.5 c 128
 168.666666667 314.5 160 273.666666667 160 225 c 0
 160 198.333333333 160.666666667 155 162 95 c 128
 163.333333333 35 164 3.33333333333 164 0 c 1
 115 5 l 1
 66 0 l 1
 72 87 l 1
EndSplineSet
Validated: 1
EndChar
StartChar: s
Encoding: 115 115 84
Width: 427
Flags: W
LayerCount: 2
Fore
SplineSet
84 116 m 1,0,1
 94 74 94 74 124 50 c 128,-1,2
 154 26 154 26 199 26 c 0,3,4
 240 26 240 26 272.5 48.5 c 128,-1,5
 305 71 305 71 305 110 c 0,6,7
 305 162 305 162 241 188 c 1,8,9
 181 209 181 209 121 231 c 1,10,11
 57 264 57 264 57 332 c 0,12,13
 57 398 57 398 106.5 441 c 128,-1,14
 156 484 156 484 223 484 c 0,15,16
 256 484 256 484 288.5 476 c 128,-1,17
 321 468 321 468 360 452 c 1,18,-1
 332 366 l 1,19,-1
 323 366 l 1,20,21
 312 404 312 404 289 423 c 128,-1,22
 266 442 266 442 226 442 c 0,23,24
 189 442 189 442 161 421 c 128,-1,25
 133 400 133 400 133 364 c 0,26,27
 133 308 133 308 257.5 270 c 128,-1,28
 382 232 382 232 382 142 c 0,29,30
 382 67 382 67 324 28 c 128,-1,31
 266 -11 266 -11 187 -11 c 0,32,33
 117 -11 117 -11 49 17 c 1,34,-1
 74 116 l 1,35,-1
 84 116 l 1,0,1
EndSplineSet
EndChar
StartChar: t
Encoding: 116 116 82
Width: 306
Flags: HW
LayerCount: 2
Fore
SplineSet
13 422 m 1
 16 454 l 1
 13 471 l 1
 43 465.666666667 70.6666666667 463 96 463 c 1
 96 475.666666667 95.3333333333 497.166666667 94 527.5 c 128
 92.6666666667 557.833333333 92 573.666666667 92 575 c 1
 108.666666667 581 125.666666667 587.833333333 143 595.5 c 128
 160.333333333 603.166666667 176 611.666666667 190 621 c 1
 186 596.333333333 183.333333333 571.333333333 182 546 c 128
 180.666666667 520.666666667 180 493 180 463 c 1
 209.333333333 463 229.666666667 463.5 241 464.5 c 128
 252.333333333 465.5 268.333333333 467.666666667 289 471 c 1
 287 445 l 1
 289 422 l 1
 251.666666667 426 215 428 179 428 c 1
 175 186 l 1
 176 117 l 2
 176 91.6666666667 183 71 197 55 c 128
 211 39 230.333333333 31 255 31 c 0
 262.333333333 31 270.333333333 31.5 279 32.5 c 128
 287.666666667 33.5 294.333333333 34.3333333333 299 35 c 1
 299 3 l 1
 281.666666667 -1.66666666667 266 -5.16666666667 252 -7.5 c 128
 238 -9.83333333333 224 -11 210 -11 c 0
 177.333333333 -11 150 -3 128 13 c 128
 106 29 93.6666666667 53 91 85 c 1
 89 144 l 1
 93 279 l 1
 96 428 l 1
 86.6666666667 428 75 427.5 61 426.5 c 128
 47 425.5 31 424 13 422 c 1
EndSplineSet
Validated: 1
EndChar
StartChar: u
Encoding: 117 117 86
Width: 543
Flags: W
LayerCount: 2
Fore
SplineSet
471 358 m 1,0,-1
 470 113 l 2,1,2
 470 88 470 88 471.5 60 c 128,-1,3
 473 32 473 32 477 -1 c 1,4,5
 456 2 456 2 450 2.5 c 128,-1,6
 444 3 444 3 430 3 c 0,7,8
 419 3 419 3 412.5 2.5 c 128,-1,9
 406 2 406 2 384 -1 c 1,10,-1
 387 84 l 1,11,12
 355 37 355 37 317 13 c 128,-1,13
 279 -11 279 -11 226 -11 c 0,14,15
 144 -11 144 -11 106.5 35 c 128,-1,16
 69 81 69 81 69 164 c 2,17,-1
 69 254 l 1,18,-1
 68 372 l 1,19,-1
 65 471 l 1,20,21
 90 466 90 466 114 466 c 0,22,23
 128 466 128 466 136 467 c 128,-1,24
 144 468 144 468 162 471 c 1,25,26
 162 422 162 422 158 324 c 128,-1,27
 154 226 154 226 154 177 c 0,28,29
 154 117 154 117 178 82 c 128,-1,30
 202 47 202 47 260 47 c 0,31,32
 307 47 307 47 341 80.5 c 128,-1,33
 375 114 375 114 380 162 c 1,34,35
 386 203 386 203 386 245 c 0,36,37
 386 283 386 283 383 358 c 128,-1,38
 380 433 380 433 380 471 c 1,39,40
 406 466 406 466 412.5 466 c 128,-1,41
 419 466 419 466 429 466 c 0,42,43
 444 466 444 466 451.5 467 c 128,-1,44
 459 468 459 468 477 471 c 1,45,-1
 471 358 l 1,0,-1
EndSplineSet
EndChar
StartChar: v
Encoding: 118 118 84
Width: 471
Flags: HW
LayerCount: 2
Fore
SplineSet
0 471 m 1
 18.6666666667 468.333333333 31.6666666667 466.833333333 39 466.5 c 128
 46.3333333333 466.166666667 54 466 62 466 c 0
 68.6666666667 466 75.3333333333 466.166666667 82 466.5 c 128
 88.6666666667 466.833333333 101.666666667 468.333333333 121 471 c 1
 138.333333333 411 158.666666667 350.666666667 182 290 c 2
 258 97 l 1
 339 314 l 2
 357 360.666666667 374.333333333 413 391 471 c 1
 396.333333333 469.666666667 402.833333333 468.666666667 410.5 468 c 128
 418.166666667 467.333333333 425.333333333 467 432 467 c 0
 445 467 445 467 458 467 c 1
 470 470 470 470 474 471 c 1
 435.333333333 398.333333333 399 323 365 245 c 128
 331 167 298.666666667 85.3333333333 268 0 c 1
 263.333333333 1.33333333333 257.5 2.66666666667 250.5 4 c 128
 243.5 5.33333333333 236.666666667 6 230 6 c 0
 225.333333333 6 219.833333333 5.33333333333 213.5 4 c 128
 207.166666667 2.66666666667 201.333333333 1.33333333333 196 0 c 1
 178 58 160.666666667 107.5 144 148.5 c 128
 127.333333333 189.5 79.3333333333 297 0 471 c 1
EndSplineSet
Validated: 1
EndChar
StartChar: w
Encoding: 119 119 85
Width: 754
Flags: W
HStem: 0 21G<166 179 248 261 489.333 495.333 560.667 573> 451 20G<12 13.3333 108.333 121.667 340 365.667 431.333 441.667 676.667 686.333 746 750.667>
VStem: 3 116<416.469 471> 680 78<427.125 471>
AnchorPoint: "circum" 397 532 basechar 0
AnchorPoint: "above" 397 532 basechar 0
LayerCount: 2
Fore
SplineSet
3 471 m 1
 21 468.333333333 33.3333333333 466.833333333 40 466.5 c 0
 46.6666666667 466.166666667 54 466 62 466 c 0
 78.6666666667 466 97.6666666667 467.666666667 119 471 c 1
 124.333333333 439 130.333333333 411.666666667 137 389 c 0
 143.666666667 366.333333333 155.333333333 331.333333333 172 284 c 2
 237 102 l 1
 280.333333333 219.333333333 321 342.333333333 359 471 c 1
 372.333333333 467.666666667 385 466 397 466 c 0
 409.666666667 466 423.666666667 467.666666667 439 471 c 1
 444.333333333 445.666666667 451 419.333333333 459 392 c 0
 467 364.666666667 476.666666667 335 488 303 c 1
 555 98 l 1
 628 298 l 2
 638 326 647.5 354.5 656.5 383.5 c 0
 665.5 412.5 673.333333333 441.666666667 680 471 c 1
 692.666666667 468.333333333 701.166666667 466.833333333 705.5 466.5 c 0
 709.833333333 466.166666667 714.666666667 466 720 466 c 0
 730.666666667 466 743.333333333 467.666666667 758 471 c 1
 734 423.666666667 712 376.5 692 329.5 c 0
 672 282.5 650.5 229.166666667 627.5 169.5 c 0
 604.5 109.833333333 583 53.3333333333 563 0 c 1
 558.333333333 0 551.833333333 0.833333333333 543.5 2.5 c 0
 535.166666667 4.16666666667 530 5 528 5 c 0
 523.333333333 5 517.166666667 4.16666666667 509.5 2.5 c 0
 501.833333333 0.833333333333 496.666666667 0 494 0 c 1
 484.666666667 34.6666666667 475.833333333 65.3333333333 467.5 92 c 0
 459.166666667 118.666666667 450 145.333333333 440 172 c 2
 373 356 l 1
 352.333333333 302.666666667 331.833333333 246.166666667 311.5 186.5 c 0
 291.166666667 126.833333333 271 64.6666666667 251 0 c 1
 245 0.666666666667 239.333333333 1.5 234 2.5 c 0
 228.666666667 3.5 222 4 214 4 c 0
 208 4 201.333333333 3.5 194 2.5 c 0
 186.666666667 1.5 181 0.666666666667 177 0 c 1
 155 67.3333333333 135 125.833333333 117 175.5 c 0
 99 225.166666667 80.6666666667 273.833333333 62 321.5 c 0
 43.3333333333 369.166666667 23.6666666667 419 3 471 c 1
EndSplineSet
EndChar
StartChar: x
Encoding: 120 120 89
Width: 455
Flags: W
LayerCount: 2
Fore
SplineSet
190 228 m 1,0,-1
 114 332 l 1,1,2
 87 366 87 366 56.5 405.5 c 128,-1,3
 26 445 26 445 4 471 c 1,4,5
 37 466 37 466 70 466 c 0,6,7
 87 466 87 466 102 467.5 c 128,-1,8
 117 469 117 469 128 471 c 1,9,10
 154 427 154 427 179.5 388 c 128,-1,11
 205 349 205 349 241 299 c 1,12,13
 272 341 272 341 303 384 c 128,-1,14
 334 427 334 427 361 471 c 1,15,16
 366 470 366 470 377 468.5 c 128,-1,17
 388 467 388 467 396 466 c 1,18,19
 419 466 419 466 444 471 c 1,20,-1
 267 263 l 1,21,22
 313 193 313 193 343.5 151.5 c 128,-1,23
 374 110 374 110 457 0 c 1,24,25
 444 0 444 0 423 2.5 c 128,-1,26
 402 5 402 5 397 5 c 0,27,28
 377 5 377 5 361 3 c 128,-1,29
 345 1 345 1 335 0 c 1,30,31
 293 71 293 71 273.5 101.5 c 128,-1,32
 254 132 254 132 213 190 c 1,33,34
 140 85 140 85 124.5 61 c 128,-1,35
 109 37 109 37 89 0 c 1,36,-1
 48 4 l 2,37,38
 40 4 40 4 24 2 c 128,-1,39
 8 0 8 0 1 0 c 1,40,41
 46 52 46 52 95 111 c 128,-1,42
 144 170 144 170 190 228 c 1,0,-1
EndSplineSet
EndChar
StartChar: y
Encoding: 121 121 90
Width: 478
Flags: W
LayerCount: 2
Fore
SplineSet
3 471 m 1,0,-1
 62 466 l 1,1,-1
 119 471 l 1,2,3
 136 416 136 416 145.5 386.5 c 128,-1,4
 155 357 155 357 174 311 c 2,5,-1
 262 93 l 1,6,-1
 341 298 l 1,7,8
 374 387 374 387 398 471 c 1,9,10
 420 466 420 466 437 466 c 0,11,12
 456 466 456 466 479 471 c 1,13,14
 383 280 383 280 300 90.5 c 128,-1,15
 217 -99 217 -99 161 -268 c 1,16,-1
 135 -264 l 1,17,18
 118 -264 118 -264 102 -264 c 1,19,20
 88 -267 88 -267 81 -268 c 1,21,-1
 209 -16 l 1,22,23
 123 212 123 212 3 471 c 1,0,-1
EndSplineSet
EndChar
StartChar: z
Encoding: 122 122 91
Width: 466
Flags: W
LayerCount: 2
Fore
SplineSet
11 21 m 1,0,1
 64 90 64 90 118.5 161.5 c 128,-1,2
 173 233 173 233 218 300 c 2,3,-1
 301 422 l 1,4,-1
 195 422 l 2,5,6
 157 422 157 422 131 419 c 128,-1,7
 105 416 105 416 45 407 c 1,8,-1
 49 439 l 1,9,-1
 45 471 l 1,10,11
 83 468 83 468 131 466.5 c 128,-1,12
 179 465 179 465 238 465 c 2,13,-1
 262 465 l 1,14,-1
 283 465 l 2,15,16
 360 465 360 465 437 471 c 1,17,-1
 437 451 l 1,18,19
 393 396 393 396 326.5 308.5 c 128,-1,20
 260 221 260 221 228.5 177.5 c 128,-1,21
 197 134 197 134 140 49 c 1,22,-1
 247 49 l 2,23,24
 288 49 288 49 329 52.5 c 128,-1,25
 370 56 370 56 428 62 c 1,26,-1
 424 31 l 1,27,-1
 428 0 l 1,28,-1
 202 6 l 2,29,30
 171 6 171 6 107 3 c 128,-1,31
 43 0 43 0 11 0 c 1,32,-1
 11 21 l 1,0,1
EndSplineSet
EndChar
StartChar: braceleft
Encoding: 123 123 89
Width: 492
Flags: HW
LayerCount: 2
Fore
SplineSet
354 655 m 1
 332 655 315.166666667 646.666666667 303.5 630 c 128
 291.833333333 613.333333333 286 593.666666667 286 571 c 2
 286 536 l 1
 286 420 l 2
 286 376.666666667 279.166666667 341 265.5 313 c 128
 251.833333333 285 226.666666667 265.666666667 190 255 c 1
 226 244.333333333 251 224.666666667 265 196 c 128
 279 167.333333333 286 132 286 90 c 2
 286 -26 l 2
 286 -60.6666666667 290.166666667 -88 298.5 -108 c 128
 306.833333333 -128 320.666666667 -139.5 340 -142.5 c 128
 359.333333333 -145.5 373.333333333 -147 382 -147 c 128
 395 -147 395 -147 409 -147 c 1
 409 -199 l 1
 357 -199 313.666666667 -190.333333333 279 -173 c 128
 244.333333333 -155.666666667 227 -123.333333333 227 -76 c 1
 226 -21 l 1
 226 95 l 2
 226 125 221.5 152 212.5 176 c 128
 203.5 200 190.333333333 214.166666667 173 218.5 c 128
 155.666666667 222.833333333 140.333333333 225.5 127 226.5 c 128
 113.666666667 227.5 99.3333333333 228 84 228 c 1
 84 280 l 1
 136 280 172.666666667 289.666666667 194 309 c 128
 215.333333333 328.333333333 226 363.666666667 226 415 c 2
 226 531 l 2
 226 595 234 638.5 250 661.5 c 128
 266 684.5 290.666666667 698.666666667 324 704 c 1
 350 706.666666667 378.333333333 708 409 708 c 1
 409 657 l 1
 354 655 l 1
EndSplineSet
Validated: 1
EndChar
StartChar: bar
Encoding: 124 124 93
Width: 492
Flags: W
LayerCount: 2
Fore
SplineSet
271 323 m 1,0,-1
 220 323 l 1,1,-1
 220 688 l 1,2,-1
 271 688 l 1,3,-1
 271 323 l 1,0,-1
271 -168 m 1,4,-1
 220 -168 l 1,5,-1
 220 196 l 1,6,-1
 271 196 l 1,7,-1
 271 -168 l 1,4,-1
EndSplineSet
EndChar
StartChar: braceright
Encoding: 125 125 94
Width: 492
Flags: W
LayerCount: 2
Fore
SplineSet
266 415 m 2,0,1
 266 351 266 351 292 315.5 c 128,-1,2
 318 280 318 280 380 280 c 2,3,-1
 408 280 l 1,4,-1
 408 228 l 1,5,6
 332 228 332 228 299 200 c 128,-1,7
 266 172 266 172 266 95 c 2,8,-1
 266 -21 l 2,9,10
 266 -132 266 -132 230.5 -165.5 c 128,-1,11
 195 -199 195 -199 82 -199 c 1,12,-1
 82 -147 l 1,13,14
 157 -147 157 -147 181.5 -124.5 c 128,-1,15
 206 -102 206 -102 206 -60 c 2,16,-1
 206 -26 l 1,17,-1
 206 90 l 2,18,19
 206 153 206 153 226.5 195 c 128,-1,20
 247 237 247 237 301 255 c 1,21,22
 243 275 243 275 224.5 313 c 128,-1,23
 206 351 206 351 206 420 c 2,24,-1
 206 536 l 2,25,26
 206 588 206 588 193.5 618.5 c 128,-1,27
 181 649 181 649 138 656 c 1,28,-1
 82 657 l 1,29,-1
 82 708 l 1,30,-1
 134 707 l 2,31,32
 175 707 175 707 207 691.5 c 128,-1,33
 239 676 239 676 250 648.5 c 128,-1,34
 261 621 261 621 263.5 592.5 c 128,-1,35
 266 564 266 564 266 531 c 2,36,-1
 266 415 l 2,0,1
EndSplineSet
EndChar
StartChar: asciitilde
Encoding: 126 126 92
Width: 985
Flags: HW
LayerCount: 2
Fore
SplineSet
613 468 m 0
 570.333333333 468 526.333333333 492 481 540 c 128
 435.666666667 588 398.333333333 612 369 612 c 0
 330.333333333 612 302.666666667 598.5 286 571.5 c 128
 269.333333333 544.5 261 510 261 468 c 1
 205 468 l 1
 205 524.666666667 218.333333333 571.666666667 245 609 c 128
 271.666666667 646.333333333 312.333333333 665 367 665 c 0
 413.666666667 665 458.833333333 641.166666667 502.5 593.5 c 128
 546.166666667 545.833333333 583.666666667 522 615 522 c 0
 655 522 682.833333333 535.166666667 698.5 561.5 c 128
 714.166666667 587.833333333 722 622.333333333 722 665 c 1
 778 665 l 1
 778 608.333333333 764.333333333 561.333333333 737 524 c 128
 709.666666667 486.666666667 668.333333333 468 613 468 c 0
EndSplineSet
Validated: 1
EndChar
StartChar: sterling
Encoding: 163 163 107
Width: 539
Flags: HW
LayerCount: 2
Fore
SplineSet
49 34 m 1
 47 71 l 1
 84 73 l 1
 112.666666667 78.3333333333 133.666666667 94.5 147 121.5 c 128
 160.333333333 148.5 167 178.333333333 167 211 c 0
 167 229 166 248.833333333 164 270.5 c 128
 162 292.166666667 160.666666667 308.666666667 160 320 c 1
 136 320 116.333333333 319.5 101 318.5 c 128
 85.6666666667 317.5 70.3333333333 315.333333333 55 312 c 1
 57 345 l 1
 55 362 l 1
 63 360 70 358.333333333 76 357 c 128
 82 355.666666667 89 355 97 355 c 2
 158 355 l 1
 156 369 154.333333333 382.833333333 153 396.5 c 128
 151.666666667 410.166666667 151 424.333333333 151 439 c 0
 151 503 173.833333333 555 219.5 595 c 128
 265.166666667 635 321 655 387 655 c 0
 413.666666667 655 436.666666667 652 456 646 c 128
 475.333333333 640 497 632.333333333 521 623 c 1
 507 596.333333333 493.333333333 564.333333333 480 527 c 1
 473 527 l 1
 465.666666667 555.666666667 453.5 578.166666667 436.5 594.5 c 128
 419.5 610.833333333 397 619 369 619 c 0
 328.333333333 619 297.5 604 276.5 574 c 128
 255.5 544 245 508 245 466 c 1
 249 355 l 1
 265 355 l 2
 305.666666667 355 343.666666667 357.333333333 379 362 c 1
 376 336 l 1
 379 312 l 1
 363.666666667 314.666666667 343 316.666666667 317 318 c 128
 291 319.333333333 269 320 251 320 c 1
 251 273 l 2
 251 236.333333333 242.5 202.5 225.5 171.5 c 128
 208.5 140.5 184.666666667 109 154 77 c 1
 254 77 329.333333333 78.5 380 81.5 c 128
 430.666666667 84.5 479 89.6666666667 525 97 c 1
 520 48 l 1
 520 32.6666666667 521.666666667 16.6666666667 525 0 c 1
 495 0 450.333333333 1 391 3 c 128
 331.666666667 5 287.333333333 6 258 6 c 0
 223.333333333 6 179.833333333 5 127.5 3 c 128
 75.1666666667 1 48.3333333333 0 47 0 c 1
 49 34 l 1
EndSplineSet
Validated: 1
EndChar
StartChar: yen
Encoding: 165 165 127
Width: 540
Flags: HW
LayerCount: 2
Fore
SplineSet
225 200 m 1
 203.666666667 200 170.833333333 198.833333333 126.5 196.5 c 128
 82.1666666667 194.166666667 52 193 36 193 c 1
 36 241 l 1
 51.3333333333 241 74.6666666667 240.333333333 106 239 c 128
 137.333333333 237.666666667 161 237 177 237 c 2
 225 238 l 1
 225 314 l 1
 127 314 l 1
 36 311 l 1
 36 357 l 1
 55.3333333333 357 87.1666666667 356.333333333 131.5 355 c 128
 175.833333333 353.666666667 199.333333333 353 202 353 c 1
 91 535 l 1
 23 639 l 1
 66 636 l 1
 138 639 l 1
 146 619 154 601.5 162 586.5 c 128
 170 571.5 185 544 207 504 c 1
 286 369 l 1
 303.333333333 397 322.5 430.833333333 343.5 470.5 c 128
 364.5 510.166666667 392 566.333333333 426 639 c 1
 463 636 l 1
 503 639 l 1
 450 557 l 1
 399 472 l 1
 327 353 l 1
 347 353 380.333333333 353.666666667 427 355 c 128
 473.666666667 356.333333333 498.666666667 357 502 357 c 1
 502 311 l 1
 312 314 l 1
 312 238 l 1
 412 237 l 2
 422.666666667 237 438 237.666666667 458 239 c 128
 478 240.333333333 492.666666667 241 502 241 c 1
 502 193 l 1
 409 199 l 1
 312 200 l 1
 312 166.666666667 312.166666667 134.333333333 312.5 103 c 128
 312.833333333 71.6666666667 314.666666667 37.3333333333 318 0 c 1
 263 4 l 1
 215 0 l 1
 219 26 221.666666667 57.5 223 94.5 c 128
 224.333333333 131.5 225 166.666666667 225 200 c 1
EndSplineSet
Validated: 1
EndChar
StartChar: section
Encoding: 167 167 125
Width: 486
Flags: W
LayerCount: 2
Fore
SplineSet
82 26 m 1,0,-1
 92 26 l 1,1,2
 107 -24 107 -24 142.5 -55 c 128,-1,3
 178 -86 178 -86 230 -86 c 0,4,5
 277 -86 277 -86 310 -56.5 c 128,-1,6
 343 -27 343 -27 343 20 c 0,7,8
 343 84 343 84 266 122 c 1,9,10
 194 152 194 152 123 182 c 1,11,12
 46 225 46 225 46 302 c 0,13,14
 46 343 46 343 66 376 c 128,-1,15
 86 409 86 409 123 439 c 1,16,17
 88 482 88 482 88 532 c 0,18,19
 88 603 88 603 140.5 645.5 c 128,-1,20
 193 688 193 688 266 688 c 0,21,22
 304 688 304 688 340.5 677 c 128,-1,23
 377 666 377 666 415 644 c 1,24,25
 409 635 409 635 403 622 c 128,-1,26
 397 609 397 609 375 558 c 1,27,-1
 366 558 l 1,28,29
 348 604 348 604 320.5 627 c 128,-1,30
 293 650 293 650 247 650 c 0,31,32
 208 650 208 650 180.5 624.5 c 128,-1,33
 153 599 153 599 153 560 c 0,34,35
 153 500 153 500 229 464 c 1,36,37
 299 435 299 435 370 406 c 1,38,39
 446 365 446 365 446 294 c 0,40,41
 446 251 446 251 426.5 216 c 128,-1,42
 407 181 407 181 371 154 c 1,43,44
 392 129 392 129 403.5 103.5 c 128,-1,45
 415 78 415 78 415 47 c 0,46,47
 415 -33 415 -33 356 -80.5 c 128,-1,48
 297 -128 297 -128 215 -128 c 0,49,50
 172 -128 172 -128 129.5 -117.5 c 128,-1,51
 87 -107 87 -107 55 -86 c 1,52,53
 62 -64 62 -64 70 -30.5 c 128,-1,54
 78 3 78 3 82 26 c 1,0,-1
99 345 m 0,55,56
 99 285 99 285 185 245 c 128,-1,57
 271 205 271 205 345 171 c 1,58,59
 366 188 366 188 377.5 205.5 c 128,-1,60
 389 223 389 223 389 246 c 0,61,62
 389 305 389 305 276.5 353 c 128,-1,63
 164 401 164 401 142 423 c 1,64,65
 126 406 126 406 112.5 383.5 c 128,-1,66
 99 361 99 361 99 345 c 0,55,56
EndSplineSet
EndChar
StartChar: copyright
Encoding: 169 169 121
Width: 820
Flags: HW
LayerCount: 2
Fore
SplineSet
588 652 m 1
 641.333333333 621.333333333 683.666666667 578.333333333 715 523 c 128
 746.333333333 467.666666667 762 409 762 347 c 0
 762 251.666666667 727 169.333333333 657 100 c 128
 587 30.6666666667 504.333333333 -4 409 -4 c 0
 314.333333333 -4 232.166666667 30.8333333333 162.5 100.5 c 128
 92.8333333333 170.166666667 58 252.333333333 58 347 c 0
 58 443 92.6666666667 525.666666667 162 595 c 128
 231.333333333 664.333333333 314 699 410 699 c 0
 472 699 531.333333333 683.333333333 588 652 c 1
410 661 m 0
 325.333333333 661 252 630 190 568 c 128
 128 506 97 432.333333333 97 347 c 0
 97 263 127.666666667 189.666666667 189 127 c 128
 250.333333333 64.3333333333 323.333333333 33 408 33 c 0
 492 33 565.5 64.1666666667 628.5 126.5 c 128
 691.5 188.833333333 723 261.666666667 723 345 c 0
 723 401.666666667 709.333333333 454.5 682 503.5 c 128
 654.666666667 552.5 616.333333333 591 567 619 c 128
 517.666666667 647 465.333333333 661 410 661 c 0
411 521 m 0
 369.666666667 521 338.833333333 503.833333333 318.5 469.5 c 128
 298.166666667 435.166666667 288 396.333333333 288 353 c 0
 288 307.666666667 297.5 266.833333333 316.5 230.5 c 128
 335.5 194.166666667 364.666666667 176 404 176 c 0
 433.333333333 176 458.333333333 184 479 200 c 128
 499.666666667 216 513.666666667 238 521 266 c 1
 575 266 l 1
 570.333333333 224.666666667 551.833333333 191.666666667 519.5 167 c 128
 487.166666667 142.333333333 449 130 405 130 c 0
 349.666666667 130 306 151 274 193 c 128
 242 235 226 285 226 343 c 0
 226 404.333333333 242.166666667 456.666666667 274.5 500 c 128
 306.833333333 543.333333333 352.666666667 565 412 565 c 0
 452.666666667 565 487.666666667 553.833333333 517 531.5 c 128
 546.333333333 509.166666667 564.333333333 478.333333333 571 439 c 1
 515 439 l 1
 510.333333333 463 498.333333333 482.666666667 479 498 c 128
 459.666666667 513.333333333 437 521 411 521 c 0
EndSplineSet
Validated: 1
EndChar
StartChar: guillemotleft
Encoding: 171 171 132
Width: 437
Flags: W
LayerCount: 2
Fore
SplineSet
110 235 m 1,0,-1
 223 31 l 1,1,-1
 194 3 l 1,2,-1
 35 235 l 1,3,-1
 194 467 l 1,4,-1
 223 440 l 1,5,-1
 110 235 l 1,0,-1
284 235 m 1,6,-1
 396 31 l 1,7,-1
 367 3 l 1,8,-1
 208 235 l 1,9,-1
 367 467 l 1,10,-1
 396 440 l 1,11,-1
 284 235 l 1,6,-1
EndSplineSet
EndChar
StartChar: uni00AD
Encoding: 173 173 177
Width: 492
Flags: HW
LayerCount: 2
Fore
SplineSet
0 269 m 1
 492 269 l 1
 492 208 l 1
 0 208 l 1
 0 269 l 1
EndSplineSet
Validated: 1
EndChar
StartChar: registered
Encoding: 174 174 123
Width: 820
Flags: W
LayerCount: 2
Fore
SplineSet
588 652 m 1,0,1
 668 606 668 606 715 523 c 128,-1,2
 762 440 762 440 762 347 c 0,3,4
 762 204 762 204 657 100 c 128,-1,5
 552 -4 552 -4 409 -4 c 0,6,7
 267 -4 267 -4 162.5 100.5 c 128,-1,8
 58 205 58 205 58 347 c 0,9,10
 58 491 58 491 162 595 c 128,-1,11
 266 699 266 699 410 699 c 0,12,13
 503 699 503 699 588 652 c 1,0,1
410 661 m 0,14,15
 283 661 283 661 190 568 c 128,-1,16
 97 475 97 475 97 347 c 0,17,18
 97 221 97 221 189 127 c 128,-1,19
 281 33 281 33 408 33 c 0,20,21
 534 33 534 33 628.5 126.5 c 128,-1,22
 723 220 723 220 723 345 c 0,23,24
 723 430 723 430 682 503.5 c 128,-1,25
 641 577 641 577 567 619 c 128,-1,26
 493 661 493 661 410 661 c 0,14,15
587 446 m 0,27,28
 587 405 587 405 559.5 375.5 c 128,-1,29
 532 346 532 346 491 337 c 1,30,-1
 583 151 l 1,31,-1
 512 151 l 1,32,-1
 427 329 l 1,33,-1
 333 329 l 1,34,-1
 333 151 l 1,35,-1
 271 151 l 1,36,-1
 271 555 l 1,37,-1
 419 555 l 2,38,39
 487 555 487 555 537 531 c 128,-1,40
 587 507 587 507 587 446 c 0,27,28
333 514 m 1,41,-1
 333 369 l 1,42,-1
 408 369 l 2,43,44
 458 369 458 369 491.5 383 c 128,-1,45
 525 397 525 397 525 440 c 256,46,47
 525 483 525 483 491 498.5 c 128,-1,48
 457 514 457 514 407 514 c 2,49,-1
 333 514 l 1,41,-1
EndSplineSet
EndChar
StartChar: degree
Encoding: 176 176 126
Width: 492
Flags: W
LayerCount: 2
Fore
SplineSet
127 640 m 0,0,1
 127 692 127 692 164.5 727.5 c 128,-1,2
 202 763 202 763 256 763 c 0,3,4
 298 763 298 763 332 728 c 128,-1,5
 366 693 366 693 366 651 c 0,6,7
 366 604 366 604 328 565 c 128,-1,8
 290 526 290 526 243 526 c 0,9,10
 194 526 194 526 160.5 558.5 c 128,-1,11
 127 591 127 591 127 640 c 0,0,1
174 634 m 0,12,13
 174 602 174 602 192.5 580 c 128,-1,14
 211 558 211 558 243 558 c 0,15,16
 279 558 279 558 298.5 584 c 128,-1,17
 318 610 318 610 318 648 c 256,18,19
 318 686 318 686 301 709.5 c 128,-1,20
 284 733 284 733 248 733 c 0,21,22
 222 733 222 733 203 717 c 128,-1,23
 184 701 184 701 179 677 c 128,-1,24
 174 653 174 653 174 634 c 0,12,13
EndSplineSet
EndChar
StartChar: plusminus
Encoding: 177 177 124
Width: 820
Flags: HW
LayerCount: 2
Fore
SplineSet
434 395 m 1
 698 395 l 1
 698 347 l 1
 434 347 l 1
 434 178 l 1
 385 178 l 1
 385 347 l 1
 122 347 l 1
 122 395 l 1
 385 395 l 1
 385 561 l 1
 434 561 l 1
 434 395 l 1
698 24 m 1
 122 24 l 1
 122 72 l 1
 698 72 l 1
 698 24 l 1
EndSplineSet
Validated: 1
EndChar
StartChar: twosuperior
Encoding: 178 178 146
Width: 357
Flags: W
LayerCount: 2
Fore
SplineSet
214 536 m 0,0,1
 214 573 214 573 195 598.5 c 128,-1,2
 176 624 176 624 142 624 c 256,3,4
 108 624 108 624 86.5 603 c 128,-1,5
 65 582 65 582 60 548 c 1,6,-1
 55 547 l 1,7,8
 49 562 49 562 39 578 c 128,-1,9
 29 594 29 594 23 603 c 1,10,11
 78 649 78 649 152 649 c 0,12,13
 201 649 201 649 241 621.5 c 128,-1,14
 281 594 281 594 281 546 c 0,15,16
 281 473 281 473 203.5 409 c 128,-1,17
 126 345 126 345 80 308 c 1,18,-1
 211 308 l 2,19,20
 228 308 228 308 252.5 310 c 128,-1,21
 277 312 277 312 297 315 c 1,22,-1
 293 286 l 1,23,-1
 297 256 l 1,24,-1
 219 259 l 1,25,-1
 80 260 l 1,26,-1
 11 256 l 1,27,-1
 11 272 l 1,28,29
 104 349 104 349 159 409 c 128,-1,30
 214 469 214 469 214 536 c 0,0,1
EndSplineSet
EndChar
StartChar: threesuperior
Encoding: 179 179 147
Width: 357
Flags: W
LayerCount: 2
Fore
SplineSet
115 458 m 1,0,-1
 113 478 l 1,1,2
 121 476 121 476 129 476 c 128,-1,3
 137 476 137 476 145 476 c 0,4,5
 179 476 179 476 202 497 c 128,-1,6
 225 518 225 518 225 553 c 0,7,8
 225 626 225 626 153 626 c 0,9,10
 122 626 122 626 103.5 609.5 c 128,-1,11
 85 593 85 593 78 563 c 1,12,-1
 74 561 l 1,13,14
 68 573 68 573 61.5 585.5 c 128,-1,15
 55 598 55 598 48 609 c 1,16,17
 71 628 71 628 97.5 638.5 c 128,-1,18
 124 649 124 649 153 649 c 0,19,20
 205 649 205 649 246 629 c 128,-1,21
 287 609 287 609 287 561 c 0,22,23
 287 522 287 522 256.5 498 c 128,-1,24
 226 474 226 474 182 463 c 1,25,26
 233 463 233 463 269.5 439.5 c 128,-1,27
 306 416 306 416 306 367 c 0,28,29
 306 308 306 308 255.5 277.5 c 128,-1,30
 205 247 205 247 142 247 c 0,31,32
 85 247 85 247 35 269 c 1,33,34
 38 282 38 282 42 304.5 c 128,-1,35
 46 327 46 327 48 338 c 1,36,-1
 55 338 l 1,37,38
 64 306 64 306 87.5 287.5 c 128,-1,39
 111 269 111 269 144 269 c 0,40,41
 184 269 184 269 212.5 294.5 c 128,-1,42
 241 320 241 320 241 360 c 0,43,44
 241 399 241 399 216 424 c 128,-1,45
 191 449 191 449 150 449 c 0,46,47
 140 449 140 449 130 447 c 128,-1,48
 120 445 120 445 113 444 c 1,49,-1
 115 458 l 1,0,-1
EndSplineSet
EndChar
StartChar: acute
Encoding: 180 180 103
Width: 269
Flags: W
LayerCount: 2
Fore
SplineSet
122 619 m 2,0,1
 128 644 128 644 142.5 665 c 128,-1,2
 157 686 157 686 180 686 c 0,3,4
 196 686 196 686 208 676 c 128,-1,5
 220 666 220 666 220 650 c 0,6,7
 220 635 220 635 212.5 617.5 c 128,-1,8
 205 600 205 600 194 584 c 1,9,-1
 87 409 l 1,10,-1
 65 415 l 1,11,-1
 122 619 l 2,0,1
EndSplineSet
EndChar
StartChar: onesuperior
Encoding: 185 185 142
Width: 357
Flags: HW
LayerCount: 2
Fore
SplineSet
184 527 m 1
 182 600 l 1
 89 547 l 1
 87.6666666667 549 83 554 75 562 c 128
 67 570 61.6666666667 575 59 577 c 1
 91 587 121.5 598.666666667 150.5 612 c 128
 179.5 625.333333333 210.333333333 641.333333333 243 660 c 1
 250 657 l 1
 250 626.333333333 248.666666667 580.333333333 246 519 c 128
 243.333333333 457.666666667 242 411.666666667 242 381 c 2
 244 256 l 1
 240 256 234 256.666666667 226 258 c 128
 218 259.333333333 212.333333333 260 209 260 c 0
 205 260 199 259.333333333 191 258 c 128
 183 256.666666667 177.333333333 256 174 256 c 1
 176.666666667 280.666666667 179 315 181 359 c 128
 183 403 184 459 184 527 c 1
EndSplineSet
Validated: 1
EndChar
StartChar: guillemotright
Encoding: 187 187 133
Width: 437
Flags: W
LayerCount: 2
Fore
SplineSet
141 232 m 1,0,-1
 31 437 l 1,1,-1
 59 464 l 1,2,-1
 218 232 l 1,3,-1
 59 0 l 1,4,-1
 31 27 l 1,5,-1
 141 232 l 1,0,-1
314 232 m 1,6,-1
 204 437 l 1,7,-1
 232 464 l 1,8,-1
 391 232 l 1,9,-1
 232 0 l 1,10,-1
 204 27 l 1,11,-1
 314 232 l 1,6,-1
EndSplineSet
EndChar
StartChar: onehalf
Encoding: 189 189 146
Width: 844
Flags: HW
LayerCount: 2
Fore
SplineSet
180 535 m 1
 177 602 l 1
 157.666666667 593.333333333 142.166666667 585.833333333 130.5 579.5 c 128
 118.833333333 573.166666667 104.333333333 564.333333333 87 553 c 1
 85.6666666667 556.333333333 81.8333333333 561.166666667 75.5 567.5 c 128
 69.1666666667 573.833333333 64 578.666666667 60 582 c 1
 88 590 116.166666667 600.333333333 144.5 613 c 128
 172.833333333 625.666666667 203.333333333 640.666666667 236 658 c 1
 242 656 l 1
 242 626.666666667 240.833333333 581.833333333 238.5 521.5 c 128
 236.166666667 461.166666667 235 419.666666667 235 397 c 2
 236 282 l 1
 232.666666667 282 226.666666667 282.666666667 218 284 c 128
 209.333333333 285.333333333 204.333333333 286 203 286 c 0
 198.333333333 286 192 285.333333333 184 284 c 128
 176 282.666666667 170.666666667 282 168 282 c 1
 172.666666667 321.333333333 175.833333333 359.666666667 177.5 397 c 128
 179.166666667 434.333333333 180 480.333333333 180 535 c 1
619 731 m 1
 669 731 l 1
 226 -90 l 1
 176 -90 l 1
 619 731 l 1
707 261 m 0
 707 285 701.5 304.333333333 690.5 319 c 128
 679.5 333.666666667 662.333333333 342 639 344 c 1
 622.333333333 344 606.5 339.333333333 591.5 330 c 128
 576.5 320.666666667 567.666666667 308.333333333 565 293 c 2
 561 272 l 1
 557 271 l 1
 547.666666667 290.333333333 537 307.666666667 525 323 c 1
 559.666666667 353.666666667 600.666666667 369 648 369 c 0
 680.666666667 369 709.5 360.166666667 734.5 342.5 c 128
 759.5 324.833333333 772 300.333333333 772 269 c 0
 772 226.333333333 744 182 688 136 c 128
 632 90 596.333333333 60.6666666667 581 48 c 1
 705 48 l 2
 734.333333333 48 762 50.3333333333 788 55 c 1
 787.333333333 53.6666666667 786.5 49.8333333333 785.5 43.5 c 128
 784.5 37.1666666667 784 32 784 28 c 0
 784 16.6666666667 785.333333333 7.33333333333 788 0 c 1
 770 0 743 0.333333333333 707 1 c 128
 671 1.66666666667 643.666666667 2 625 2 c 0
 613 2 594.666666667 1.66666666667 570 1 c 128
 545.333333333 0.333333333333 527 0 515 0 c 1
 515 16 l 1
 577 64.6666666667 624.5 106.5 657.5 141.5 c 128
 690.5 176.5 707 216.333333333 707 261 c 0
EndSplineSet
Validated: 1
EndChar
StartChar: Adieresis
Encoding: 196 196 93
Width: 595
Flags: HW
LayerCount: 2
Fore
SplineSet
186 460 m 2
 280 685 l 1
 282.666666667 683.666666667 290 682.333333333 302 681 c 1
 310.666666667 681 318.666666667 682.333333333 326 685 c 1
 348.666666667 625 376.833333333 553.166666667 410.5 469.5 c 128
 444.166666667 385.833333333 472.5 315.833333333 495.5 259.5 c 128
 518.5 203.166666667 554.666666667 116.666666667 604 0 c 1
 594.666666667 0 582.333333333 0.833333333333 567 2.5 c 128
 551.666666667 4.16666666667 543 5 541 5 c 0
 529.666666667 5 517.666666667 4.16666666667 505 2.5 c 128
 492.333333333 0.833333333333 483.666666667 0 479 0 c 1
 455 75.3333333333 439.166666667 124.166666667 431.5 146.5 c 128
 423.833333333 168.833333333 410 205 390 255 c 1
 272 257 l 1
 154 255 l 1
 116 148 l 2
 109.333333333 130.666666667 101.833333333 107.333333333 93.5 78 c 128
 85.1666666667 48.6666666667 78.3333333333 22.6666666667 73 0 c 1
 32 4 l 1
 24.6666666667 4 18.6666666667 3.83333333333 14 3.5 c 128
 9.33333333333 3.16666666667 0.666666666667 2 -12 0 c 1
 10 50.6666666667 31.3333333333 99.5 52 146.5 c 128
 72.6666666667 193.5 95.8333333333 247.166666667 121.5 307.5 c 128
 147.166666667 367.833333333 168.666666667 418.666666667 186 460 c 2
211 870 m 256
 226.333333333 870 238.833333333 864.833333333 248.5 854.5 c 128
 258.166666667 844.166666667 263 831.333333333 263 816 c 0
 263 801.333333333 258 788.666666667 248 778 c 128
 238 767.333333333 225.666666667 762 211 762 c 0
 195.666666667 762 182.666666667 767.333333333 172 778 c 128
 161.333333333 788.666666667 156 801.333333333 156 816 c 256
 156 830.666666667 161.333333333 843.333333333 172 854 c 128
 182.666666667 864.666666667 195.666666667 870 211 870 c 256
385 870 m 0
 399.666666667 870 412.166666667 864.833333333 422.5 854.5 c 128
 432.833333333 844.166666667 438 831.333333333 438 816 c 0
 438 802 432.833333333 789.5 422.5 778.5 c 128
 412.166666667 767.5 399.666666667 762 385 762 c 0
 369.666666667 762 356.666666667 767.333333333 346 778 c 128
 335.333333333 788.666666667 330 801.333333333 330 816 c 256
 330 830.666666667 335.333333333 843.333333333 346 854 c 128
 356.666666667 864.666666667 369.666666667 870 385 870 c 0
272 303 m 1
 370 306 l 1
 274 549 l 1
 177 306 l 1
 272 303 l 1
EndSplineSet
Validated: 1
EndChar
StartChar: Eacute
Encoding: 201 201 97
Width: 493
Flags: W
LayerCount: 2
Fore
SplineSet
90 335 m 0,0,1
 90 389 90 389 84.5 511.5 c 128,-1,2
 79 634 79 634 79 671 c 1,3,-1
 255 669 l 1,4,-1
 440 671 l 1,5,6
 438 663 438 663 438 653 c 128,-1,7
 438 643 438 643 438 638 c 2,8,-1
 440 603 l 1,9,10
 365 619 365 619 294 619 c 2,11,-1
 188 619 l 1,12,-1
 186 482 l 1,13,-1
 186 381 l 1,14,-1
 287 381 l 2,15,16
 355 381 355 381 423 390 c 1,17,18
 421 381 421 381 421 372.5 c 128,-1,19
 421 364 421 364 421 359 c 0,20,21
 421 335 421 335 423 324 c 1,22,23
 391 327 391 327 351.5 330 c 128,-1,24
 312 333 312 333 284 333 c 2,25,-1
 186 333 l 1,26,-1
 186 229 l 1,27,-1
 189 53 l 1,28,29
 275 53 275 53 326.5 55.5 c 128,-1,30
 378 58 378 58 443 68 c 1,31,-1
 442 34 l 1,32,-1
 443 0 l 1,33,-1
 257 2 l 1,34,-1
 79 0 l 1,35,36
 79 52 79 52 84.5 175.5 c 128,-1,37
 90 299 90 299 90 335 c 0,0,1
308 882 m 2,38,39
 321 896 321 896 333 904 c 128,-1,40
 345 912 345 912 360 912 c 0,41,42
 377 912 377 912 386.5 901 c 128,-1,43
 396 890 396 890 396 873 c 0,44,45
 396 858 396 858 384.5 846.5 c 128,-1,46
 373 835 373 835 355 826 c 1,47,-1
 211 737 l 1,48,-1
 175 737 l 1,49,-1
 308 882 l 2,38,39
EndSplineSet
EndChar
StartChar: Odieresis
Encoding: 214 214 98
Width: 807
Flags: W
LayerCount: 2
Fore
SplineSet
37 335 m 0,0,1
 37 496 37 496 138.5 590 c 128,-1,2
 240 684 240 684 403 684 c 0,3,4
 541 684 541 684 642 614 c 128,-1,5
 743 544 743 544 754 474.5 c 128,-1,6
 765 405 765 405 767.5 385.5 c 128,-1,7
 770 366 770 366 770 333 c 256,8,9
 770 300 770 300 768 284.5 c 128,-1,10
 766 269 766 269 754.5 198 c 128,-1,11
 743 127 743 127 644 58 c 128,-1,12
 545 -11 545 -11 405 -11 c 0,13,14
 363 -11 363 -11 325.5 -6.5 c 128,-1,15
 288 -2 288 -2 219.5 22.5 c 128,-1,16
 151 47 151 47 94 134.5 c 128,-1,17
 37 222 37 222 37 335 c 0,0,1
317 870 m 0,18,19
 339 870 339 870 354.5 854.5 c 128,-1,20
 370 839 370 839 370 816 c 0,21,22
 370 795 370 795 354.5 778.5 c 128,-1,23
 339 762 339 762 317 762 c 256,24,25
 295 762 295 762 278 778 c 128,-1,26
 261 794 261 794 261 816 c 0,27,28
 261 839 261 839 277.5 854.5 c 128,-1,29
 294 870 294 870 317 870 c 0,18,19
491 870 m 256,30,31
 514 870 514 870 529.5 854.5 c 128,-1,32
 545 839 545 839 545 816 c 0,33,34
 545 795 545 795 529.5 778.5 c 128,-1,35
 514 762 514 762 491 762 c 256,36,37
 468 762 468 762 452.5 777.5 c 128,-1,38
 437 793 437 793 437 816 c 256,39,40
 437 839 437 839 452.5 854.5 c 128,-1,41
 468 870 468 870 491 870 c 256,30,31
147 338 m 0,42,43
 147 204 147 204 210.5 117 c 128,-1,44
 274 30 274 30 403 30 c 0,45,46
 533 30 533 30 596.5 117 c 128,-1,47
 660 204 660 204 660 338 c 0,48,49
 660 467 660 467 595 553 c 128,-1,50
 530 639 530 639 403 639 c 0,51,52
 310 639 310 639 251.5 594.5 c 128,-1,53
 193 550 193 550 163 460 c 1,54,55
 147 402 147 402 147 338 c 0,42,43
EndSplineSet
EndChar
StartChar: multiply
Encoding: 215 215 145
Width: 820
Flags: HW
LayerCount: 2
Fore
SplineSet
642 558 m 1
 675 525 l 1
 444 293 l 1
 675 62 l 1
 642 28 l 1
 411 260 l 1
 178 28 l 1
 147 62 l 1
 378 293 l 1
 147 525 l 1
 178 558 l 1
 411 327 l 1
 642 558 l 1
EndSplineSet
Validated: 1
EndChar
StartChar: Udieresis
Encoding: 220 220 99
Width: 731
Flags: W
LayerCount: 2
Fore
SplineSet
132 668 m 1,0,-1
 189 671 l 1,1,2
 183 615 183 615 180.5 580 c 128,-1,3
 178 545 178 545 178 502 c 2,4,-1
 178 329 l 2,5,6
 178 153 178 153 226.5 98 c 128,-1,7
 275 43 275 43 372 43 c 0,8,9
 472 43 472 43 529 94 c 128,-1,10
 586 145 586 145 586 242 c 2,11,-1
 586 330 l 1,12,-1
 586 473 l 2,13,14
 586 578 586 578 576 671 c 1,15,-1
 619 668 l 1,16,-1
 662 671 l 1,17,18
 655 622 655 622 652 555 c 128,-1,19
 649 488 649 488 649 432 c 2,20,-1
 649 264 l 2,21,22
 649 129 649 129 571 59 c 128,-1,23
 493 -11 493 -11 354 -11 c 0,24,25
 222 -11 222 -11 153 48 c 128,-1,26
 84 107 84 107 84 234 c 2,27,-1
 84 307 l 1,28,-1
 84 503 l 2,29,30
 84 545 84 545 81.5 580 c 128,-1,31
 79 615 79 615 73 671 c 1,32,-1
 132 668 l 1,0,-1
296 870 m 256,33,34
 319 870 319 870 333.5 854.5 c 128,-1,35
 348 839 348 839 348 816 c 0,36,37
 348 796 348 796 332 779 c 128,-1,38
 316 762 316 762 296 762 c 0,39,40
 274 762 274 762 257.5 778.5 c 128,-1,41
 241 795 241 795 241 816 c 0,42,43
 241 838 241 838 257 854 c 128,-1,44
 273 870 273 870 296 870 c 256,33,34
469 870 m 0,45,46
 492 870 492 870 508 855 c 128,-1,47
 524 840 524 840 524 816 c 0,48,49
 524 795 524 795 507.5 778.5 c 128,-1,50
 491 762 491 762 469 762 c 256,51,52
 447 762 447 762 431 777 c 128,-1,53
 415 792 415 792 415 816 c 0,54,55
 415 838 415 838 431 854 c 128,-1,56
 447 870 447 870 469 870 c 0,45,46
EndSplineSet
EndChar
StartChar: uni00DF
Encoding: 223 223 122
Width: 551
Flags: W
LayerCount: 2
Fore
SplineSet
77 311 m 2,0,-1
 77 440 l 1,1,-1
 77 548 l 1,2,3
 85 628 85 628 144.5 683 c 128,-1,4
 204 738 204 738 285 738 c 0,5,6
 345 738 345 738 391.5 705 c 128,-1,7
 438 672 438 672 438 614 c 0,8,9
 438 564 438 564 382 511 c 128,-1,10
 326 458 326 458 326 422 c 0,11,12
 326 394 326 394 424.5 329.5 c 128,-1,13
 523 265 523 265 523 187 c 0,14,15
 523 103 523 103 467 46 c 128,-1,16
 411 -11 411 -11 327 -11 c 0,17,18
 302 -11 302 -11 273.5 -5 c 128,-1,19
 245 1 245 1 223 11 c 1,20,-1
 241 92 l 1,21,-1
 251 92 l 1,22,23
 266 66 266 66 292.5 50.5 c 128,-1,24
 319 35 319 35 350 35 c 0,25,26
 392 35 392 35 420 66 c 128,-1,27
 448 97 448 97 448 139 c 0,28,29
 448 202 448 202 349 263 c 128,-1,30
 250 324 250 324 250 378 c 0,31,32
 250 404 250 404 312.5 480.5 c 128,-1,33
 375 557 375 557 375 604 c 0,34,35
 375 648 375 648 348.5 676.5 c 128,-1,36
 322 705 322 705 279 705 c 0,37,38
 226 705 226 705 194.5 666 c 128,-1,39
 163 627 163 627 163 573 c 2,40,-1
 163 453 l 1,41,-1
 163 248 l 2,42,43
 163 191 163 191 165.5 102 c 128,-1,44
 168 13 168 13 168 1 c 1,45,46
 158 1 158 1 141.5 3.5 c 128,-1,47
 125 6 125 6 120 6 c 0,48,49
 103 6 103 6 89.5 4 c 128,-1,50
 76 2 76 2 68 1 c 1,51,52
 68 66 68 66 72.5 180.5 c 128,-1,53
 77 295 77 295 77 311 c 2,0,-1
EndSplineSet
EndChar
StartChar: acircumflex
Encoding: 226 226 101
Width: 467
Flags: W
LayerCount: 2
Fore
SplineSet
169 -11 m 0,0,1
 111 -11 111 -11 71 24 c 128,-1,2
 31 59 31 59 31 117 c 0,3,4
 31 197 31 197 76.5 218.5 c 128,-1,5
 122 240 122 240 218.5 262.5 c 128,-1,6
 315 285 315 285 320 323 c 1,7,8
 320 376 320 376 290.5 410 c 128,-1,9
 261 444 261 444 208 444 c 0,10,11
 168 444 168 444 138 423.5 c 128,-1,12
 108 403 108 403 90 366 c 1,13,-1
 69 375 l 1,14,-1
 75 426 l 1,15,16
 104 455 104 455 146 469.5 c 128,-1,17
 188 484 188 484 233 484 c 0,18,19
 320 484 320 484 360.5 448.5 c 128,-1,20
 401 413 401 413 401 328 c 2,21,-1
 401 96 l 2,22,23
 401 61 401 61 408.5 50 c 128,-1,24
 416 39 416 39 445 39 c 0,25,26
 463 39 463 39 472 42 c 1,27,-1
 472 19 l 1,28,29
 451 11 451 11 428 4.5 c 128,-1,30
 405 -2 405 -2 387 -4 c 1,31,32
 327 -4 327 -4 316 61 c 1,33,34
 280 25 280 25 247 7 c 128,-1,35
 214 -11 214 -11 169 -11 c 0,0,1
201 704 m 1,36,-1
 265 704 l 1,37,-1
 376 535 l 1,38,-1
 339 535 l 1,39,-1
 233 630 l 1,40,-1
 127 535 l 1,41,-1
 91 535 l 1,42,-1
 201 704 l 1,36,-1
127 134 m 0,43,44
 127 96 127 96 147.5 71 c 128,-1,45
 168 46 168 46 205 46 c 0,46,47
 247 46 247 46 281.5 77.5 c 128,-1,48
 316 109 316 109 316 153 c 2,49,-1
 316 249 l 1,50,51
 219 230 219 230 173 211.5 c 128,-1,52
 127 193 127 193 127 134 c 0,43,44
EndSplineSet
EndChar
StartChar: adieresis
Encoding: 228 228 102
Width: 467
Flags: W
LayerCount: 2
Fore
SplineSet
169 -11 m 0,0,1
 111 -11 111 -11 71 24 c 128,-1,2
 31 59 31 59 31 117 c 0,3,4
 31 197 31 197 76.5 218.5 c 128,-1,5
 122 240 122 240 218.5 262.5 c 128,-1,6
 315 285 315 285 320 323 c 1,7,8
 320 376 320 376 290.5 410 c 128,-1,9
 261 444 261 444 208 444 c 0,10,11
 168 444 168 444 138 423.5 c 128,-1,12
 108 403 108 403 90 366 c 1,13,-1
 69 375 l 1,14,-1
 75 426 l 1,15,16
 104 455 104 455 146 469.5 c 128,-1,17
 188 484 188 484 233 484 c 0,18,19
 320 484 320 484 360.5 448.5 c 128,-1,20
 401 413 401 413 401 328 c 2,21,-1
 401 96 l 2,22,23
 401 61 401 61 408.5 50 c 128,-1,24
 416 39 416 39 445 39 c 0,25,26
 463 39 463 39 472 42 c 1,27,-1
 472 19 l 1,28,29
 451 11 451 11 428 4.5 c 128,-1,30
 405 -2 405 -2 387 -4 c 1,31,32
 327 -4 327 -4 316 61 c 1,33,34
 280 25 280 25 247 7 c 128,-1,35
 214 -11 214 -11 169 -11 c 0,0,1
147 669 m 0,36,37
 168 669 168 669 184 653 c 128,-1,38
 200 637 200 637 200 615 c 0,39,40
 200 591 200 591 185.5 575.5 c 128,-1,41
 171 560 171 560 148 560 c 256,42,43
 125 560 125 560 108 576 c 128,-1,44
 91 592 91 592 91 615 c 0,45,46
 91 637 91 637 107 653 c 128,-1,47
 123 669 123 669 147 669 c 0,36,37
320 669 m 0,48,49
 343 669 343 669 359 653 c 128,-1,50
 375 637 375 637 375 615 c 0,51,52
 375 592 375 592 360 576 c 128,-1,53
 345 560 345 560 322 560 c 256,54,55
 299 560 299 560 282.5 576.5 c 128,-1,56
 266 593 266 593 266 615 c 256,57,58
 266 637 266 637 282 653 c 128,-1,59
 298 669 298 669 320 669 c 0,48,49
127 134 m 0,60,61
 127 96 127 96 147.5 71 c 128,-1,62
 168 46 168 46 205 46 c 0,63,64
 247 46 247 46 281.5 77.5 c 128,-1,65
 316 109 316 109 316 153 c 2,66,-1
 316 249 l 1,67,68
 219 230 219 230 173 211.5 c 128,-1,69
 127 193 127 193 127 134 c 0,60,61
EndSplineSet
EndChar
StartChar: ccedilla
Encoding: 231 231 102
Width: 464
Flags: HW
LayerCount: 2
Fore
SplineSet
438 86 m 1
 427 30 l 1
 406.333333333 14.6666666667 381.833333333 4 353.5 -2 c 128
 325.166666667 -8 294.666666667 -11 262 -11 c 0
 196.666666667 -11 140.833333333 11.8333333333 94.5 57.5 c 128
 48.1666666667 103.166666667 25 159.333333333 25 226 c 0
 25 306 48.6666666667 369 96 415 c 128
 143.333333333 461 207 484 287 484 c 0
 315 484 342.166666667 481 368.5 475 c 128
 394.833333333 469 419.666666667 459 443 445 c 1
 438.333333333 430.333333333 434.166666667 416 430.5 402 c 128
 426.833333333 388 423.666666667 372.333333333 421 355 c 1
 411 355 l 1
 400.333333333 384.333333333 385.333333333 407.166666667 366 423.5 c 128
 346.666666667 439.833333333 322.333333333 448 293 448 c 0
 239 448 197.833333333 427 169.5 385 c 128
 141.166666667 343 127 293.666666667 127 237 c 256
 127 180.333333333 142 131.666666667 172 91 c 128
 202 50.3333333333 244.333333333 30 299 30 c 0
 350.333333333 30 393 49.6666666667 427 89 c 1
 438 86 l 1
146 -153 m 1
 180 -169 215.666666667 -177 253 -177 c 0
 271 -177 286.166666667 -173.833333333 298.5 -167.5 c 128
 310.833333333 -161.166666667 317 -150 317 -134 c 0
 317 -120.666666667 312.5 -110.166666667 303.5 -102.5 c 128
 294.5 -94.8333333333 283 -91 269 -91 c 1
 233 -93 l 1
 233 0 l 1
 265 0 l 1
 265 -55 l 1
 292 -53 l 1
 317.333333333 -53 339 -60.1666666667 357 -74.5 c 128
 375 -88.8333333333 384 -108 384 -132 c 0
 384 -158 374.833333333 -178.833333333 356.5 -194.5 c 128
 338.166666667 -210.166666667 316 -218 290 -218 c 0
 258 -218 230.333333333 -216 207 -212 c 128
 183.666666667 -208 159 -200 133 -188 c 1
 146 -153 l 1
EndSplineSet
Validated: 5
EndChar
StartChar: egrave
Encoding: 232 232 104
Width: 490
Flags: HW
LayerCount: 2
Fore
SplineSet
293 30 m 0
 349 30 396 51 434 93 c 1
 448 91 l 1
 446 83 444 74.3333333333 442 65 c 128
 440 55.6666666667 439 45 439 33 c 1
 414.333333333 17.6666666667 387.333333333 6.5 358 -0.5 c 128
 328.666666667 -7.5 298 -11 266 -11 c 0
 194.666666667 -11 137.333333333 10.3333333333 94 53 c 128
 50.6666666667 95.6666666667 29 152.666666667 29 224 c 0
 29 294 49.6666666667 354.5 91 405.5 c 128
 132.333333333 456.5 187.333333333 482 256 482 c 0
 316.666666667 482 366.833333333 463.166666667 406.5 425.5 c 128
 446.166666667 387.833333333 466 338.666666667 466 278 c 1
 464 238 l 1
 424.666666667 238 375.333333333 238.5 316 239.5 c 128
 256.666666667 240.5 226.666666667 241 226 241 c 2
 129 239 l 1
 129 181.666666667 142.5 132.5 169.5 91.5 c 128
 196.5 50.5 237.666666667 30 293 30 c 0
293 535 m 1
 150 624 l 1
 138 630.666666667 128 637.666666667 120 645 c 128
 112 652.333333333 108 661.666666667 108 673 c 0
 108 680.333333333 112.333333333 688.333333333 121 697 c 128
 129.666666667 705.666666667 138 710 146 710 c 0
 154.666666667 710 164.5 706 175.5 698 c 128
 186.5 690 193.666666667 684.333333333 197 681 c 2
 329 535 l 1
 293 535 l 1
370 282 m 1
 370 315 l 2
 370 349.666666667 359.666666667 380 339 406 c 128
 318.333333333 432 291 445 257 445 c 0
 216.333333333 445 186.833333333 429.333333333 168.5 398 c 128
 150.166666667 366.666666667 138 327.666666667 132 281 c 1
 370 282 l 1
EndSplineSet
Validated: 1
EndChar
StartChar: edieresis
Encoding: 235 235 106
Width: 490
Flags: HW
LayerCount: 2
Fore
SplineSet
293 30 m 0
 349 30 396 51 434 93 c 1
 448 91 l 1
 446 83 444 74.3333333333 442 65 c 128
 440 55.6666666667 439 45 439 33 c 1
 414.333333333 17.6666666667 387.333333333 6.5 358 -0.5 c 128
 328.666666667 -7.5 298 -11 266 -11 c 0
 194.666666667 -11 137.333333333 10.3333333333 94 53 c 128
 50.6666666667 95.6666666667 29 152.666666667 29 224 c 0
 29 294 49.6666666667 354.5 91 405.5 c 128
 132.333333333 456.5 187.333333333 482 256 482 c 0
 316.666666667 482 366.833333333 463.166666667 406.5 425.5 c 128
 446.166666667 387.833333333 466 338.666666667 466 278 c 1
 464 238 l 1
 424.666666667 238 375.333333333 238.5 316 239.5 c 128
 256.666666667 240.5 226.666666667 241 226 241 c 2
 129 239 l 1
 129 181.666666667 142.5 132.5 169.5 91.5 c 128
 196.5 50.5 237.666666667 30 293 30 c 0
158 669 m 0
 172.666666667 669 185.333333333 663.666666667 196 653 c 128
 206.666666667 642.333333333 212 629.666666667 212 615 c 0
 212 599.666666667 207 586.666666667 197 576 c 128
 187 565.333333333 174.666666667 560 160 560 c 0
 144.666666667 560 131.333333333 565.333333333 120 576 c 128
 108.666666667 586.666666667 103 599.666666667 103 615 c 0
 103 629.666666667 108.333333333 642.333333333 119 653 c 128
 129.666666667 663.666666667 142.666666667 669 158 669 c 0
332 669 m 0
 347.333333333 669 360 663.666666667 370 653 c 128
 380 642.333333333 385 629.666666667 385 615 c 0
 385 599 380.166666667 585.833333333 370.5 575.5 c 128
 360.833333333 565.166666667 348.333333333 560 333 560 c 256
 317.666666667 560 304.666666667 565.333333333 294 576 c 128
 283.333333333 586.666666667 278 599.666666667 278 615 c 0
 278 629.666666667 283.333333333 642.333333333 294 653 c 128
 304.666666667 663.666666667 317.333333333 669 332 669 c 0
370 282 m 1
 370 315 l 2
 370 349.666666667 359.666666667 380 339 406 c 128
 318.333333333 432 291 445 257 445 c 0
 216.333333333 445 186.833333333 429.333333333 168.5 398 c 128
 150.166666667 366.666666667 138 327.666666667 132 281 c 1
 370 282 l 1
EndSplineSet
Validated: 1
EndChar
StartChar: icircumflex
Encoding: 238 238 109
Width: 245
Flags: HW
LayerCount: 2
Fore
SplineSet
74 104 m 1
 75 376 l 1
 69 472 l 1
 77 470 87 468.666666667 99 468 c 128
 111 467.333333333 118 467 120 467 c 0
 139.333333333 467 155.333333333 468.666666667 168 472 c 1
 164 436.666666667 162 401 162 365 c 0
 162 325 163 264.333333333 165 183 c 128
 167 101.666666667 168 40.6666666667 168 0 c 1
 160 0.666666666667 152.333333333 1.5 145 2.5 c 128
 137.666666667 3.5 128.666666667 4 118 4 c 0
 109.333333333 4 100.333333333 3.5 91 2.5 c 128
 81.6666666667 1.5 74.3333333333 0.666666666667 69 0 c 1
 74 104 l 1
90 704 m 1
 154 704 l 1
 263 535 l 1
 230 535 l 1
 123 630 l 1
 17 535 l 1
 -18 535 l 1
 90 704 l 1
EndSplineSet
Validated: 1
EndChar
StartChar: idieresis
Encoding: 239 239 110
Width: 245
Flags: HW
LayerCount: 2
Fore
SplineSet
74 104 m 1
 75 376 l 1
 69 472 l 1
 77 470 87 468.666666667 99 468 c 128
 111 467.333333333 118 467 120 467 c 0
 139.333333333 467 155.333333333 468.666666667 168 472 c 1
 164 436.666666667 162 401 162 365 c 0
 162 325 163 264.333333333 165 183 c 128
 167 101.666666667 168 40.6666666667 168 0 c 1
 160 0.666666666667 152.333333333 1.5 145 2.5 c 128
 137.666666667 3.5 128.666666667 4 118 4 c 0
 108 4 99.3333333333 3.5 92 2.5 c 128
 84.6666666667 1.5 77 0.666666666667 69 0 c 1
 74 104 l 1
36 669 m 0
 50.6666666667 669 63.3333333333 663.666666667 74 653 c 128
 84.6666666667 642.333333333 90 629.666666667 90 615 c 0
 90 599 85.1666666667 585.833333333 75.5 575.5 c 128
 65.8333333333 565.166666667 53.3333333333 560 38 560 c 0
 22 560 8.66666666667 565.333333333 -2 576 c 128
 -12.6666666667 586.666666667 -18 599.666666667 -18 615 c 0
 -18 629.666666667 -13 642.333333333 -3 653 c 128
 7 663.666666667 20 669 36 669 c 0
209 669 m 0
 223.666666667 669 236.333333333 663.666666667 247 653 c 128
 257.666666667 642.333333333 263 629.666666667 263 615 c 0
 263 599 258.166666667 585.833333333 248.5 575.5 c 128
 238.833333333 565.166666667 226.666666667 560 212 560 c 0
 196 560 182.666666667 565.333333333 172 576 c 128
 161.333333333 586.666666667 156 599.666666667 156 615 c 0
 156 629.666666667 161 642.333333333 171 653 c 128
 181 663.666666667 193.666666667 669 209 669 c 0
EndSplineSet
Validated: 1
EndChar
StartChar: ocircumflex
Encoding: 244 244 116
Width: 542
Flags: W
LayerCount: 2
Fore
SplineSet
268 -11 m 0,0,1
 161 -11 161 -11 95 57 c 128,-1,2
 29 125 29 125 29 232 c 0,3,4
 29 341 29 341 96.5 412.5 c 128,-1,5
 164 484 164 484 274 484 c 0,6,7
 382 484 382 484 447.5 414.5 c 128,-1,8
 513 345 513 345 513 236 c 0,9,10
 513 126 513 126 446.5 57.5 c 128,-1,11
 380 -11 380 -11 268 -11 c 0,0,1
239 704 m 1,12,-1
 303 704 l 1,13,-1
 412 535 l 1,14,-1
 378 535 l 1,15,-1
 271 630 l 1,16,-1
 165 535 l 1,17,-1
 130 535 l 1,18,-1
 239 704 l 1,12,-1
272 448 m 256,19,20
 198 448 198 448 164 383.5 c 128,-1,21
 130 319 130 319 130 236 c 0,22,23
 130 156 130 156 164 90.5 c 128,-1,24
 198 25 198 25 271 25 c 0,25,26
 345 25 345 25 378 89.5 c 128,-1,27
 411 154 411 154 411 236 c 256,28,29
 411 318 411 318 378.5 383 c 128,-1,30
 346 448 346 448 272 448 c 256,19,20
EndSplineSet
EndChar
StartChar: odieresis
Encoding: 246 246 114
Width: 542
Flags: HW
LayerCount: 2
Fore
SplineSet
268 -11 m 0
 196.666666667 -11 139 11.6666666667 95 57 c 128
 51 102.333333333 29 160.666666667 29 232 c 0
 29 304.666666667 51.5 364.833333333 96.5 412.5 c 128
 141.5 460.166666667 200.666666667 484 274 484 c 0
 346 484 403.833333333 460.833333333 447.5 414.5 c 128
 491.166666667 368.166666667 513 308.666666667 513 236 c 0
 513 162.666666667 490.833333333 103.166666667 446.5 57.5 c 128
 402.166666667 11.8333333333 342.666666667 -11 268 -11 c 0
183 669 m 256
 198.333333333 669 211.333333333 663.666666667 222 653 c 128
 232.666666667 642.333333333 238 629.666666667 238 615 c 0
 238 599.666666667 233 586.666666667 223 576 c 128
 213 565.333333333 200.666666667 560 186 560 c 0
 170.666666667 560 157.5 565.5 146.5 576.5 c 128
 135.5 587.5 130 600.333333333 130 615 c 256
 130 629.666666667 135 642.333333333 145 653 c 128
 155 663.666666667 167.666666667 669 183 669 c 256
359 669 m 0
 373 669 385.333333333 663.666666667 396 653 c 128
 406.666666667 642.333333333 412 629.666666667 412 615 c 0
 412 599 407.166666667 585.833333333 397.5 575.5 c 128
 387.833333333 565.166666667 375.333333333 560 360 560 c 0
 344 560 330.666666667 565.333333333 320 576 c 128
 309.333333333 586.666666667 304 599.666666667 304 615 c 0
 304 629.666666667 309.333333333 642.333333333 320 653 c 128
 330.666666667 663.666666667 343.666666667 669 359 669 c 0
272 448 m 256
 222.666666667 448 186.666666667 426.5 164 383.5 c 128
 141.333333333 340.5 130 291.333333333 130 236 c 0
 130 182.666666667 141.333333333 134.166666667 164 90.5 c 128
 186.666666667 46.8333333333 222.333333333 25 271 25 c 0
 320.333333333 25 356 46.5 378 89.5 c 128
 400 132.5 411 181.333333333 411 236 c 256
 411 290.666666667 400.166666667 339.666666667 378.5 383 c 128
 356.833333333 426.333333333 321.333333333 448 272 448 c 256
EndSplineSet
Validated: 1
EndChar
StartChar: divide
Encoding: 247 247 138
Width: 820
Flags: HW
LayerCount: 2
Fore
SplineSet
462 463 m 0
 462 449.666666667 456.666666667 437.666666667 446 427 c 128
 435.333333333 416.333333333 422.666666667 411 408 411 c 0
 394.666666667 411 383.166666667 416.166666667 373.5 426.5 c 128
 363.833333333 436.833333333 359 449 359 463 c 0
 359 476.333333333 364 488.333333333 374 499 c 128
 384 509.666666667 395.666666667 515 409 515 c 0
 415 515 425.333333333 512.166666667 440 506.5 c 128
 454.666666667 500.833333333 462 486.333333333 462 463 c 0
698 269 m 1
 122 269 l 1
 122 317 l 1
 698 317 l 1
 698 269 l 1
461 123 m 0
 461 109 456 97 446 87 c 128
 436 77 424.333333333 72 411 72 c 0
 396.333333333 72 384 77 374 87 c 128
 364 97 359 109 359 123 c 256
 359 137 363.833333333 149.166666667 373.5 159.5 c 128
 383.166666667 169.833333333 395 175 409 175 c 0
 417 175 425.666666667 173.166666667 435 169.5 c 128
 444.333333333 165.833333333 451 160.833333333 455 154.5 c 128
 459 148.166666667 461 137.666666667 461 123 c 0
EndSplineSet
Validated: 1
EndChar
StartChar: ugrave
Encoding: 249 249 115
Width: 543
Flags: HW
LayerCount: 2
Fore
SplineSet
472 359 m 0
 472 332.333333333 471.666666667 291.666666667 471 237 c 128
 470.333333333 182.333333333 470 141.333333333 470 114 c 0
 470 77.3333333333 472.666666667 39.3333333333 478 0 c 1
 470 0.666666666667 462.333333333 1.5 455 2.5 c 128
 447.666666667 3.5 439.666666667 4 431 4 c 0
 423.666666667 4 415.333333333 3.5 406 2.5 c 128
 396.666666667 1.5 389.333333333 0.666666666667 384 0 c 1
 387 85 l 1
 366.333333333 53.6666666667 342.833333333 29.8333333333 316.5 13.5 c 128
 290.166666667 -2.83333333333 259.666666667 -11 225 -11 c 0
 171.666666667 -11 132.333333333 4.66666666667 107 36 c 128
 81.6666666667 67.3333333333 69 110.333333333 69 165 c 2
 69 255 l 1
 68 372 l 1
 65 472 l 1
 71.6666666667 470 78.8333333333 468.666666667 86.5 468 c 128
 94.1666666667 467.333333333 103.333333333 467 114 467 c 0
 122 467 130.166666667 467.333333333 138.5 468 c 128
 146.833333333 468.666666667 155 470 163 472 c 1
 163 441.333333333 161.333333333 391 158 321 c 128
 154.666666667 251 153 203.333333333 153 178 c 0
 153 138 161.166666667 106.5 177.5 83.5 c 128
 193.833333333 60.5 221.333333333 49 260 49 c 0
 291.333333333 49 318.5 60 341.5 82 c 128
 364.5 104 377.5 128.833333333 380.5 156.5 c 128
 383.5 184.166666667 385 213.666666667 385 245 c 0
 385 271 384.333333333 314.333333333 383 375 c 128
 381.666666667 435.666666667 381 468 381 472 c 1
 390.333333333 470 398.166666667 468.666666667 404.5 468 c 128
 410.833333333 467.333333333 419.333333333 467 430 467 c 0
 445.333333333 467 461.333333333 468.666666667 478 472 c 1
 474 432.666666667 472 395 472 359 c 0
320 535 m 1
 176 624 l 1
 166 629.333333333 156.666666667 636.5 148 645.5 c 128
 139.333333333 654.5 135 663.666666667 135 673 c 0
 135 683 138.666666667 691.666666667 146 699 c 128
 153.333333333 706.333333333 162 710 172 710 c 0
 180.666666667 710 190 707 200 701 c 128
 210 695 217.666666667 688.333333333 223 681 c 1
 357 535 l 1
 320 535 l 1
EndSplineSet
EndChar
StartChar: dotlessi
Encoding: 305 305 222
Width: 246
Flags: W
HStem: 0 21G<69.9615 71 164 168> 451 20G<70.25 78 162.667 167>
VStem: 75 86<1.4574 465.942>
AnchorPoint: "circum" 119 532 basechar 0
AnchorPoint: "above" 119 532 basechar 0
LayerCount: 2
Fore
SplineSet
74 104 m 1
 75 375 l 1
 69 471 l 1
 87 467.666666667 103.666666667 466 119 466 c 0
 129 466 137 466.333333333 143 467 c 0
 149 467.666666667 157.333333333 469 168 471 c 1
 166 453 164.333333333 435.166666667 163 417.5 c 0
 161.666666667 399.833333333 161 382 161 364 c 0
 161 322 162.166666667 258.5 164.5 173.5 c 0
 166.833333333 88.5 168 30.6666666667 168 0 c 1
 160 0.666666666667 152.333333333 1.5 145 2.5 c 0
 137.666666667 3.5 129 4 119 4 c 0
 105 4 94.1666666667 3.33333333333 86.5 2 c 0
 78.8333333333 0.666666666667 73 0 69 0 c 1
 74 104 l 1
EndSplineSet
EndChar
StartChar: oe
Encoding: 339 339 135
Width: 883
Flags: W
LayerCount: 2
Fore
SplineSet
259 -10 m 0,0,1
 153 -10 153 -10 90.5 55.5 c 128,-1,2
 28 121 28 121 28 229 c 0,3,4
 28 338 28 338 90.5 410 c 128,-1,5
 153 482 153 482 261 482 c 0,6,7
 318 482 318 482 371 459 c 128,-1,8
 424 436 424 436 462 395 c 1,9,10
 534 484 534 484 646 484 c 0,11,12
 738 484 738 484 799.5 427 c 128,-1,13
 861 370 861 370 861 279 c 1,14,-1
 859 238 l 1,15,16
 798 238 798 238 736 239 c 128,-1,17
 674 240 674 240 613 241 c 1,18,-1
 510 239 l 1,19,20
 510 149 510 149 551 89.5 c 128,-1,21
 592 30 592 30 680 30 c 0,22,23
 769 30 769 30 825 93 c 1,24,-1
 837 91 l 1,25,26
 834 77 834 77 832 59.5 c 128,-1,27
 830 42 830 42 829 33 c 1,28,29
 792 10 792 10 746.5 -0.5 c 128,-1,30
 701 -11 701 -11 651 -11 c 0,31,32
 590 -11 590 -11 543 9 c 128,-1,33
 496 29 496 29 462 76 c 1,34,35
 421 32 421 32 370.5 11 c 128,-1,36
 320 -10 320 -10 259 -10 c 0,0,1
271 448 m 0,37,38
 195 448 195 448 162 383 c 128,-1,39
 129 318 129 318 129 236 c 0,40,41
 129 155 129 155 161.5 90 c 128,-1,42
 194 25 194 25 266 25 c 0,43,44
 339 25 339 25 376 92 c 128,-1,45
 413 159 413 159 413 236 c 0,46,47
 413 318 413 318 379.5 383 c 128,-1,48
 346 448 346 448 271 448 c 0,37,38
764 282 m 1,49,-1
 764 305 l 2,50,51
 764 363 764 363 732.5 404 c 128,-1,52
 701 445 701 445 644 445 c 0,53,54
 580 445 580 445 545 395.5 c 128,-1,55
 510 346 510 346 510 281 c 1,56,-1
 764 282 l 1,49,-1
EndSplineSet
EndChar
StartChar: longs
Encoding: 383 383 318
Width: 286
Flags: HW
LayerCount: 2
Fore
SplineSet
178 430 m 17
 178 264 l 2
 178 234.666666667 179 190.666666667 181 132 c 128
 183 73.3333333333 184 29.3333333333 184 0 c 1
 176.666666667 0 166.833333333 0.833333333333 154.5 2.5 c 128
 142.166666667 4.16666666667 135 5 133 5 c 0
 122.333333333 5 112.833333333 4.33333333333 104.5 3 c 128
 96.1666666667 1.66666666667 89.3333333333 0.666666666667 84 0 c 1
 84 25.3333333333 85.3333333333 64 88 116 c 128
 90.6666666667 168 92 207.333333333 92 234 c 2
 92 430 l 9
 92 466 l 17
 92 528.666666667 107.666666667 589.666666667 139 649 c 128
 170.333333333 708.333333333 215 738 273 738 c 0
 283.666666667 738 291.166666667 737.333333333 295.5 736 c 128
 299.833333333 734.666666667 305.333333333 733 312 731 c 1
 300 645 l 1
 290 649.666666667 279.333333333 653.5 268 656.5 c 128
 256.666666667 659.5 245.666666667 661 235 661 c 0
 212.333333333 661 194.833333333 653.5 182.5 638.5 c 128
 170.166666667 623.5 164 604 164 580 c 0
 164 558.666666667 166 536.5 170 513.5 c 128
 174 490.5 176.666666667 474.666666667 178 466 c 1
 178 430 l 17
EndSplineSet
EndChar
StartChar: uni0237
Encoding: 567 567 223
Width: 246
Flags: W
HStem: -268 28<-40 14.6582> 451 20G<72 80.6667 167.667 174>
VStem: 81 88<-171.597 465.445>
AnchorPoint: "above" 119 532 basechar 0
AnchorPoint: "circum" 119 532 basechar 0
LayerCount: 2
Fore
SplineSet
81 282 m 2
 81 307.333333333 79.5 343.666666667 76.5 391 c 0
 73.5 438.333333333 72 465 72 471 c 1
 89.3333333333 467.666666667 100.166666667 466 104.5 466 c 0
 111 466 111 466 121 466 c 0
 131.666666667 466 140 466.333333333 146 467 c 0
 152 467.666666667 161.333333333 469 174 471 c 1
 174 443 173.166666667 407.833333333 171.5 365.5 c 0
 169.833333333 323.166666667 169 298.666666667 169 292 c 2
 169 -10 l 1
 168 -79 l 1
 168 -139 148.833333333 -185.5 110.5 -218.5 c 0
 72.1666666667 -251.5 22 -268 -40 -268 c 1
 -40 -240 l 1
 7.33333333333 -235.333333333 39.1666666667 -219.666666667 55.5 -193 c 0
 71.8333333333 -166.333333333 80 -127 80 -75 c 1
 81 -19 l 1
 81 282 l 2
EndSplineSet
EndChar
StartChar: gravecomb
Encoding: 768 768 224
Width: 0
Flags: W
HStem: 535 175
VStem: 0 221
AnchorPoint: "above" 185 535 mark 0
LayerCount: 2
Fore
SplineSet
185 535 m 1
 42 624 l 1
 30 630.666992188 20 637.666992188 12 645 c 0
 4 652.333007812 0 661.666992188 0 673 c 0
 0 680.333007812 4.3330078125 688.333007812 13 697 c 0
 21.6669921875 705.666992188 30 710 38 710 c 0
 46.6669921875 710 56.5 706 67.5 698 c 0
 78.5 690 85.6669921875 684.333007812 89 681 c 2
 221 535 l 1
 185 535 l 1
EndSplineSet
EndChar
StartChar: acutecomb
Encoding: 769 769 225
Width: 0
Flags: W
HStem: 535 175
VStem: 0 221
AnchorPoint: "above" 36 535 mark 0
LayerCount: 2
Fore
SplineSet
133 681 m 2
 141.666992188 691 149.666992188 698.333007812 157 703 c 0
 164.333007812 707.666992188 173.333007812 710 184 710 c 0
 208.666992188 710 221 697.666992188 221 673 c 0
 221 662.333007812 217.333007812 653 210 645 c 0
 202.666992188 637 192.666992188 630 180 624 c 1
 36 535 l 1
 0 535 l 1
 133 681 l 2
EndSplineSet
EndChar
StartChar: uni0302
Encoding: 770 770 226
Width: 0
Flags: HWO
HStem: 535 169
VStem: 103 284
AnchorPoint: "circum" 142 532 mark 0
LayerCount: 2
Fore
SplineSet
110 704 m 1
 175 704 l 1
 284 535 l 1
 249 535 l 1
 142 630 l 1
 36 535 l 1
 0 535 l 1
 110 704 l 1
EndSplineSet
EndChar
StartChar: uni0307
Encoding: 775 775 229
Width: 0
Flags: W
HStem: 585 108<17.0172 95.498>
VStem: 0 112<599.955 675.982>
AnchorPoint: "above" 56 582 mark 0
LayerCount: 2
Fore
SplineSet
56 693 m 256
 72.6669921875 693 86.1669921875 687.5 96.5 676.5 c 0
 106.833007812 665.5 112 651.333007812 112 634 c 0
 112 618.666992188 106.666992188 606.666992188 96 598 c 0
 85.3330078125 589.333007812 72 585 56 585 c 0
 40.6669921875 585 27.5 589.833007812 16.5 599.5 c 0
 5.5 609.166992188 0 621.666992188 0 637 c 0
 0 653.666992188 5.1669921875 667.166992188 15.5 677.5 c 0
 25.8330078125 687.833007812 39.3330078125 693 56 693 c 256
EndSplineSet
EndChar
StartChar: uni0308
Encoding: 776 776 227
Width: 0
Flags: W
HStem: 560 109<17.5327 94.0448 186.816 267.498>
VStem: 0 109<576.502 652.499> 175 109<576.502 652.499>
AnchorPoint: "above" 144 532 mark 0
LayerCount: 2
Fore
SplineSet
56 669 m 0
 70 669 82.3330078125 663.666992188 93 653 c 0
 103.666992188 642.333007812 109 629.666992188 109 615 c 0
 109 599 104.166992188 585.833007812 94.5 575.5 c 0
 84.8330078125 565.166992188 72.3330078125 560 57 560 c 256
 41.6669921875 560 28.3330078125 565.333007812 17 576 c 0
 5.6669921875 586.666992188 0 599.666992188 0 615 c 0
 0 629.666992188 5.3330078125 642.333007812 16 653 c 0
 26.6669921875 663.666992188 40 669 56 669 c 0
229 669 m 0
 244.333007812 669 257.333007812 663.666992188 268 653 c 0
 278.666992188 642.333007812 284 629.666992188 284 615 c 0
 284 599.666992188 279 586.666992188 269 576 c 0
 259 565.333007812 246.333007812 560 231 560 c 256
 215.666992188 560 202.5 565.5 191.5 576.5 c 0
 180.5 587.5 175 600.333007812 175 615 c 256
 175 629.666992188 180.333007812 642.333007812 191 653 c 0
 201.666992188 663.666992188 214.333007812 669 229 669 c 0
EndSplineSet
EndChar
StartChar: uni0327
Encoding: 807 807 228
Width: 0
Flags: HW
AnchorPoint: "tails" 116 -10 mark 0
LayerCount: 2
Fore
SplineSet
13 -153 m 1
 47 -169 82.6669921875 -177 120 -177 c 0
 138 -177 153.166992188 -173.833007812 165.5 -167.5 c 128
 177.833007812 -161.166992188 184 -150 184 -134 c 0
 184 -120.666992188 179.5 -110.166992188 170.5 -102.5 c 128
 161.5 -94.8330078125 150 -91 136 -91 c 1
 100 -93 l 1
 100 0 l 1
 132 0 l 1
 132 -55 l 1
 159 -53 l 1
 184.333007812 -53 206 -60.1669921875 224 -74.5 c 128
 242 -88.8330078125 251 -108 251 -132 c 0
 251 -158 241.833007812 -178.833007812 223.5 -194.5 c 128
 205.166992188 -210.166992188 183 -218 157 -218 c 0
 125 -218 97.3330078125 -216 74 -212 c 128
 50.6669921875 -208 26 -200 0 -188 c 1
 13 -153 l 1
EndSplineSet
EndChar
StartChar: uni0386
Encoding: 902 902 176
Width: 645
Flags: HW
LayerCount: 2
Fore
SplineSet
237 460 m 2
 331 684 l 1
 333.666666667 682.666666667 341 681.333333333 353 680 c 1
 361.666666667 680 369.666666667 681.333333333 377 684 c 1
 415 586 446.833333333 505.166666667 472.5 441.5 c 128
 498.166666667 377.833333333 525.833333333 310.166666667 555.5 238.5 c 128
 585.166666667 166.833333333 618.666666667 87.3333333333 656 0 c 1
 646.666666667 0 634.333333333 0.833333333333 619 2.5 c 128
 603.666666667 4.16666666667 595 5 593 5 c 0
 579.666666667 5 567.5 4.33333333333 556.5 3 c 128
 545.5 1.66666666667 536.666666667 0.666666666667 530 0 c 1
 509.333333333 65.3333333333 494.166666667 112.333333333 484.5 141 c 128
 474.833333333 169.666666667 460.666666667 207.666666667 442 255 c 1
 324 258 l 1
 206 255 l 1
 168 148 l 2
 149.333333333 94.6666666667 135 45.3333333333 125 0 c 1
 84 4 l 1
 72 4 62.5 3.33333333333 55.5 2 c 128
 48.5 0.666666666667 43.3333333333 0 40 0 c 1
 62 50.6666666667 84 101.5 106 152.5 c 128
 128 203.5 147.833333333 249.666666667 165.5 291 c 128
 183.166666667 332.333333333 207 388.666666667 237 460 c 2
141 679 m 2
 149.666666667 689 157.666666667 696.5 165 701.5 c 128
 172.333333333 706.5 181 709 191 709 c 0
 201.666666667 709 210.666666667 705.333333333 218 698 c 128
 225.333333333 690.666666667 229 681.666666667 229 671 c 0
 229 661 225.5 652.5 218.5 645.5 c 128
 211.5 638.5 201.333333333 631.333333333 188 624 c 1
 44 535 l 1
 9 535 l 1
 141 679 l 2
324 302 m 1
 421 306 l 1
 325 548 l 1
 229 306 l 1
 324 302 l 1
EndSplineSet
Validated: 1
EndChar
StartChar: uni0388
Encoding: 904 904 218
Width: 714
Flags: W
LayerCount: 2
Fore
SplineSet
311 335 m 0,0,1
 311 447 311 447 308.5 512.5 c 128,-1,2
 306 578 306 578 298 671 c 1,3,-1
 475 668 l 1,4,-1
 660 671 l 1,5,-1
 657 637 l 1,6,-1
 660 602 l 1,7,8
 625 610 625 610 586 614.5 c 128,-1,9
 547 619 547 619 514 619 c 2,10,-1
 408 619 l 1,11,-1
 406 483 l 1,12,-1
 406 380 l 1,13,-1
 507 380 l 2,14,15
 566 380 566 380 643 390 c 1,16,-1
 641 358 l 1,17,-1
 643 325 l 1,18,-1
 504 333 l 1,19,-1
 406 333 l 1,20,-1
 406 228 l 1,21,-1
 410 53 l 1,22,23
 494 53 494 53 548.5 55.5 c 128,-1,24
 603 58 603 58 662 68 c 1,25,-1
 660 34 l 1,26,-1
 662 0 l 1,27,-1
 478 3 l 1,28,-1
 298 0 l 1,29,30
 298 51 298 51 304.5 172.5 c 128,-1,31
 311 294 311 294 311 335 c 0,0,1
131 679 m 2,32,33
 144 694 144 694 155 701.5 c 128,-1,34
 166 709 166 709 181 709 c 0,35,36
 197 709 197 709 208 698 c 128,-1,37
 219 687 219 687 219 671 c 0,38,39
 219 656 219 656 208.5 645.5 c 128,-1,40
 198 635 198 635 178 624 c 1,41,-1
 34 535 l 1,42,-1
 -1 535 l 1,43,-1
 131 679 l 2,32,33
EndSplineSet
EndChar
StartChar: uni0389
Encoding: 905 905 216
Width: 966
Flags: HW
LayerCount: 2
Fore
SplineSet
406 228 m 2
 406 198 407.166666667 156.166666667 409.5 102.5 c 128
 411.833333333 48.8333333333 413 14.6666666667 413 0 c 1
 407 0 397.666666667 1 385 3 c 128
 372.333333333 5 362.666666667 6 356 6 c 256
 349.333333333 6 339.666666667 5 327 3 c 128
 314.333333333 1 304.666666667 0 298 0 c 1
 298 34 300.166666667 91.5 304.5 172.5 c 128
 308.833333333 253.5 311 307.666666667 311 335 c 0
 311 409.666666667 310.166666667 468.833333333 308.5 512.5 c 128
 306.833333333 556.166666667 303.333333333 609 298 671 c 1
 306 671 317 670.166666667 331 668.5 c 128
 345 666.833333333 353.333333333 666 356 666 c 0
 363.333333333 666 373.666666667 666.833333333 387 668.5 c 128
 400.333333333 670.166666667 409 671 413 671 c 1
 413 633.666666667 411.833333333 582.666666667 409.5 518 c 128
 407.166666667 453.333333333 406 412 406 394 c 1
 593 391 l 1
 780 394 l 1
 780 439.333333333 779 496.666666667 777 566 c 128
 775 635.333333333 774 670.333333333 774 671 c 1
 782 671 792.833333333 670.166666667 806.5 668.5 c 128
 820.166666667 666.833333333 828.333333333 666 831 666 c 0
 839 666 850 666.833333333 864 668.5 c 128
 878 670.166666667 886 671 888 671 c 1
 884.666666667 640.333333333 882 608.333333333 880 575 c 128
 878 541.666666667 877 508.333333333 877 475 c 2
 875 323 l 1
 877 204 l 2
 877 182.666666667 878.833333333 147.166666667 882.5 97.5 c 128
 886.166666667 47.8333333333 888 15.3333333333 888 0 c 1
 882 0 872.666666667 1 860 3 c 128
 847.333333333 5 837.666666667 6 831 6 c 256
 824.333333333 6 814.666666667 5 802 3 c 128
 789.333333333 1 780 0 774 0 c 1
 774 18 774.833333333 42.1666666667 776.5 72.5 c 128
 778.166666667 102.833333333 779 121 779 127 c 2
 780 228 l 1
 780 335 l 1
 752.666666667 335 711.333333333 335.333333333 656 336 c 128
 600.666666667 336.666666667 559 337 531 337 c 2
 406 335 l 1
 406 228 l 2
131 679 m 2
 139.666666667 689 147.666666667 696.5 155 701.5 c 128
 162.333333333 706.5 171 709 181 709 c 0
 191.666666667 709 200.666666667 705.333333333 208 698 c 128
 215.333333333 690.666666667 219 681.666666667 219 671 c 0
 219 661 215.5 652.5 208.5 645.5 c 128
 201.5 638.5 191.333333333 631.333333333 178 624 c 1
 34 535 l 1
 -1 535 l 1
 131 679 l 2
EndSplineSet
Validated: 1
EndChar
StartChar: uni038A
Encoding: 906 906 217
Width: 497
Flags: HW
LayerCount: 2
Fore
SplineSet
312 335 m 0
 312 409.666666667 311.166666667 468.833333333 309.5 512.5 c 128
 307.833333333 556.166666667 304.333333333 609 299 671 c 1
 309 669.666666667 320.166666667 668.5 332.5 667.5 c 128
 344.833333333 666.5 353.666666667 666 359 666 c 0
 368.333333333 666 380 666.833333333 394 668.5 c 128
 408 670.166666667 416 671 418 671 c 1
 418 649.666666667 416.166666667 615.333333333 412.5 568 c 128
 408.833333333 520.666666667 407 489.666666667 407 475 c 2
 405 323 l 1
 407 204 l 2
 407 182.666666667 408.833333333 147.166666667 412.5 97.5 c 128
 416.166666667 47.8333333333 418 15.3333333333 418 0 c 1
 412 0 402.333333333 1 389 3 c 128
 375.666666667 5 365.666666667 6 359 6 c 0
 350.333333333 6 340.666666667 5.33333333333 330 4 c 128
 319.333333333 2.66666666667 309 1.33333333333 299 0 c 1
 299 34 301.166666667 91.5 305.5 172.5 c 128
 309.833333333 253.5 312 307.666666667 312 335 c 0
131 679 m 2
 139.666666667 689 147.666666667 696.5 155 701.5 c 128
 162.333333333 706.5 171 709 181 709 c 0
 191.666666667 709 200.666666667 705.333333333 208 698 c 128
 215.333333333 690.666666667 219 681.666666667 219 671 c 0
 219 661 215.5 652.5 208.5 645.5 c 128
 201.5 638.5 191.333333333 631.333333333 178 624 c 1
 34 535 l 1
 -1 535 l 1
 131 679 l 2
EndSplineSet
Validated: 1
EndChar
StartChar: uni038C
Encoding: 908 908 178
Width: 976
Flags: HW
LayerCount: 2
Fore
SplineSet
207 335 m 0
 207 443 240.833333333 528.166666667 308.5 590.5 c 128
 376.166666667 652.833333333 464.333333333 684 573 684 c 0
 666.333333333 684 746.333333333 660.833333333 813 614.5 c 128
 879.666666667 568.166666667 916.666666667 520.333333333 924 471 c 128
 931.333333333 421.666666667 935.666666667 390.833333333 937 378.5 c 128
 938.333333333 366.166666667 939 351 939 333 c 0
 939 315.666666667 938.333333333 301.333333333 937 290 c 128
 935.666666667 278.666666667 931.333333333 248.5 924 199.5 c 128
 916.666666667 150.5 880 103.166666667 814 57.5 c 128
 748 11.8333333333 668 -11 574 -11 c 0
 543.333333333 -11 516.166666667 -9.83333333333 492.5 -7.5 c 128
 468.833333333 -5.16666666667 434.5 4.33333333333 389.5 21 c 128
 344.5 37.6666666667 302.833333333 75.3333333333 264.5 134 c 128
 226.166666667 192.666666667 207 259.666666667 207 335 c 0
131 679 m 2
 139.666666667 689 147.666666667 696.5 155 701.5 c 128
 162.333333333 706.5 171 709 181 709 c 0
 191.666666667 709 200.666666667 705.333333333 208 698 c 128
 215.333333333 690.666666667 219 681.666666667 219 671 c 0
 219 661 215.5 652.5 208.5 645.5 c 128
 201.5 638.5 191.333333333 631.333333333 178 624 c 1
 34 535 l 1
 -1 535 l 1
 131 679 l 2
316 337 m 0
 316 247.666666667 337.333333333 174.166666667 380 116.5 c 128
 422.666666667 58.8333333333 487 30 573 30 c 256
 659 30 723.166666667 59 765.5 117 c 128
 807.833333333 175 829 248.333333333 829 337 c 0
 829 425 807.5 497.5 764.5 554.5 c 128
 721.5 611.5 657.666666667 640 573 640 c 0
 511 640 460.5 625 421.5 595 c 128
 382.5 565 353 520 333 460 c 1
 321.666666667 418.666666667 316 377.666666667 316 337 c 0
EndSplineSet
Validated: 1
EndChar
StartChar: uni038E
Encoding: 910 910 179
Width: 839
Flags: HW
LayerCount: 2
Fore
SplineSet
544 128 m 2
 545 278 l 1
 525.666666667 312.666666667 500.166666667 356.833333333 468.5 410.5 c 128
 436.833333333 464.166666667 411 507.5 391 540.5 c 128
 371 573.5 344 617 310 671 c 1
 318.666666667 671 331.333333333 670.166666667 348 668.5 c 128
 364.666666667 666.833333333 374 666 376 666 c 0
 389.333333333 666 401.166666667 666.666666667 411.5 668 c 128
 421.833333333 669.333333333 430 670.333333333 436 671 c 1
 449.333333333 639.666666667 463.833333333 608.166666667 479.5 576.5 c 128
 495.166666667 544.833333333 511.666666667 515 529 487 c 1
 611 342 l 1
 640.333333333 390 669 441.166666667 697 495.5 c 128
 725 549.833333333 753.333333333 608.333333333 782 671 c 1
 822 667 l 1
 830.666666667 667 838.333333333 667.333333333 845 668 c 128
 851.666666667 668.666666667 859 669.666666667 867 671 c 1
 816.333333333 593 770.666666667 520 730 452 c 1
 641 299 l 1
 641 173 l 2
 641 153 641.666666667 119.833333333 643 73.5 c 128
 644.333333333 27.1666666667 645 2.66666666667 645 0 c 1
 639.666666667 0.666666666667 631 1.66666666667 619 3 c 128
 607 4.33333333333 597.333333333 5 590 5 c 0
 577.333333333 5 567.333333333 4.5 560 3.5 c 128
 552.666666667 2.5 544.333333333 1.33333333333 535 0 c 1
 537 17.3333333333 539 38.5 541 63.5 c 128
 543 88.5 544 110 544 128 c 2
131 679 m 2
 139.666666667 689 147.666666667 696.5 155 701.5 c 128
 162.333333333 706.5 171 709 181 709 c 0
 191.666666667 709 200.666666667 705.333333333 208 698 c 128
 215.333333333 690.666666667 219 681.666666667 219 671 c 0
 219 661 215.5 652.5 208.5 645.5 c 128
 201.5 638.5 191.333333333 631.333333333 178 624 c 1
 34 535 l 1
 -1 535 l 1
 131 679 l 2
EndSplineSet
Validated: 1
EndChar
StartChar: uni038F
Encoding: 911 911 184
Width: 983
Flags: HW
LayerCount: 2
Fore
SplineSet
493 2 m 1
 474.333333333 2 443.166666667 2.66666666667 399.5 4 c 128
 355.833333333 5.33333333333 333 6 331 6 c 2
 178 0 l 1
 180 34 l 2
 180 40 179.5 46.5 178.5 53.5 c 128
 177.5 60.5 176.666666667 65.6666666667 176 69 c 1
 205.333333333 66.3333333333 232 64.5 256 63.5 c 128
 280 62.5 311.333333333 62 350 62 c 1
 303.333333333 102.666666667 268.333333333 144.833333333 245 188.5 c 128
 221.666666667 232.166666667 210 283 210 341 c 0
 210 447 244.833333333 530.666666667 314.5 592 c 128
 384.166666667 653.333333333 472.333333333 684 579 684 c 0
 686.333333333 684 773.666666667 653.666666667 841 593 c 128
 908.333333333 532.333333333 942 448.333333333 942 341 c 0
 942 281.666666667 930.833333333 230.833333333 908.5 188.5 c 128
 886.166666667 146.166666667 851 104 803 62 c 1
 814.333333333 62 841.666666667 63.1666666667 885 65.5 c 128
 928.333333333 67.8333333333 958.666666667 69 976 69 c 1
 973 24 l 1
 975 0 l 1
 823 6 l 1
 804.333333333 6 773.5 5.33333333333 730.5 4 c 128
 687.5 2.66666666667 664.333333333 2 661 2 c 1
 661 54 l 1
 721 78 764.666666667 112.333333333 792 157 c 128
 819.333333333 201.666666667 833 258 833 326 c 0
 833 416 812.166666667 490.833333333 770.5 550.5 c 128
 728.833333333 610.166666667 664.333333333 640 577 640 c 0
 490.333333333 640 426 610.833333333 384 552.5 c 128
 342 494.166666667 321 419.333333333 321 328 c 0
 321 263.333333333 335.166666667 206.666666667 363.5 158 c 128
 391.833333333 109.333333333 435 74.6666666667 493 54 c 1
 493 2 l 1
131 679 m 2
 139.666666667 689 147.666666667 696.5 155 701.5 c 128
 162.333333333 706.5 171 709 181 709 c 0
 191.666666667 709 200.666666667 705.333333333 208 698 c 128
 215.333333333 690.666666667 219 681.666666667 219 671 c 0
 219 661 215.5 652.5 208.5 645.5 c 128
 201.5 638.5 191.333333333 631.333333333 178 624 c 1
 34 535 l 1
 -1 535 l 1
 131 679 l 2
EndSplineSet
Validated: 1
EndChar
StartChar: uni0390
Encoding: 912 912 216
Width: 246
Flags: W
LayerCount: 2
Fore
SplineSet
75 240 m 2,0,-1
 74 375 l 2,1,2
 74 392 74 392 73.5 408 c 128,-1,3
 73 424 73 424 69 471 c 1,4,5
 94 467 94 467 101.5 466.5 c 128,-1,6
 109 466 109 466 119 466 c 0,7,8
 141 466 141 466 168 471 c 1,9,10
 163 432 163 432 162 400 c 128,-1,11
 161 368 161 368 161 315 c 2,12,-1
 161 293 l 2,13,14
 161 243 161 243 164.5 140 c 128,-1,15
 168 37 168 37 168 0 c 1,16,17
 156 1 156 1 145 2.5 c 128,-1,18
 134 4 134 4 119 4 c 0,19,20
 107 4 107 4 92 2.5 c 128,-1,21
 77 1 77 1 69 0 c 1,22,23
 69 37 69 37 72 119 c 128,-1,24
 75 201 75 201 75 240 c 2,0,-1
13 623 m 0,25,26
 31 623 31 623 44 610 c 128,-1,27
 57 597 57 597 57 579 c 256,28,29
 57 561 57 561 44 548 c 128,-1,30
 31 535 31 535 13 535 c 0,31,32
 -4 535 -4 535 -17 548 c 128,-1,33
 -30 561 -30 561 -30 579 c 256,34,35
 -30 597 -30 597 -17 610 c 128,-1,36
 -4 623 -4 623 13 623 c 0,25,26
124 669 m 2,37,38
 129 689 129 689 136 698 c 128,-1,39
 143 707 143 707 162 707 c 0,40,41
 175 707 175 707 184.5 699.5 c 128,-1,42
 194 692 194 692 194 678 c 0,43,44
 194 662 194 662 185 651 c 1,45,-1
 107 535 l 1,46,-1
 84 535 l 1,47,-1
 124 669 l 2,37,38
233 623 m 0,48,49
 250 623 250 623 263 610 c 128,-1,50
 276 597 276 597 276 579 c 256,51,52
 276 561 276 561 263 548 c 128,-1,53
 250 535 250 535 233 535 c 0,54,55
 214 535 214 535 202 548 c 128,-1,56
 190 561 190 561 190 579 c 256,57,58
 190 597 190 597 202 610 c 128,-1,59
 214 623 214 623 233 623 c 0,48,49
EndSplineSet
EndChar
StartChar: Alpha
Encoding: 913 913 160
Width: 594
Flags: W
LayerCount: 2
Fore
SplineSet
186 460 m 2,0,-1
 279 684 l 1,1,2
 285 682 285 682 290 681 c 128,-1,3
 295 680 295 680 301 680 c 0,4,5
 315 680 315 680 326 684 c 1,6,7
 386 528 386 528 415.5 453.5 c 128,-1,8
 445 379 445 379 494.5 259 c 128,-1,9
 544 139 544 139 604 0 c 1,10,11
 591 0 591 0 568.5 2.5 c 128,-1,12
 546 5 546 5 541 5 c 0,13,14
 521 5 521 5 504.5 3 c 128,-1,15
 488 1 488 1 478 0 c 1,16,17
 448 99 448 99 432.5 143.5 c 128,-1,18
 417 188 417 188 391 255 c 1,19,-1
 272 258 l 1,20,-1
 155 255 l 1,21,-1
 117 148 l 2,22,23
 105 116 105 116 94 79.5 c 128,-1,24
 83 43 83 43 73 0 c 1,25,-1
 32 4 l 1,26,27
 15 4 15 4 4.5 2 c 128,-1,28
 -6 0 -6 0 -11 0 c 1,29,30
 22 76 22 76 55 152.5 c 128,-1,31
 88 229 88 229 114.5 291 c 128,-1,32
 141 353 141 353 186 460 c 2,0,-1
272 302 m 1,33,-1
 369 306 l 1,34,-1
 273 548 l 1,35,-1
 177 306 l 1,36,-1
 272 302 l 1,33,-1
EndSplineSet
EndChar
StartChar: Beta
Encoding: 914 914 161
Width: 577
Flags: W
LayerCount: 2
Fore
SplineSet
92 403 m 0,0,1
 92 547 92 547 81 671 c 1,2,-1
 149 669 l 2,3,4
 178 669 178 669 245.5 671 c 128,-1,5
 313 673 313 673 317 673 c 0,6,7
 397 673 397 673 454 636 c 128,-1,8
 511 599 511 599 511 523 c 0,9,10
 511 456 511 456 460 417 c 128,-1,11
 409 378 409 378 335 363 c 1,12,13
 429 353 429 353 485 316 c 128,-1,14
 541 279 541 279 541 193 c 0,15,16
 541 96 541 96 461 48 c 128,-1,17
 381 0 381 0 276 0 c 1,18,-1
 168 4 l 2,19,20
 153 4 153 4 117.5 2 c 128,-1,21
 82 0 82 0 79 0 c 1,22,23
 79 62 79 62 85.5 207 c 128,-1,24
 92 352 92 352 92 403 c 0,0,1
185 185 m 1,25,-1
 185 107 l 1,26,-1
 189 44 l 1,27,-1
 244 41 l 1,28,29
 325 41 325 41 379.5 78 c 128,-1,30
 434 115 434 115 434 192 c 0,31,32
 434 278 434 278 377.5 308.5 c 128,-1,33
 321 339 321 339 226 339 c 1,34,-1
 185 338 l 1,35,-1
 185 185 l 1,25,-1
410 509 m 0,36,37
 410 568 410 568 366 600.5 c 128,-1,38
 322 633 322 633 261 633 c 1,39,-1
 189 630 l 1,40,41
 182 575 182 575 182 511 c 2,42,-1
 182 376 l 1,43,44
 277 376 277 376 343.5 402.5 c 128,-1,45
 410 429 410 429 410 509 c 0,36,37
EndSplineSet
EndChar
StartChar: Gamma
Encoding: 915 915 151
Width: 453
Flags: W
LayerCount: 2
Fore
SplineSet
323 669 m 1,0,-1
 452 671 l 1,1,2
 450 663 450 663 449 648.5 c 128,-1,3
 448 634 448 634 448 627 c 1,4,-1
 452 602 l 1,5,6
 369 619 369 619 290 619 c 2,7,-1
 190 619 l 1,8,9
 190 559 190 559 188 420.5 c 128,-1,10
 186 282 186 282 186 272 c 0,11,12
 186 225 186 225 189.5 130 c 128,-1,13
 193 35 193 35 193 0 c 1,14,-1
 135 4 l 1,15,-1
 78 0 l 1,16,17
 85 77 85 77 88 150.5 c 128,-1,18
 91 224 91 224 91 308 c 0,19,20
 91 363 91 363 84.5 494.5 c 128,-1,21
 78 626 78 626 78 671 c 1,22,-1
 323 669 l 1,0,-1
EndSplineSet
EndChar
StartChar: Delta
Encoding: 916 916 152
Width: 647
Flags: W
LayerCount: 2
Fore
SplineSet
647 0 m 1,0,1
 600 0 600 0 505 4 c 128,-1,2
 410 8 410 8 361 8 c 0,3,4
 301 8 301 8 181 4 c 128,-1,5
 61 0 61 0 0 0 c 1,6,7
 91 181 91 181 162 341 c 128,-1,8
 233 501 233 501 293 671 c 1,9,10
 299 671 299 671 311 669 c 128,-1,11
 323 667 323 667 329 667 c 0,12,13
 339 667 339 667 347 668 c 128,-1,14
 355 669 355 669 364 671 c 1,15,16
 433 478 433 478 498 323.5 c 128,-1,17
 563 169 563 169 647 0 c 1,0,1
203 309 m 2,18,19
 153 187 153 187 114 65 c 1,20,21
 145 65 145 65 209 61 c 128,-1,22
 273 57 273 57 305 57 c 2,23,-1
 329 57 l 2,24,25
 396 57 396 57 423 58.5 c 128,-1,26
 450 60 450 60 498 65 c 1,27,-1
 469 136 l 1,28,-1
 415 276 l 1,29,-1
 304 560 l 1,30,-1
 203 309 l 2,18,19
EndSplineSet
EndChar
StartChar: Epsilon
Encoding: 917 917 162
Width: 494
Flags: W
LayerCount: 2
Fore
SplineSet
91 335 m 0,0,1
 91 447 91 447 88.5 512.5 c 128,-1,2
 86 578 86 578 78 671 c 1,3,-1
 255 668 l 1,4,-1
 440 671 l 1,5,-1
 437 637 l 1,6,-1
 440 602 l 1,7,8
 405 610 405 610 366 614.5 c 128,-1,9
 327 619 327 619 294 619 c 2,10,-1
 188 619 l 1,11,-1
 186 483 l 1,12,-1
 186 380 l 1,13,-1
 287 380 l 2,14,15
 346 380 346 380 423 390 c 1,16,-1
 421 358 l 1,17,-1
 423 325 l 1,18,-1
 284 333 l 1,19,-1
 186 333 l 1,20,-1
 186 228 l 1,21,-1
 190 53 l 1,22,23
 274 53 274 53 328.5 55.5 c 128,-1,24
 383 58 383 58 442 68 c 1,25,-1
 440 34 l 1,26,-1
 442 0 l 1,27,-1
 258 3 l 1,28,-1
 78 0 l 1,29,30
 78 51 78 51 84.5 172.5 c 128,-1,31
 91 294 91 294 91 335 c 0,0,1
EndSplineSet
EndChar
StartChar: Zeta
Encoding: 918 918 163
Width: 596
Flags: W
LayerCount: 2
Fore
SplineSet
5 26 m 1,0,1
 81 127 81 127 160.5 234 c 128,-1,2
 240 341 240 341 306 436 c 2,3,-1
 430 617 l 1,4,-1
 312 617 l 2,5,6
 178 617 178 617 43 602 c 1,7,-1
 47 636 l 1,8,-1
 43 671 l 1,9,10
 97 671 97 671 189 667.5 c 128,-1,11
 281 664 281 664 308 664 c 0,12,13
 354 664 354 664 448.5 667.5 c 128,-1,14
 543 671 543 671 577 671 c 1,15,-1
 577 651 l 1,16,17
 511 566 511 566 428 453.5 c 128,-1,18
 345 341 345 341 287.5 260.5 c 128,-1,19
 230 180 230 180 145 56 c 1,20,-1
 308 56 l 2,21,22
 375 56 375 56 419 59.5 c 128,-1,23
 463 63 463 63 577 74 c 1,24,-1
 574 49 l 1,25,-1
 573 39 l 1,26,-1
 574 25 l 1,27,-1
 577 0 l 1,28,29
 492 0 492 0 363.5 3 c 128,-1,30
 235 6 235 6 234 6 c 0,31,32
 196 6 196 6 120 3 c 128,-1,33
 44 0 44 0 5 0 c 1,34,-1
 5 26 l 1,0,1
EndSplineSet
EndChar
StartChar: Eta
Encoding: 919 919 164
Width: 748
Flags: W
LayerCount: 2
Fore
SplineSet
186 229 m 2,0,1
 186 183 186 183 189.5 102.5 c 128,-1,2
 193 22 193 22 193 0 c 1,3,4
 183 0 183 0 164 3 c 128,-1,5
 145 6 145 6 136 6 c 0,6,7
 126 6 126 6 107 3 c 128,-1,8
 88 0 88 0 79 0 c 1,9,10
 79 52 79 52 84.5 175.5 c 128,-1,11
 90 299 90 299 90 335 c 0,12,13
 90 389 90 389 84.5 511.5 c 128,-1,14
 79 634 79 634 79 671 c 1,15,16
 88 671 88 671 110.5 669 c 128,-1,17
 133 667 133 667 136 667 c 0,18,19
 145 667 145 667 167.5 669 c 128,-1,20
 190 671 190 671 193 671 c 1,21,22
 193 615 193 615 189.5 518 c 128,-1,23
 186 421 186 421 186 394 c 1,24,25
 218 394 218 394 293.5 392 c 128,-1,26
 369 390 369 390 373 390 c 0,27,28
 406 390 406 390 480.5 392 c 128,-1,29
 555 394 555 394 560 394 c 1,30,31
 560 462 560 462 557 566 c 128,-1,32
 554 670 554 670 554 671 c 1,33,34
 563 671 563 671 586 669 c 128,-1,35
 609 667 609 667 612 667 c 0,36,37
 621 667 621 667 643.5 669 c 128,-1,38
 666 671 666 671 669 671 c 1,39,40
 664 624 664 624 660 572.5 c 128,-1,41
 656 521 656 521 656 475 c 2,42,-1
 655 364 l 2,43,44
 655 303 655 303 662 182 c 128,-1,45
 669 61 669 61 669 0 c 1,46,47
 659 0 659 0 640 3 c 128,-1,48
 621 6 621 6 612 6 c 0,49,50
 598 6 598 6 585 4 c 128,-1,51
 572 2 572 2 554 0 c 1,52,53
 554 30 554 30 556.5 75 c 128,-1,54
 559 120 559 120 559 127 c 2,55,-1
 560 229 l 1,56,-1
 560 335 l 1,57,58
 499 335 499 335 436 336 c 128,-1,59
 373 337 373 337 311 338 c 1,60,-1
 186 335 l 1,61,-1
 186 229 l 2,0,1
EndSplineSet
EndChar
StartChar: Theta
Encoding: 920 920 153
Width: 806
Flags: W
LayerCount: 2
Fore
SplineSet
37 335 m 0,0,1
 37 497 37 497 139.5 590.5 c 128,-1,2
 242 684 242 684 405 684 c 0,3,4
 544 684 544 684 643.5 614 c 128,-1,5
 743 544 743 544 754 470.5 c 128,-1,6
 765 397 765 397 767 378.5 c 128,-1,7
 769 360 769 360 769 333 c 0,8,9
 769 307 769 307 767 290 c 128,-1,10
 765 273 765 273 754.5 202 c 128,-1,11
 744 131 744 131 642.5 60 c 128,-1,12
 541 -11 541 -11 404 -11 c 0,13,14
 346 -11 346 -11 313.5 -5.5 c 128,-1,15
 281 0 281 0 216 23.5 c 128,-1,16
 151 47 151 47 94 134.5 c 128,-1,17
 37 222 37 222 37 335 c 0,0,1
146 337 m 0,18,19
 146 204 146 204 210 117.5 c 128,-1,20
 274 31 274 31 403 31 c 256,21,22
 532 31 532 31 595.5 117.5 c 128,-1,23
 659 204 659 204 659 337 c 256,24,25
 659 470 659 470 595.5 555 c 128,-1,26
 532 640 532 640 403 640 c 0,27,28
 221 640 221 640 183.5 519 c 128,-1,29
 146 398 146 398 146 337 c 0,18,19
403 365 m 0,30,31
 438 365 438 365 492 367.5 c 128,-1,32
 546 370 546 370 553 370 c 1,33,-1
 551 335 l 1,34,-1
 553 309 l 1,35,36
 528 309 528 309 468.5 311 c 128,-1,37
 409 313 409 313 403 313 c 0,38,39
 378 313 378 313 318 311 c 128,-1,40
 258 309 258 309 253 309 c 1,41,-1
 255 339 l 1,42,-1
 253 370 l 1,43,44
 287 370 287 370 341 367.5 c 128,-1,45
 395 365 395 365 403 365 c 0,30,31
EndSplineSet
EndChar
StartChar: Lambda
Encoding: 923 923 151
Width: 614
Flags: HW
LayerCount: 2
Fore
SplineSet
477 326 m 2
 560 124 l 1
 614 0 l 1
 554 4 l 1
 543.333333333 4 535 3.83333333333 529 3.5 c 128
 523 3.16666666667 509.666666667 2 489 0 c 1
 480.333333333 26.6666666667 472.666666667 51.1666666667 466 73.5 c 128
 459.333333333 95.8333333333 449.333333333 125.666666667 436 163 c 2
 394 276 l 1
 289 560 l 1
 192 309 l 1
 172.666666667 256.333333333 154.666666667 204.666666667 138 154 c 128
 121.333333333 103.333333333 105.333333333 52 90 0 c 1
 45 2 l 1
 0 0 l 1
 46 92 95.3333333333 202.166666667 148 330.5 c 128
 200.666666667 458.833333333 242.666666667 572.333333333 274 671 c 1
 280 669.666666667 285.833333333 668.666666667 291.5 668 c 128
 297.166666667 667.333333333 303.666666667 667 311 667 c 0
 315.666666667 667 322.333333333 667.666666667 331 669 c 128
 339.666666667 670.333333333 346.333333333 671 351 671 c 1
 362.333333333 631.666666667 377 586.5 395 535.5 c 128
 413 484.5 440.333333333 414.666666667 477 326 c 2
EndSplineSet
Validated: 1
EndChar
StartChar: Nu
Encoding: 925 925 173
Width: 728
Flags: W
LayerCount: 2
Fore
SplineSet
81 166 m 0,0,1
 81 227 81 227 84 350 c 128,-1,2
 87 473 87 473 87 534 c 2,3,-1
 85 684 l 1,4,-1
 120 684 l 1,5,6
 173 623 173 623 235.5 552 c 128,-1,7
 298 481 298 481 338 436.5 c 128,-1,8
 378 392 378 392 440 325 c 2,9,-1
 591 165 l 1,10,-1
 591 436 l 2,11,12
 591 494 591 494 588 551.5 c 128,-1,13
 585 609 585 609 578 671 c 1,14,-1
 617 668 l 1,15,-1
 657 671 l 1,16,17
 653 637 653 637 649.5 599 c 128,-1,18
 646 561 646 561 646 534 c 0,19,20
 646 446 646 446 643.5 297.5 c 128,-1,21
 641 149 641 149 641 119 c 2,22,-1
 643 -11 l 1,23,-1
 612 -11 l 1,24,25
 574 36 574 36 526.5 90.5 c 128,-1,26
 479 145 479 145 425 203 c 2,27,-1
 139 506 l 1,28,-1
 139 238 l 2,29,30
 139 122 139 122 153 -1 c 1,31,-1
 108 2 l 1,32,-1
 71 -1 l 1,33,34
 76 57 76 57 78.5 90 c 128,-1,35
 81 123 81 123 81 166 c 0,0,1
EndSplineSet
EndChar
StartChar: Xi
Encoding: 926 926 152
Width: 632
Flags: HW
LayerCount: 2
Fore
SplineSet
315 591 m 0
 286.333333333 591 243.333333333 590 186 588 c 128
 128.666666667 586 85.3333333333 585 56 585 c 1
 58.6666666667 597 60.1666666667 606.166666667 60.5 612.5 c 128
 60.8333333333 618.833333333 61 624 61 628 c 0
 61 641.333333333 59.3333333333 655.666666667 56 671 c 1
 84.6666666667 671 127.666666667 670 185 668 c 128
 242.333333333 666 285.666666667 665 315 665 c 0
 343.666666667 665 387 666 445 668 c 128
 503 670 546 671 574 671 c 1
 570 628 l 2
 570 622.666666667 570.666666667 615.333333333 572 606 c 128
 573.333333333 596.666666667 574 589.666666667 574 585 c 1
 546 585 503.333333333 586 446 588 c 128
 388.666666667 590 345 591 315 591 c 0
339 310 m 0
 324.333333333 310 291.833333333 308.833333333 241.5 306.5 c 128
 191.166666667 304.166666667 154.666666667 303 132 303 c 1
 133.333333333 309 134.333333333 317.666666667 135 329 c 128
 135.666666667 340.333333333 136 346.333333333 136 347 c 0
 136 363 134.666666667 377.666666667 132 391 c 1
 147.333333333 391 176.5 389.833333333 219.5 387.5 c 128
 262.5 385.166666667 294.333333333 384 315 384 c 0
 336.333333333 384 368.666666667 385.166666667 412 387.5 c 128
 455.333333333 389.833333333 484.666666667 391 500 391 c 1
 495 347 l 1
 500 303 l 1
 478.666666667 303 449.333333333 304.166666667 412 306.5 c 128
 374.666666667 308.833333333 350.333333333 310 339 310 c 0
315 6 m 0
 285.666666667 6 240.666666667 5 180 3 c 128
 119.333333333 1 73.3333333333 0 42 0 c 1
 46 46 l 1
 42 93 l 1
 78.6666666667 93 129 91.8333333333 193 89.5 c 128
 257 87.1666666667 297.666666667 86 315 86 c 0
 346.333333333 86 394 87.1666666667 458 89.5 c 128
 522 91.8333333333 565.666666667 93 589 93 c 1
 586 46 l 1
 589 0 l 1
 558.333333333 0 512.666666667 1 452 3 c 128
 391.333333333 5 345.666666667 6 315 6 c 0
EndSplineSet
Validated: 1
EndChar
StartChar: Omicron
Encoding: 927 927 171
Width: 806
Flags: HW
LayerCount: 2
Fore
SplineSet
37 335 m 0
 37 443 70.8333333333 528.166666667 138.5 590.5 c 128
 206.166666667 652.833333333 294.333333333 684 403 684 c 0
 496.333333333 684 576.333333333 660.833333333 643 614.5 c 128
 709.666666667 568.166666667 746.666666667 520.333333333 754 471 c 128
 761.333333333 421.666666667 765.666666667 390.833333333 767 378.5 c 128
 768.333333333 366.166666667 769 351 769 333 c 0
 769 315.666666667 768.333333333 301.333333333 767 290 c 128
 765.666666667 278.666666667 761.333333333 248.5 754 199.5 c 128
 746.666666667 150.5 710 103.166666667 644 57.5 c 128
 578 11.8333333333 498 -11 404 -11 c 0
 373.333333333 -11 346.166666667 -9.83333333333 322.5 -7.5 c 128
 298.833333333 -5.16666666667 264.5 4.33333333333 219.5 21 c 128
 174.5 37.6666666667 132.833333333 75.3333333333 94.5 134 c 128
 56.1666666667 192.666666667 37 259.666666667 37 335 c 0
146 337 m 0
 146 247.666666667 167.333333333 174.166666667 210 116.5 c 128
 252.666666667 58.8333333333 317 30 403 30 c 256
 489 30 553.166666667 59 595.5 117 c 128
 637.833333333 175 659 248.333333333 659 337 c 0
 659 425 637.5 497.5 594.5 554.5 c 128
 551.5 611.5 487.666666667 640 403 640 c 0
 341 640 290.5 625 251.5 595 c 128
 212.5 565 183 520 163 460 c 1
 151.666666667 418.666666667 146 377.666666667 146 337 c 0
EndSplineSet
Validated: 1
EndChar
StartChar: Pi
Encoding: 928 928 153
Width: 746
Flags: HW
LayerCount: 2
Fore
SplineSet
311 609 m 1
 189 607 l 1
 189 576.333333333 188.333333333 525.666666667 187 455 c 128
 185.666666667 384.333333333 185 346.333333333 185 341 c 0
 185 303 186.333333333 246 189 170 c 128
 191.666666667 94 193 37.3333333333 193 0 c 1
 187 0 177.666666667 1 165 3 c 128
 152.333333333 5 142.666666667 6 136 6 c 0
 130.666666667 6 121.333333333 5 108 3 c 128
 94.6666666667 1 84.6666666667 0 78 0 c 1
 78 34 80.1666666667 91.5 84.5 172.5 c 128
 88.8333333333 253.5 91 307.666666667 91 335 c 0
 91 409.666666667 90.1666666667 468.833333333 88.5 512.5 c 128
 86.8333333333 556.166666667 83.3333333333 609 78 671 c 1
 106 671 148.666666667 669.666666667 206 667 c 128
 263.333333333 664.333333333 306.333333333 663 335 663 c 0
 371.666666667 663 427 664.333333333 501 667 c 128
 575 669.666666667 630.666666667 671 668 671 c 1
 665.333333333 641.666666667 662.666666667 608.5 660 571.5 c 128
 657.333333333 534.5 656 502.333333333 656 475 c 2
 655 363 l 2
 655 326.333333333 657.166666667 264.166666667 661.5 176.5 c 128
 665.833333333 88.8333333333 668 30 668 0 c 1
 662 0 652.666666667 1 640 3 c 128
 627.333333333 5 617.666666667 6 611 6 c 0
 601.666666667 6 592.833333333 5.33333333333 584.5 4 c 128
 576.166666667 2.66666666667 566 1.33333333333 554 0 c 1
 554 45.3333333333 555.166666667 107.333333333 557.5 186 c 128
 559.833333333 264.666666667 561 315 561 337 c 2
 560 525 l 1
 557 607 l 1
 311 609 l 1
EndSplineSet
Validated: 1
EndChar
StartChar: Rho
Encoding: 929 929 172
Width: 530
Flags: HW
LayerCount: 2
Fore
SplineSet
92 403 m 0
 92 499 88.3333333333 588.333333333 81 671 c 1
 169 668 l 2
 187.666666667 668 212.833333333 668.833333333 244.5 670.5 c 128
 276.166666667 672.166666667 295 673 301 673 c 0
 361.666666667 673 413.333333333 658.5 456 629.5 c 128
 498.666666667 600.5 520 557 520 499 c 0
 520 436.333333333 494.666666667 387.833333333 444 353.5 c 128
 393.333333333 319.166666667 334.666666667 302 268 302 c 1
 182 304 l 1
 182 268.666666667 183.166666667 215.5 185.5 144.5 c 128
 187.833333333 73.5 189 25.3333333333 189 0 c 1
 183 0 174 1 162 3 c 128
 150 5 140.666666667 6 134 6 c 0
 126 6 117 5.33333333333 107 4 c 128
 97 2.66666666667 87.6666666667 1.33333333333 79 0 c 1
 79 41.3333333333 81.1666666667 110.333333333 85.5 207 c 128
 89.8333333333 303.666666667 92 369 92 403 c 0
415 493 m 0
 415 535.666666667 400.5 569.666666667 371.5 595 c 128
 342.5 620.333333333 306.333333333 633 263 633 c 1
 189 630 l 1
 187 607.333333333 185.333333333 585 184 563 c 128
 182.666666667 541 182 518.666666667 182 496 c 2
 182 343 l 1
 272 343 333.333333333 356 366 382 c 128
 398.666666667 408 415 445 415 493 c 0
EndSplineSet
Validated: 1
EndChar
StartChar: Sigma
Encoding: 931 931 157
Width: 594
Flags: W
LayerCount: 2
Fore
SplineSet
525 636 m 1,0,-1
 528 602 l 1,1,2
 374 616 374 616 196 616 c 1,3,4
 282 498 282 498 392 361 c 1,5,6
 322 288 322 288 268 225 c 128,-1,7
 214 162 214 162 158 86 c 1,8,-1
 328 86 l 2,9,10
 376 86 376 86 460 89.5 c 128,-1,11
 544 93 544 93 569 93 c 1,12,-1
 565 62 l 1,13,-1
 564 49 l 1,14,-1
 565 31 l 2,15,16
 565 24 565 24 565.5 18.5 c 128,-1,17
 566 13 566 13 569 0 c 1,18,19
 500 0 500 0 402 3 c 128,-1,20
 304 6 304 6 300 6 c 0,21,22
 252 6 252 6 166 3 c 128,-1,23
 80 0 80 0 32 0 c 1,24,-1
 32 36 l 1,25,26
 76 79 76 79 122 131.5 c 128,-1,27
 168 184 168 184 222 248 c 1,28,-1
 293 337 l 1,29,30
 227 428 227 428 175 496.5 c 128,-1,31
 123 565 123 565 55 647 c 1,32,-1
 55 671 l 1,33,34
 89 671 89 671 167 669 c 128,-1,35
 245 667 245 667 249 667 c 0,36,37
 297 667 297 667 409 669 c 128,-1,38
 521 671 521 671 528 671 c 1,39,-1
 525 636 l 1,0,-1
EndSplineSet
EndChar
StartChar: Phi
Encoding: 934 934 165
Width: 806
Flags: HW
LayerCount: 2
Fore
SplineSet
459 -18 m 1
 437 -13.3333333333 418.333333333 -11 403 -11 c 0
 395.666666667 -11 387.833333333 -11.5 379.5 -12.5 c 128
 371.166666667 -13.5 360.666666667 -15.3333333333 348 -18 c 1
 351 49 l 1
 267.666666667 49 194.333333333 75.8333333333 131 129.5 c 128
 67.6666666667 183.166666667 36 251.666666667 36 335 c 0
 36 422.333333333 65.5 489.5 124.5 536.5 c 128
 183.5 583.5 259 612.333333333 351 623 c 1
 348 690 l 1
 357.333333333 688.666666667 366.833333333 687.333333333 376.5 686 c 128
 386.166666667 684.666666667 395 684 403 684 c 256
 411 684 419.833333333 684.666666667 429.5 686 c 128
 439.166666667 687.333333333 449 688.666666667 459 690 c 1
 455 623 l 1
 543.666666667 623 618.166666667 597.333333333 678.5 546 c 128
 738.833333333 494.666666667 769 424.333333333 769 335 c 0
 769 249 739.333333333 181.666666667 680 133 c 128
 620.666666667 84.3333333333 545.666666667 56.3333333333 455 49 c 1
 459 -18 l 1
361 362 m 0
 361 394.666666667 360.166666667 436.666666667 358.5 488 c 128
 356.833333333 539.333333333 356 568.666666667 356 576 c 1
 288.666666667 569.333333333 236.833333333 545 200.5 503 c 128
 164.166666667 461 146 405.333333333 146 336 c 0
 146 271.333333333 165 215 203 167 c 128
 241 119 291.666666667 95 355 95 c 1
 355 139.666666667 356 195.166666667 358 261.5 c 128
 360 327.833333333 361 361.333333333 361 362 c 0
659 336 m 256
 659 406 641 463.5 605 508.5 c 128
 569 553.5 517.666666667 576 451 576 c 1
 451 546.666666667 450 507.333333333 448 458 c 128
 446 408.666666667 445 369 445 339 c 256
 445 309 446 268.333333333 448 217 c 128
 450 165.666666667 451 125 451 95 c 1
 517.666666667 95 569 117.666666667 605 163 c 128
 641 208.333333333 659 266 659 336 c 256
EndSplineSet
Validated: 1
EndChar
StartChar: Chi
Encoding: 935 935 178
Width: 532
Flags: W
LayerCount: 2
Fore
SplineSet
144 206 m 1,0,-1
 229 329 l 1,1,2
 115 517 115 517 13 671 c 1,3,4
 24 671 24 671 46 669 c 128,-1,5
 68 667 68 667 79 667 c 0,6,7
 106 667 106 667 121 669 c 128,-1,8
 136 671 136 671 143 671 c 1,9,10
 176 606 176 606 213.5 535 c 128,-1,11
 251 464 251 464 282 409 c 1,12,-1
 352 523 l 2,13,14
 395 594 395 594 430 671 c 1,15,16
 442 669 442 669 452 668 c 128,-1,17
 462 667 462 667 476 667 c 0,18,19
 483 667 483 667 499 669 c 128,-1,20
 515 671 515 671 524 671 c 1,21,22
 485 621 485 621 443.5 562.5 c 128,-1,23
 402 504 402 504 378 470 c 2,24,-1
 308 369 l 1,25,26
 346 302 346 302 377 250 c 128,-1,27
 408 198 408 198 442.5 142 c 128,-1,28
 477 86 477 86 532 0 c 1,29,30
 518 0 518 0 494 2.5 c 128,-1,31
 470 5 470 5 466 5 c 0,32,33
 445 5 445 5 428.5 3 c 128,-1,34
 412 1 412 1 402 0 c 1,35,36
 369 70 369 70 330.5 142.5 c 128,-1,37
 292 215 292 215 254 287 c 1,38,-1
 191 180 l 1,39,40
 139 94 139 94 125.5 69.5 c 128,-1,41
 112 45 112 45 92 0 c 1,42,43
 82 0 82 0 64.5 2.5 c 128,-1,44
 47 5 47 5 45 5 c 0,45,46
 31 5 31 5 19 3 c 128,-1,47
 7 1 7 1 0 0 c 1,48,-1
 144 206 l 1,0,-1
EndSplineSet
EndChar
StartChar: Psi
Encoding: 936 936 170
Width: 771
Flags: W
LayerCount: 2
Fore
SplineSet
440 0 m 1,0,1
 423 2 423 2 405.5 4 c 128,-1,2
 388 6 388 6 385 6 c 0,3,4
 373 6 373 6 358 4 c 128,-1,5
 343 2 343 2 330 0 c 1,6,7
 330 33 330 33 335 109.5 c 128,-1,8
 340 186 340 186 340 214 c 1,9,10
 208 214 208 214 130.5 276 c 128,-1,11
 53 338 53 338 53 468 c 1,12,-1
 54 588 l 1,13,-1
 54 671 l 1,14,15
 81 666 81 666 102 666 c 0,16,17
 113 666 113 666 131.5 668.5 c 128,-1,18
 150 671 150 671 154 671 c 1,19,20
 149 620 149 620 146.5 589 c 128,-1,21
 144 558 144 558 144 521 c 1,22,-1
 143 496 l 1,23,-1
 144 460 l 1,24,25
 144 366 144 366 195.5 315.5 c 128,-1,26
 247 265 247 265 341 265 c 1,27,-1
 342 347 l 2,28,29
 342 408 342 408 336 530 c 128,-1,30
 330 652 330 652 330 671 c 1,31,32
 348 669 348 669 361.5 667.5 c 128,-1,33
 375 666 375 666 385 666 c 0,34,35
 403 666 403 666 417 668 c 128,-1,36
 431 670 431 670 440 671 c 1,37,38
 440 606 440 606 434.5 457.5 c 128,-1,39
 429 309 429 309 429 265 c 1,40,-1
 466 268 l 1,41,42
 552 268 552 268 589 335.5 c 128,-1,43
 626 403 626 403 626 498 c 0,44,45
 626 533 626 533 621.5 597.5 c 128,-1,46
 617 662 617 662 617 671 c 1,47,48
 634 669 634 669 646.5 667.5 c 128,-1,49
 659 666 659 666 667 666 c 0,50,51
 689 666 689 666 700.5 668 c 128,-1,52
 712 670 712 670 718 671 c 1,53,-1
 717 604 l 1,54,-1
 719 486 l 1,55,56
 719 346 719 346 647 280 c 128,-1,57
 575 214 575 214 430 214 c 1,58,59
 430 180 430 180 435 103 c 128,-1,60
 440 26 440 26 440 0 c 1,0,1
EndSplineSet
EndChar
StartChar: Omega
Encoding: 937 937 168
Width: 813
Flags: HW
LayerCount: 2
Fore
SplineSet
323 2 m 1
 304.333333333 2 273.166666667 2.66666666667 229.5 4 c 128
 185.833333333 5.33333333333 163 6 161 6 c 2
 8 0 l 1
 10 34 l 2
 10 40 9.5 46.5 8.5 53.5 c 128
 7.5 60.5 6.66666666667 65.6666666667 6 69 c 1
 35.3333333333 66.3333333333 62 64.5 86 63.5 c 128
 110 62.5 141.333333333 62 180 62 c 1
 133.333333333 102.666666667 98.3333333333 144.833333333 75 188.5 c 128
 51.6666666667 232.166666667 40 283 40 341 c 0
 40 447 74.8333333333 530.666666667 144.5 592 c 128
 214.166666667 653.333333333 302.333333333 684 409 684 c 0
 516.333333333 684 603.666666667 653.666666667 671 593 c 128
 738.333333333 532.333333333 772 448.333333333 772 341 c 0
 772 281.666666667 760.833333333 230.833333333 738.5 188.5 c 128
 716.166666667 146.166666667 681 104 633 62 c 1
 644.333333333 62 671.666666667 63.1666666667 715 65.5 c 128
 758.333333333 67.8333333333 788.666666667 69 806 69 c 1
 803 24 l 1
 805 0 l 1
 653 6 l 1
 634.333333333 6 603.5 5.33333333333 560.5 4 c 128
 517.5 2.66666666667 494.333333333 2 491 2 c 1
 491 54 l 1
 551 78 594.666666667 112.333333333 622 157 c 128
 649.333333333 201.666666667 663 258 663 326 c 0
 663 416 642.166666667 490.833333333 600.5 550.5 c 128
 558.833333333 610.166666667 494.333333333 640 407 640 c 0
 320.333333333 640 256 610.833333333 214 552.5 c 128
 172 494.166666667 151 419.333333333 151 328 c 0
 151 263.333333333 165.166666667 206.666666667 193.5 158 c 128
 221.833333333 109.333333333 265 74.6666666667 323 54 c 1
 323 2 l 1
EndSplineSet
Validated: 1
EndChar
StartChar: Iotadieresis
Encoding: 938 938 158
Width: 278
Flags: W
LayerCount: 2
Fore
SplineSet
91 335 m 0,0,1
 91 389 91 389 85.5 511.5 c 128,-1,2
 80 634 80 634 80 671 c 1,3,4
 89 671 89 671 113 669 c 128,-1,5
 137 667 137 667 139 667 c 0,6,7
 148 667 148 667 172 669 c 128,-1,8
 196 671 196 671 199 671 c 1,9,10
 199 622 199 622 191.5 502 c 128,-1,11
 184 382 184 382 184 335 c 0,12,13
 184 286 184 286 191.5 166 c 128,-1,14
 199 46 199 46 199 0 c 1,15,16
 188 0 188 0 168 3 c 128,-1,17
 148 6 148 6 139 6 c 0,18,19
 127 6 127 6 111 4 c 128,-1,20
 95 2 95 2 80 0 c 1,21,22
 80 52 80 52 85.5 175.5 c 128,-1,23
 91 299 91 299 91 335 c 0,0,1
53 870 m 0,24,25
 74 870 74 870 89.5 854.5 c 128,-1,26
 105 839 105 839 105 816 c 0,27,28
 105 796 105 796 89 779 c 128,-1,29
 73 762 73 762 53 762 c 0,30,31
 31 762 31 762 14.5 778.5 c 128,-1,32
 -2 795 -2 795 -2 816 c 0,33,34
 -2 838 -2 838 14 854 c 128,-1,35
 30 870 30 870 53 870 c 0,24,25
226 870 m 0,36,37
 249 870 249 870 264.5 854.5 c 128,-1,38
 280 839 280 839 280 816 c 0,39,40
 280 795 280 795 263.5 778.5 c 128,-1,41
 247 762 247 762 226 762 c 256,42,43
 205 762 205 762 188.5 778.5 c 128,-1,44
 172 795 172 795 172 816 c 0,45,46
 172 838 172 838 188 854 c 128,-1,47
 204 870 204 870 226 870 c 0,36,37
EndSplineSet
EndChar
StartChar: Upsilondieresis
Encoding: 939 939 166
Width: 510
Flags: HW
LayerCount: 2
Fore
SplineSet
215 128 m 2
 215 279 l 1
 184.333333333 333.666666667 158.333333333 379.166666667 137 415.5 c 128
 115.666666667 451.833333333 91 492.666666667 63 538 c 128
 35 583.333333333 7.66666666667 627.666666667 -19 671 c 1
 -13 671 -1 670.333333333 17 669 c 128
 35 667.666666667 45 667 47 667 c 0
 53 667 63.8333333333 667.666666667 79.5 669 c 128
 95.1666666667 670.333333333 103.666666667 671 105 671 c 1
 119 639.666666667 134 608.166666667 150 576.5 c 128
 166 544.833333333 182.666666667 515 200 487 c 1
 282 342 l 1
 343.333333333 446.666666667 400 556.333333333 452 671 c 1
 492 668 l 2
 500.666666667 668 509.833333333 668.5 519.5 669.5 c 128
 529.166666667 670.5 535 671 537 671 c 1
 516.333333333 639.666666667 494 604.666666667 470 566 c 128
 446 527.333333333 423 489.333333333 401 452 c 2
 311 299 l 1
 311 174 l 2
 311 146.666666667 311.833333333 112.166666667 313.5 70.5 c 128
 315.166666667 28.8333333333 316 5.33333333333 316 0 c 1
 298 2 298 2 284.5 3.5 c 128
 275.5 4.5 267.333333333 5 260 5 c 0
 248 5 238.166666667 4.5 230.5 3.5 c 128
 222.833333333 2.5 214.666666667 1.33333333333 206 0 c 1
 208 17.3333333333 210 38.6666666667 212 64 c 128
 214 89.3333333333 215 110.666666667 215 128 c 2
168 870 m 0
 183.333333333 870 196 865 206 855 c 128
 216 845 221 832 221 816 c 0
 221 802 215.833333333 789.5 205.5 778.5 c 128
 195.166666667 767.5 182.666666667 762 168 762 c 256
 153.333333333 762 140.5 767.5 129.5 778.5 c 128
 118.5 789.5 113 802 113 816 c 0
 113 831.333333333 118.5 844.166666667 129.5 854.5 c 128
 140.5 864.833333333 153.333333333 870 168 870 c 0
342 870 m 256
 357.333333333 870 370.166666667 864.833333333 380.5 854.5 c 128
 390.833333333 844.166666667 396 831.333333333 396 816 c 0
 396 802 390.833333333 789.5 380.5 778.5 c 128
 370.166666667 767.5 357.333333333 762 342 762 c 0
 327.333333333 762 314.666666667 767.333333333 304 778 c 128
 293.333333333 788.666666667 288 801.333333333 288 816 c 0
 288 831.333333333 293.166666667 844.166666667 303.5 854.5 c 128
 313.833333333 864.833333333 326.666666667 870 342 870 c 256
EndSplineSet
Validated: 1
EndChar
StartChar: uni03AC
Encoding: 940 940 169
Width: 609
Flags: HW
LayerCount: 2
Fore
SplineSet
508 254 m 1
 536 159.333333333 559.666666667 74.3333333333 579 -1 c 1
 533 1 l 1
 485 -1 l 1
 456 124 l 1
 437.333333333 83.3333333333 410.5 50.6666666667 375.5 26 c 128
 340.5 1.33333333333 301 -11 257 -11 c 0
 190.333333333 -11 135.833333333 12.1666666667 93.5 58.5 c 128
 51.1666666667 104.833333333 30 161.333333333 30 228 c 0
 30 300.666666667 51.5 361.5 94.5 410.5 c 128
 137.5 459.5 194.666666667 484 266 484 c 0
 312 484 352.5 472.166666667 387.5 448.5 c 128
 422.5 424.833333333 451.666666667 392 475 350 c 1
 490.333333333 390 503 430.333333333 513 471 c 1
 555 468 l 1
 596 471 l 1
 579.333333333 433.666666667 564 398 550 364 c 128
 536 330 522 293.333333333 508 254 c 1
374 679 m 2
 382.666666667 689 390.833333333 696.5 398.5 701.5 c 128
 406.166666667 706.5 415 709 425 709 c 0
 435.666666667 709 444.5 705.166666667 451.5 697.5 c 128
 458.5 689.833333333 462 681 462 671 c 256
 462 661 458.666666667 652.666666667 452 646 c 128
 445.333333333 639.333333333 435.333333333 632 422 624 c 2
 277 535 l 1
 242 535 l 1
 374 679 l 2
272 446 m 0
 222 446 186 424.833333333 164 382.5 c 128
 142 340.166666667 131 291 131 235 c 0
 131 181 141.166666667 132.333333333 161.5 89 c 128
 181.833333333 45.6666666667 216.333333333 24 265 24 c 0
 319 24 357.666666667 48.8333333333 381 98.5 c 128
 404.333333333 148.166666667 421.666666667 193 433 233 c 1
 422.333333333 291 404.666666667 341 380 383 c 128
 355.333333333 425 319.333333333 446 272 446 c 0
EndSplineSet
Validated: 1
EndChar
StartChar: uni03AD
Encoding: 941 941 180
Width: 452
Flags: HW
LayerCount: 2
Fore
SplineSet
365 372 m 1
 346.333333333 396 328.833333333 414 312.5 426 c 128
 296.166666667 438 276.666666667 444 254 444 c 0
 228 444 206.166666667 435.5 188.5 418.5 c 128
 170.833333333 401.5 162 380.333333333 162 355 c 0
 162 328.333333333 172.333333333 307.5 193 292.5 c 128
 213.666666667 277.5 238.666666667 270 268 270 c 1
 301 272 l 1
 300 253 l 1
 301 225 l 1
 248 228 l 1
 218 228 192.333333333 219.666666667 171 203 c 128
 149.666666667 186.333333333 139 163 139 133 c 0
 139 101 150 75.3333333333 172 56 c 128
 194 36.6666666667 221.333333333 27 254 27 c 0
 282 27 308 33.8333333333 332 47.5 c 128
 356 61.1666666667 376 80 392 104 c 1
 394 93.3333333333 396.333333333 82.5 399 71.5 c 128
 401.666666667 60.5 405 49.6666666667 409 39 c 1
 384.333333333 22.3333333333 356.666666667 9.83333333333 326 1.5 c 128
 295.333333333 -6.83333333333 264 -11 232 -11 c 0
 181.333333333 -11 136.333333333 0.166666666667 97 22.5 c 128
 57.6666666667 44.8333333333 38 79.6666666667 38 127 c 0
 38 160.333333333 48.3333333333 186.666666667 69 206 c 128
 89.6666666667 225.333333333 118 242 154 256 c 1
 129.333333333 263.333333333 108.666666667 276 92 294 c 128
 75.3333333333 312 67 333.333333333 67 358 c 0
 67 397.333333333 84.3333333333 428.166666667 119 450.5 c 128
 153.666666667 472.833333333 191.666666667 484 233 484 c 0
 259.666666667 484 285.333333333 479.833333333 310 471.5 c 128
 334.666666667 463.166666667 361.333333333 451.333333333 390 436 c 1
 384.666666667 426 380.166666667 416.333333333 376.5 407 c 128
 372.833333333 397.666666667 369 386 365 372 c 1
343 680 m 2
 351.666666667 690 359.833333333 697.5 367.5 702.5 c 128
 375.166666667 707.5 384 710 394 710 c 0
 404.666666667 710 413.5 706.166666667 420.5 698.5 c 128
 427.5 690.833333333 431 682 431 672 c 256
 431 662 427.666666667 653.666666667 421 647 c 128
 414.333333333 640.333333333 404.333333333 633 391 625 c 2
 246 536 l 1
 211 536 l 1
 343 680 l 2
EndSplineSet
Validated: 1
EndChar
StartChar: uni03AE
Encoding: 942 942 181
Width: 543
Flags: HW
LayerCount: 2
Fore
SplineSet
429 -263 m 0
 421 -263 412.166666667 -263.5 402.5 -264.5 c 128
 392.833333333 -265.5 385.333333333 -266.333333333 380 -267 c 1
 380 -238.333333333 381.333333333 -195 384 -137 c 128
 386.666666667 -79 388 -35.3333333333 388 -6 c 2
 387 293 l 2
 387 331 378.833333333 362.166666667 362.5 386.5 c 128
 346.166666667 410.833333333 319.333333333 423 282 423 c 0
 233.333333333 423 200.5 404.166666667 183.5 366.5 c 128
 166.5 328.833333333 158 282.333333333 158 227 c 0
 158 200.333333333 158.666666667 156.833333333 160 96.5 c 128
 161.333333333 36.1666666667 162 4.33333333333 162 1 c 1
 114 5 l 1
 66 1 l 1
 72 113 l 1
 73 357 l 2
 73 372.333333333 71.8333333333 393.5 69.5 420.5 c 128
 67.1666666667 447.5 66 464.666666667 66 472 c 1
 72 470.666666667 78.5 469.5 85.5 468.5 c 128
 92.5 467.5 101.333333333 467 112 467 c 0
 121.333333333 467 128.5 467.333333333 133.5 468 c 128
 138.5 468.666666667 147.333333333 470 160 472 c 1
 157 388 l 1
 179 418.666666667 203.666666667 442.333333333 231 459 c 128
 258.333333333 475.666666667 290 484 326 484 c 0
 374.666666667 484 411.5 467.666666667 436.5 435 c 128
 461.5 402.333333333 474 360.666666667 474 310 c 1
 473 237 l 1
 473 -134 l 2
 473 -154 473.833333333 -179.833333333 475.5 -211.5 c 128
 477.166666667 -243.166666667 478 -261.666666667 478 -267 c 1
 470 -265.666666667 462.333333333 -264.666666667 455 -264 c 128
 447.666666667 -263.333333333 439 -263 429 -263 c 0
347 680 m 2
 355.666666667 690 363.833333333 697.5 371.5 702.5 c 128
 379.166666667 707.5 388 710 398 710 c 0
 409.333333333 710 418.333333333 706.333333333 425 699 c 128
 431.666666667 691.666666667 435 682.666666667 435 672 c 0
 435 662 431.666666667 653.666666667 425 647 c 128
 418.333333333 640.333333333 408.333333333 633 395 625 c 2
 251 536 l 1
 215 536 l 1
 347 680 l 2
EndSplineSet
Validated: 1
EndChar
StartChar: uni03AF
Encoding: 943 943 182
Width: 246
Flags: HW
LayerCount: 2
Fore
SplineSet
75 240 m 2
 74 375 l 2
 74 386.333333333 73.8333333333 397.333333333 73.5 408 c 128
 73.1666666667 418.666666667 71.6666666667 439.666666667 69 471 c 1
 85.6666666667 468.333333333 96.5 466.833333333 101.5 466.5 c 128
 106.5 466.166666667 112.333333333 466 119 466 c 0
 133.666666667 466 150 467.666666667 168 471 c 1
 164.666666667 445 162.666666667 421.333333333 162 400 c 128
 161.333333333 378.666666667 161 350.333333333 161 315 c 2
 161 293 l 2
 161 259.666666667 162.166666667 208.666666667 164.5 140 c 128
 166.833333333 71.3333333333 168 24.6666666667 168 0 c 1
 160 0.666666666667 152.333333333 1.5 145 2.5 c 128
 137.666666667 3.5 129 4 119 4 c 0
 111 4 102 3.5 92 2.5 c 128
 82 1.5 74.3333333333 0.666666666667 69 0 c 1
 69 24.6666666667 70 64.3333333333 72 119 c 128
 74 173.666666667 75 214 75 240 c 2
222 679 m 2
 230.666666667 689 238.666666667 696.5 246 701.5 c 128
 253.333333333 706.5 262 709 272 709 c 0
 283.333333333 709 292.333333333 705.333333333 299 698 c 128
 305.666666667 690.666666667 309 681.666666667 309 671 c 0
 309 661.666666667 305.5 653.166666667 298.5 645.5 c 128
 291.5 637.833333333 281.666666667 630.666666667 269 624 c 1
 125 535 l 1
 90 535 l 1
 222 679 l 2
EndSplineSet
Validated: 1
EndChar
StartChar: uni03B0
Encoding: 944 944 217
Width: 557
Flags: W
LayerCount: 2
Fore
SplineSet
508 285 m 0,0,1
 508 170 508 170 430.5 79.5 c 128,-1,2
 353 -11 353 -11 240 -11 c 0,3,4
 153 -11 153 -11 105 39 c 128,-1,5
 57 89 57 89 57 176 c 1,6,-1
 61 310 l 1,7,8
 61 350 61 350 60 390.5 c 128,-1,9
 59 431 59 431 58 471 c 1,10,-1
 107 468 l 1,11,-1
 158 471 l 1,12,13
 158 438 158 438 152.5 362 c 128,-1,14
 147 286 147 286 147 263 c 2,15,-1
 148 188 l 2,16,17
 148 121 148 121 176 76 c 128,-1,18
 204 31 204 31 268 31 c 0,19,20
 345 31 345 31 379 95.5 c 128,-1,21
 413 160 413 160 413 245 c 0,22,23
 413 301 413 301 397 355 c 128,-1,24
 381 409 381 409 353 465 c 1,25,26
 383 465 383 465 398 466.5 c 128,-1,27
 413 468 413 468 454 474 c 1,28,29
 508 387 508 387 508 285 c 0,0,1
152 623 m 0,30,31
 169 623 169 623 182 610 c 128,-1,32
 195 597 195 597 195 579 c 0,33,34
 195 562 195 562 182.5 548.5 c 128,-1,35
 170 535 170 535 152 535 c 256,36,37
 134 535 134 535 121 548 c 128,-1,38
 108 561 108 561 108 579 c 256,39,40
 108 597 108 597 121 610 c 128,-1,41
 134 623 134 623 152 623 c 0,30,31
262 669 m 2,42,43
 267 689 267 689 274 698 c 128,-1,44
 281 707 281 707 300 707 c 0,45,46
 332 707 332 707 332 678 c 0,47,48
 332 662 332 662 323 651 c 1,49,-1
 245 535 l 1,50,-1
 222 535 l 1,51,-1
 262 669 l 2,42,43
371 623 m 0,52,53
 388 623 388 623 401 610 c 128,-1,54
 414 597 414 597 414 579 c 256,55,56
 414 561 414 561 401 548 c 128,-1,57
 388 535 388 535 371 535 c 0,58,59
 352 535 352 535 340 548 c 128,-1,60
 328 561 328 561 328 579 c 256,61,62
 328 597 328 597 340 610 c 128,-1,63
 352 623 352 623 371 623 c 0,52,53
EndSplineSet
EndChar
StartChar: alpha
Encoding: 945 945 189
Width: 609
Flags: W
LayerCount: 2
Fore
SplineSet
508 254 m 1,0,1
 550 112 550 112 579 -1 c 1,2,-1
 533 1 l 1,3,-1
 485 -1 l 1,4,-1
 456 124 l 1,5,6
 428 63 428 63 375.5 26 c 128,-1,7
 323 -11 323 -11 257 -11 c 0,8,9
 157 -11 157 -11 93.5 58.5 c 128,-1,10
 30 128 30 128 30 228 c 0,11,12
 30 337 30 337 94.5 410.5 c 128,-1,13
 159 484 159 484 266 484 c 0,14,15
 335 484 335 484 387.5 448.5 c 128,-1,16
 440 413 440 413 475 350 c 1,17,18
 498 410 498 410 513 471 c 1,19,-1
 555 468 l 1,20,-1
 596 471 l 1,21,22
 571 415 571 415 550 364 c 128,-1,23
 529 313 529 313 508 254 c 1,0,1
272 446 m 0,24,25
 197 446 197 446 164 382.5 c 128,-1,26
 131 319 131 319 131 235 c 0,27,28
 131 154 131 154 161.5 89 c 128,-1,29
 192 24 192 24 265 24 c 0,30,31
 346 24 346 24 381 98.5 c 128,-1,32
 416 173 416 173 433 233 c 1,33,34
 417 320 417 320 380 383 c 128,-1,35
 343 446 343 446 272 446 c 0,24,25
EndSplineSet
EndChar
StartChar: beta
Encoding: 946 946 190
Width: 561
Flags: W
LayerCount: 2
Fore
SplineSet
116 -263 m 0,0,1
 109 -263 109 -263 93 -265 c 128,-1,2
 77 -267 77 -267 69 -267 c 1,3,4
 69 -235 69 -235 71.5 -183.5 c 128,-1,5
 74 -132 74 -132 74 -123 c 2,6,-1
 75 72 l 1,7,-1
 74 406 l 2,8,9
 74 555 74 555 120.5 646.5 c 128,-1,10
 167 738 167 738 302 738 c 0,11,12
 378 738 378 738 436 691.5 c 128,-1,13
 494 645 494 645 494 567 c 0,14,15
 494 508 494 508 462 462 c 128,-1,16
 430 416 430 416 376 395 c 1,17,18
 451 371 451 371 491 327.5 c 128,-1,19
 531 284 531 284 531 209 c 0,20,21
 531 117 531 117 467 53 c 128,-1,22
 403 -11 403 -11 311 -11 c 0,23,24
 268 -11 268 -11 233.5 2.5 c 128,-1,25
 199 16 199 16 163 44 c 1,26,27
 163 14 163 14 161.5 -32 c 128,-1,28
 160 -78 160 -78 160 -80 c 2,29,-1
 166 -267 l 1,30,31
 159 -267 159 -267 139.5 -265 c 128,-1,32
 120 -263 120 -263 116 -263 c 0,0,1
256 406 m 1,33,34
 330 406 330 406 365.5 445.5 c 128,-1,35
 401 485 401 485 401 561 c 0,36,37
 401 619 401 619 374.5 660.5 c 128,-1,38
 348 702 348 702 293 702 c 0,39,40
 233 702 233 702 201 653 c 128,-1,41
 169 604 169 604 169 542 c 0,42,43
 169 505 169 505 166.5 441.5 c 128,-1,44
 164 378 164 378 164 365 c 2,45,-1
 163 256 l 1,46,-1
 165 166 l 1,47,48
 165 106 165 106 198 67.5 c 128,-1,49
 231 29 231 29 292 29 c 0,50,51
 363 29 363 29 397.5 83.5 c 128,-1,52
 432 138 432 138 432 214 c 0,53,54
 432 278 432 278 396 319 c 128,-1,55
 360 360 360 360 297 360 c 0,56,57
 277 360 277 360 260 358 c 128,-1,58
 243 356 243 356 236 355 c 1,59,-1
 237 372 l 1,60,-1
 236 407 l 1,61,-1
 256 406 l 1,33,34
EndSplineSet
EndChar
StartChar: gamma
Encoding: 947 947 195
Width: 490
Flags: W
LayerCount: 2
Fore
SplineSet
462 466 m 0,0,1
 481 466 481 466 504 471 c 1,2,3
 455 375 455 375 426.5 317 c 128,-1,4
 398 259 398 259 361 178 c 2,5,-1
 295 35 l 1,6,-1
 294 -65 l 2,7,8
 294 -100 294 -100 297.5 -171.5 c 128,-1,9
 301 -243 301 -243 301 -268 c 1,10,-1
 268 -264 l 1,11,12
 234 -264 234 -264 203 -268 c 1,13,14
 203 -226 203 -226 206.5 -140.5 c 128,-1,15
 210 -55 210 -55 210 -24 c 0,16,17
 210 34 210 34 187.5 139 c 128,-1,18
 165 244 165 244 122.5 332 c 128,-1,19
 80 420 80 420 28 420 c 1,20,-1
 -9 417 l 1,21,-1
 -8 438 l 1,22,-1
 -9 460 l 1,23,24
 10 471 10 471 30.5 477.5 c 128,-1,25
 51 484 51 484 72 484 c 0,26,27
 168 484 168 484 200 399.5 c 128,-1,28
 232 315 232 315 285 103 c 1,29,30
 315 176 315 176 356 283 c 128,-1,31
 397 390 397 390 424 471 c 1,32,33
 436 468 436 468 442 467 c 128,-1,34
 448 466 448 466 462 466 c 0,0,1
EndSplineSet
EndChar
StartChar: delta
Encoding: 948 948 189
Width: 511
Flags: HW
LayerCount: 2
Fore
SplineSet
74 605 m 0
 74 651.666666667 94 685.5 134 706.5 c 128
 174 727.5 219.666666667 738 271 738 c 0
 300.333333333 738 329.666666667 734.5 359 727.5 c 128
 388.333333333 720.5 418 710.333333333 448 697 c 1
 440 675.666666667 433.666666667 653.666666667 429 631 c 1
 406.333333333 653.666666667 383.666666667 670.833333333 361 682.5 c 128
 338.333333333 694.166666667 312.666666667 700 284 700 c 0
 252.666666667 700 225.5 691.666666667 202.5 675 c 128
 179.5 658.333333333 168 635 168 605 c 0
 168 583 177.5 559.666666667 196.5 535 c 128
 215.5 510.333333333 254.333333333 482.666666667 313 452 c 128
 371.666666667 421.333333333 414.666666667 391.833333333 442 363.5 c 128
 469.333333333 335.166666667 483 287.333333333 483 220 c 256
 483 152.666666667 461.666666667 97.3333333333 419 54 c 128
 376.333333333 10.6666666667 321 -11 253 -11 c 0
 185.666666667 -11 131.666666667 10.3333333333 91 53 c 128
 50.3333333333 95.6666666667 30 151.333333333 30 220 c 0
 30 280 47.5 333 82.5 379 c 128
 117.5 425 163.666666667 448 221 448 c 1
 165 473.333333333 126.5 498.5 105.5 523.5 c 128
 84.5 548.5 74 575.666666667 74 605 c 0
257 415 m 0
 211.666666667 415 179.333333333 395 160 355 c 128
 140.666666667 315 131 269.333333333 131 218 c 0
 131 170 141.166666667 125.666666667 161.5 85 c 128
 181.833333333 44.3333333333 213.666666667 24 257 24 c 0
 302.333333333 24 334.5 43.8333333333 353.5 83.5 c 128
 372.5 123.166666667 382 169 382 221 c 0
 382 270.333333333 372.333333333 315 353 355 c 128
 333.666666667 395 301.666666667 415 257 415 c 0
EndSplineSet
Validated: 1
EndChar
